%TF.GenerationSoftware,KiCad,Pcbnew,9.0.7*%
%TF.CreationDate,2026-07-20T17:43:17+05:30*%
%TF.ProjectId,HackroDevX,4861636b-726f-4446-9576-582e6b696361,rev?*%
%TF.SameCoordinates,Original*%
%TF.FileFunction,Drillmap*%
%TF.FilePolarity,Positive*%
%FSLAX45Y45*%
G04 Gerber Fmt 4.5, Leading zero omitted, Abs format (unit mm)*
G04 Created by KiCad (PCBNEW 9.0.7) date 2026-07-20 17:43:17*
%MOMM*%
%LPD*%
G01*
G04 APERTURE LIST*
%ADD10C,0.050000*%
%ADD11C,0.200000*%
%ADD12C,0.100000*%
G04 APERTURE END LIST*
D10*
X9750000Y-6640000D02*
X11850000Y-6640000D01*
X11850000Y-11790000D01*
X9750000Y-11790000D01*
X9750000Y-6640000D01*
D11*
D12*
X10478500Y-7127500D02*
X10543500Y-7192500D01*
X10543500Y-7127500D02*
X10478500Y-7192500D01*
X11056500Y-7127500D02*
X11121500Y-7192500D01*
X11121500Y-7127500D02*
X11056500Y-7192500D01*
D11*
X10008277Y-12103984D02*
X10008277Y-11903984D01*
X10008277Y-11903984D02*
X10055896Y-11903984D01*
X10055896Y-11903984D02*
X10084467Y-11913508D01*
X10084467Y-11913508D02*
X10103515Y-11932555D01*
X10103515Y-11932555D02*
X10113039Y-11951603D01*
X10113039Y-11951603D02*
X10122563Y-11989698D01*
X10122563Y-11989698D02*
X10122563Y-12018269D01*
X10122563Y-12018269D02*
X10113039Y-12056365D01*
X10113039Y-12056365D02*
X10103515Y-12075412D01*
X10103515Y-12075412D02*
X10084467Y-12094460D01*
X10084467Y-12094460D02*
X10055896Y-12103984D01*
X10055896Y-12103984D02*
X10008277Y-12103984D01*
X10208277Y-12103984D02*
X10208277Y-11970650D01*
X10208277Y-12008746D02*
X10217801Y-11989698D01*
X10217801Y-11989698D02*
X10227324Y-11980174D01*
X10227324Y-11980174D02*
X10246372Y-11970650D01*
X10246372Y-11970650D02*
X10265420Y-11970650D01*
X10332086Y-12103984D02*
X10332086Y-11970650D01*
X10332086Y-11903984D02*
X10322563Y-11913508D01*
X10322563Y-11913508D02*
X10332086Y-11923031D01*
X10332086Y-11923031D02*
X10341610Y-11913508D01*
X10341610Y-11913508D02*
X10332086Y-11903984D01*
X10332086Y-11903984D02*
X10332086Y-11923031D01*
X10455896Y-12103984D02*
X10436848Y-12094460D01*
X10436848Y-12094460D02*
X10427324Y-12075412D01*
X10427324Y-12075412D02*
X10427324Y-11903984D01*
X10560658Y-12103984D02*
X10541610Y-12094460D01*
X10541610Y-12094460D02*
X10532086Y-12075412D01*
X10532086Y-12075412D02*
X10532086Y-11903984D01*
X10789229Y-12103984D02*
X10789229Y-11903984D01*
X10789229Y-11903984D02*
X10855896Y-12046841D01*
X10855896Y-12046841D02*
X10922563Y-11903984D01*
X10922563Y-11903984D02*
X10922563Y-12103984D01*
X11103515Y-12103984D02*
X11103515Y-11999222D01*
X11103515Y-11999222D02*
X11093991Y-11980174D01*
X11093991Y-11980174D02*
X11074944Y-11970650D01*
X11074944Y-11970650D02*
X11036848Y-11970650D01*
X11036848Y-11970650D02*
X11017801Y-11980174D01*
X11103515Y-12094460D02*
X11084467Y-12103984D01*
X11084467Y-12103984D02*
X11036848Y-12103984D01*
X11036848Y-12103984D02*
X11017801Y-12094460D01*
X11017801Y-12094460D02*
X11008277Y-12075412D01*
X11008277Y-12075412D02*
X11008277Y-12056365D01*
X11008277Y-12056365D02*
X11017801Y-12037317D01*
X11017801Y-12037317D02*
X11036848Y-12027793D01*
X11036848Y-12027793D02*
X11084467Y-12027793D01*
X11084467Y-12027793D02*
X11103515Y-12018269D01*
X11198753Y-11970650D02*
X11198753Y-12170650D01*
X11198753Y-11980174D02*
X11217801Y-11970650D01*
X11217801Y-11970650D02*
X11255896Y-11970650D01*
X11255896Y-11970650D02*
X11274943Y-11980174D01*
X11274943Y-11980174D02*
X11284467Y-11989698D01*
X11284467Y-11989698D02*
X11293991Y-12008746D01*
X11293991Y-12008746D02*
X11293991Y-12065888D01*
X11293991Y-12065888D02*
X11284467Y-12084936D01*
X11284467Y-12084936D02*
X11274943Y-12094460D01*
X11274943Y-12094460D02*
X11255896Y-12103984D01*
X11255896Y-12103984D02*
X11217801Y-12103984D01*
X11217801Y-12103984D02*
X11198753Y-12094460D01*
X11379705Y-12084936D02*
X11389229Y-12094460D01*
X11389229Y-12094460D02*
X11379705Y-12103984D01*
X11379705Y-12103984D02*
X11370182Y-12094460D01*
X11370182Y-12094460D02*
X11379705Y-12084936D01*
X11379705Y-12084936D02*
X11379705Y-12103984D01*
X11379705Y-11980174D02*
X11389229Y-11989698D01*
X11389229Y-11989698D02*
X11379705Y-11999222D01*
X11379705Y-11999222D02*
X11370182Y-11989698D01*
X11370182Y-11989698D02*
X11379705Y-11980174D01*
X11379705Y-11980174D02*
X11379705Y-11999222D01*
D12*
X9682500Y-12400000D02*
X9747500Y-12465000D01*
X9747500Y-12400000D02*
X9682500Y-12465000D01*
D11*
X10046372Y-12323984D02*
X10065420Y-12323984D01*
X10065420Y-12323984D02*
X10084467Y-12333508D01*
X10084467Y-12333508D02*
X10093991Y-12343031D01*
X10093991Y-12343031D02*
X10103515Y-12362079D01*
X10103515Y-12362079D02*
X10113039Y-12400174D01*
X10113039Y-12400174D02*
X10113039Y-12447793D01*
X10113039Y-12447793D02*
X10103515Y-12485888D01*
X10103515Y-12485888D02*
X10093991Y-12504936D01*
X10093991Y-12504936D02*
X10084467Y-12514460D01*
X10084467Y-12514460D02*
X10065420Y-12523984D01*
X10065420Y-12523984D02*
X10046372Y-12523984D01*
X10046372Y-12523984D02*
X10027324Y-12514460D01*
X10027324Y-12514460D02*
X10017801Y-12504936D01*
X10017801Y-12504936D02*
X10008277Y-12485888D01*
X10008277Y-12485888D02*
X9998753Y-12447793D01*
X9998753Y-12447793D02*
X9998753Y-12400174D01*
X9998753Y-12400174D02*
X10008277Y-12362079D01*
X10008277Y-12362079D02*
X10017801Y-12343031D01*
X10017801Y-12343031D02*
X10027324Y-12333508D01*
X10027324Y-12333508D02*
X10046372Y-12323984D01*
X10198753Y-12504936D02*
X10208277Y-12514460D01*
X10208277Y-12514460D02*
X10198753Y-12523984D01*
X10198753Y-12523984D02*
X10189229Y-12514460D01*
X10189229Y-12514460D02*
X10198753Y-12504936D01*
X10198753Y-12504936D02*
X10198753Y-12523984D01*
X10379705Y-12323984D02*
X10341610Y-12323984D01*
X10341610Y-12323984D02*
X10322563Y-12333508D01*
X10322563Y-12333508D02*
X10313039Y-12343031D01*
X10313039Y-12343031D02*
X10293991Y-12371603D01*
X10293991Y-12371603D02*
X10284467Y-12409698D01*
X10284467Y-12409698D02*
X10284467Y-12485888D01*
X10284467Y-12485888D02*
X10293991Y-12504936D01*
X10293991Y-12504936D02*
X10303515Y-12514460D01*
X10303515Y-12514460D02*
X10322563Y-12523984D01*
X10322563Y-12523984D02*
X10360658Y-12523984D01*
X10360658Y-12523984D02*
X10379705Y-12514460D01*
X10379705Y-12514460D02*
X10389229Y-12504936D01*
X10389229Y-12504936D02*
X10398753Y-12485888D01*
X10398753Y-12485888D02*
X10398753Y-12438269D01*
X10398753Y-12438269D02*
X10389229Y-12419222D01*
X10389229Y-12419222D02*
X10379705Y-12409698D01*
X10379705Y-12409698D02*
X10360658Y-12400174D01*
X10360658Y-12400174D02*
X10322563Y-12400174D01*
X10322563Y-12400174D02*
X10303515Y-12409698D01*
X10303515Y-12409698D02*
X10293991Y-12419222D01*
X10293991Y-12419222D02*
X10284467Y-12438269D01*
X10579705Y-12323984D02*
X10484467Y-12323984D01*
X10484467Y-12323984D02*
X10474944Y-12419222D01*
X10474944Y-12419222D02*
X10484467Y-12409698D01*
X10484467Y-12409698D02*
X10503515Y-12400174D01*
X10503515Y-12400174D02*
X10551134Y-12400174D01*
X10551134Y-12400174D02*
X10570182Y-12409698D01*
X10570182Y-12409698D02*
X10579705Y-12419222D01*
X10579705Y-12419222D02*
X10589229Y-12438269D01*
X10589229Y-12438269D02*
X10589229Y-12485888D01*
X10589229Y-12485888D02*
X10579705Y-12504936D01*
X10579705Y-12504936D02*
X10570182Y-12514460D01*
X10570182Y-12514460D02*
X10551134Y-12523984D01*
X10551134Y-12523984D02*
X10503515Y-12523984D01*
X10503515Y-12523984D02*
X10484467Y-12514460D01*
X10484467Y-12514460D02*
X10474944Y-12504936D01*
X10713039Y-12323984D02*
X10732086Y-12323984D01*
X10732086Y-12323984D02*
X10751134Y-12333508D01*
X10751134Y-12333508D02*
X10760658Y-12343031D01*
X10760658Y-12343031D02*
X10770182Y-12362079D01*
X10770182Y-12362079D02*
X10779705Y-12400174D01*
X10779705Y-12400174D02*
X10779705Y-12447793D01*
X10779705Y-12447793D02*
X10770182Y-12485888D01*
X10770182Y-12485888D02*
X10760658Y-12504936D01*
X10760658Y-12504936D02*
X10751134Y-12514460D01*
X10751134Y-12514460D02*
X10732086Y-12523984D01*
X10732086Y-12523984D02*
X10713039Y-12523984D01*
X10713039Y-12523984D02*
X10693991Y-12514460D01*
X10693991Y-12514460D02*
X10684467Y-12504936D01*
X10684467Y-12504936D02*
X10674944Y-12485888D01*
X10674944Y-12485888D02*
X10665420Y-12447793D01*
X10665420Y-12447793D02*
X10665420Y-12400174D01*
X10665420Y-12400174D02*
X10674944Y-12362079D01*
X10674944Y-12362079D02*
X10684467Y-12343031D01*
X10684467Y-12343031D02*
X10693991Y-12333508D01*
X10693991Y-12333508D02*
X10713039Y-12323984D01*
X10865420Y-12523984D02*
X10865420Y-12390650D01*
X10865420Y-12409698D02*
X10874944Y-12400174D01*
X10874944Y-12400174D02*
X10893991Y-12390650D01*
X10893991Y-12390650D02*
X10922563Y-12390650D01*
X10922563Y-12390650D02*
X10941610Y-12400174D01*
X10941610Y-12400174D02*
X10951134Y-12419222D01*
X10951134Y-12419222D02*
X10951134Y-12523984D01*
X10951134Y-12419222D02*
X10960658Y-12400174D01*
X10960658Y-12400174D02*
X10979705Y-12390650D01*
X10979705Y-12390650D02*
X11008277Y-12390650D01*
X11008277Y-12390650D02*
X11027325Y-12400174D01*
X11027325Y-12400174D02*
X11036848Y-12419222D01*
X11036848Y-12419222D02*
X11036848Y-12523984D01*
X11132086Y-12523984D02*
X11132086Y-12390650D01*
X11132086Y-12409698D02*
X11141610Y-12400174D01*
X11141610Y-12400174D02*
X11160658Y-12390650D01*
X11160658Y-12390650D02*
X11189229Y-12390650D01*
X11189229Y-12390650D02*
X11208277Y-12400174D01*
X11208277Y-12400174D02*
X11217801Y-12419222D01*
X11217801Y-12419222D02*
X11217801Y-12523984D01*
X11217801Y-12419222D02*
X11227324Y-12400174D01*
X11227324Y-12400174D02*
X11246372Y-12390650D01*
X11246372Y-12390650D02*
X11274943Y-12390650D01*
X11274943Y-12390650D02*
X11293991Y-12400174D01*
X11293991Y-12400174D02*
X11303515Y-12419222D01*
X11303515Y-12419222D02*
X11303515Y-12523984D01*
X11693991Y-12314460D02*
X11522563Y-12571603D01*
X11951134Y-12323984D02*
X11970182Y-12323984D01*
X11970182Y-12323984D02*
X11989229Y-12333508D01*
X11989229Y-12333508D02*
X11998753Y-12343031D01*
X11998753Y-12343031D02*
X12008277Y-12362079D01*
X12008277Y-12362079D02*
X12017801Y-12400174D01*
X12017801Y-12400174D02*
X12017801Y-12447793D01*
X12017801Y-12447793D02*
X12008277Y-12485888D01*
X12008277Y-12485888D02*
X11998753Y-12504936D01*
X11998753Y-12504936D02*
X11989229Y-12514460D01*
X11989229Y-12514460D02*
X11970182Y-12523984D01*
X11970182Y-12523984D02*
X11951134Y-12523984D01*
X11951134Y-12523984D02*
X11932086Y-12514460D01*
X11932086Y-12514460D02*
X11922563Y-12504936D01*
X11922563Y-12504936D02*
X11913039Y-12485888D01*
X11913039Y-12485888D02*
X11903515Y-12447793D01*
X11903515Y-12447793D02*
X11903515Y-12400174D01*
X11903515Y-12400174D02*
X11913039Y-12362079D01*
X11913039Y-12362079D02*
X11922563Y-12343031D01*
X11922563Y-12343031D02*
X11932086Y-12333508D01*
X11932086Y-12333508D02*
X11951134Y-12323984D01*
X12103515Y-12504936D02*
X12113039Y-12514460D01*
X12113039Y-12514460D02*
X12103515Y-12523984D01*
X12103515Y-12523984D02*
X12093991Y-12514460D01*
X12093991Y-12514460D02*
X12103515Y-12504936D01*
X12103515Y-12504936D02*
X12103515Y-12523984D01*
X12236848Y-12323984D02*
X12255896Y-12323984D01*
X12255896Y-12323984D02*
X12274944Y-12333508D01*
X12274944Y-12333508D02*
X12284467Y-12343031D01*
X12284467Y-12343031D02*
X12293991Y-12362079D01*
X12293991Y-12362079D02*
X12303515Y-12400174D01*
X12303515Y-12400174D02*
X12303515Y-12447793D01*
X12303515Y-12447793D02*
X12293991Y-12485888D01*
X12293991Y-12485888D02*
X12284467Y-12504936D01*
X12284467Y-12504936D02*
X12274944Y-12514460D01*
X12274944Y-12514460D02*
X12255896Y-12523984D01*
X12255896Y-12523984D02*
X12236848Y-12523984D01*
X12236848Y-12523984D02*
X12217801Y-12514460D01*
X12217801Y-12514460D02*
X12208277Y-12504936D01*
X12208277Y-12504936D02*
X12198753Y-12485888D01*
X12198753Y-12485888D02*
X12189229Y-12447793D01*
X12189229Y-12447793D02*
X12189229Y-12400174D01*
X12189229Y-12400174D02*
X12198753Y-12362079D01*
X12198753Y-12362079D02*
X12208277Y-12343031D01*
X12208277Y-12343031D02*
X12217801Y-12333508D01*
X12217801Y-12333508D02*
X12236848Y-12323984D01*
X12379706Y-12343031D02*
X12389229Y-12333508D01*
X12389229Y-12333508D02*
X12408277Y-12323984D01*
X12408277Y-12323984D02*
X12455896Y-12323984D01*
X12455896Y-12323984D02*
X12474944Y-12333508D01*
X12474944Y-12333508D02*
X12484467Y-12343031D01*
X12484467Y-12343031D02*
X12493991Y-12362079D01*
X12493991Y-12362079D02*
X12493991Y-12381127D01*
X12493991Y-12381127D02*
X12484467Y-12409698D01*
X12484467Y-12409698D02*
X12370182Y-12523984D01*
X12370182Y-12523984D02*
X12493991Y-12523984D01*
X12674944Y-12323984D02*
X12579706Y-12323984D01*
X12579706Y-12323984D02*
X12570182Y-12419222D01*
X12570182Y-12419222D02*
X12579706Y-12409698D01*
X12579706Y-12409698D02*
X12598753Y-12400174D01*
X12598753Y-12400174D02*
X12646372Y-12400174D01*
X12646372Y-12400174D02*
X12665420Y-12409698D01*
X12665420Y-12409698D02*
X12674944Y-12419222D01*
X12674944Y-12419222D02*
X12684467Y-12438269D01*
X12684467Y-12438269D02*
X12684467Y-12485888D01*
X12684467Y-12485888D02*
X12674944Y-12504936D01*
X12674944Y-12504936D02*
X12665420Y-12514460D01*
X12665420Y-12514460D02*
X12646372Y-12523984D01*
X12646372Y-12523984D02*
X12598753Y-12523984D01*
X12598753Y-12523984D02*
X12579706Y-12514460D01*
X12579706Y-12514460D02*
X12570182Y-12504936D01*
X12855896Y-12323984D02*
X12817801Y-12323984D01*
X12817801Y-12323984D02*
X12798753Y-12333508D01*
X12798753Y-12333508D02*
X12789229Y-12343031D01*
X12789229Y-12343031D02*
X12770182Y-12371603D01*
X12770182Y-12371603D02*
X12760658Y-12409698D01*
X12760658Y-12409698D02*
X12760658Y-12485888D01*
X12760658Y-12485888D02*
X12770182Y-12504936D01*
X12770182Y-12504936D02*
X12779706Y-12514460D01*
X12779706Y-12514460D02*
X12798753Y-12523984D01*
X12798753Y-12523984D02*
X12836848Y-12523984D01*
X12836848Y-12523984D02*
X12855896Y-12514460D01*
X12855896Y-12514460D02*
X12865420Y-12504936D01*
X12865420Y-12504936D02*
X12874944Y-12485888D01*
X12874944Y-12485888D02*
X12874944Y-12438269D01*
X12874944Y-12438269D02*
X12865420Y-12419222D01*
X12865420Y-12419222D02*
X12855896Y-12409698D01*
X12855896Y-12409698D02*
X12836848Y-12400174D01*
X12836848Y-12400174D02*
X12798753Y-12400174D01*
X12798753Y-12400174D02*
X12779706Y-12409698D01*
X12779706Y-12409698D02*
X12770182Y-12419222D01*
X12770182Y-12419222D02*
X12760658Y-12438269D01*
X12951134Y-12323984D02*
X12951134Y-12362079D01*
X13027325Y-12323984D02*
X13027325Y-12362079D01*
X13322563Y-12600174D02*
X13313039Y-12590650D01*
X13313039Y-12590650D02*
X13293991Y-12562079D01*
X13293991Y-12562079D02*
X13284468Y-12543031D01*
X13284468Y-12543031D02*
X13274944Y-12514460D01*
X13274944Y-12514460D02*
X13265420Y-12466841D01*
X13265420Y-12466841D02*
X13265420Y-12428746D01*
X13265420Y-12428746D02*
X13274944Y-12381127D01*
X13274944Y-12381127D02*
X13284468Y-12352555D01*
X13284468Y-12352555D02*
X13293991Y-12333508D01*
X13293991Y-12333508D02*
X13313039Y-12304936D01*
X13313039Y-12304936D02*
X13322563Y-12295412D01*
X13389229Y-12343031D02*
X13398753Y-12333508D01*
X13398753Y-12333508D02*
X13417801Y-12323984D01*
X13417801Y-12323984D02*
X13465420Y-12323984D01*
X13465420Y-12323984D02*
X13484468Y-12333508D01*
X13484468Y-12333508D02*
X13493991Y-12343031D01*
X13493991Y-12343031D02*
X13503515Y-12362079D01*
X13503515Y-12362079D02*
X13503515Y-12381127D01*
X13503515Y-12381127D02*
X13493991Y-12409698D01*
X13493991Y-12409698D02*
X13379706Y-12523984D01*
X13379706Y-12523984D02*
X13503515Y-12523984D01*
X13741610Y-12523984D02*
X13741610Y-12323984D01*
X13827325Y-12523984D02*
X13827325Y-12419222D01*
X13827325Y-12419222D02*
X13817801Y-12400174D01*
X13817801Y-12400174D02*
X13798753Y-12390650D01*
X13798753Y-12390650D02*
X13770182Y-12390650D01*
X13770182Y-12390650D02*
X13751134Y-12400174D01*
X13751134Y-12400174D02*
X13741610Y-12409698D01*
X13951134Y-12523984D02*
X13932087Y-12514460D01*
X13932087Y-12514460D02*
X13922563Y-12504936D01*
X13922563Y-12504936D02*
X13913039Y-12485888D01*
X13913039Y-12485888D02*
X13913039Y-12428746D01*
X13913039Y-12428746D02*
X13922563Y-12409698D01*
X13922563Y-12409698D02*
X13932087Y-12400174D01*
X13932087Y-12400174D02*
X13951134Y-12390650D01*
X13951134Y-12390650D02*
X13979706Y-12390650D01*
X13979706Y-12390650D02*
X13998753Y-12400174D01*
X13998753Y-12400174D02*
X14008277Y-12409698D01*
X14008277Y-12409698D02*
X14017801Y-12428746D01*
X14017801Y-12428746D02*
X14017801Y-12485888D01*
X14017801Y-12485888D02*
X14008277Y-12504936D01*
X14008277Y-12504936D02*
X13998753Y-12514460D01*
X13998753Y-12514460D02*
X13979706Y-12523984D01*
X13979706Y-12523984D02*
X13951134Y-12523984D01*
X14132087Y-12523984D02*
X14113039Y-12514460D01*
X14113039Y-12514460D02*
X14103515Y-12495412D01*
X14103515Y-12495412D02*
X14103515Y-12323984D01*
X14284468Y-12514460D02*
X14265420Y-12523984D01*
X14265420Y-12523984D02*
X14227325Y-12523984D01*
X14227325Y-12523984D02*
X14208277Y-12514460D01*
X14208277Y-12514460D02*
X14198753Y-12495412D01*
X14198753Y-12495412D02*
X14198753Y-12419222D01*
X14198753Y-12419222D02*
X14208277Y-12400174D01*
X14208277Y-12400174D02*
X14227325Y-12390650D01*
X14227325Y-12390650D02*
X14265420Y-12390650D01*
X14265420Y-12390650D02*
X14284468Y-12400174D01*
X14284468Y-12400174D02*
X14293991Y-12419222D01*
X14293991Y-12419222D02*
X14293991Y-12438269D01*
X14293991Y-12438269D02*
X14198753Y-12457317D01*
X14370182Y-12514460D02*
X14389230Y-12523984D01*
X14389230Y-12523984D02*
X14427325Y-12523984D01*
X14427325Y-12523984D02*
X14446372Y-12514460D01*
X14446372Y-12514460D02*
X14455896Y-12495412D01*
X14455896Y-12495412D02*
X14455896Y-12485888D01*
X14455896Y-12485888D02*
X14446372Y-12466841D01*
X14446372Y-12466841D02*
X14427325Y-12457317D01*
X14427325Y-12457317D02*
X14398753Y-12457317D01*
X14398753Y-12457317D02*
X14379706Y-12447793D01*
X14379706Y-12447793D02*
X14370182Y-12428746D01*
X14370182Y-12428746D02*
X14370182Y-12419222D01*
X14370182Y-12419222D02*
X14379706Y-12400174D01*
X14379706Y-12400174D02*
X14398753Y-12390650D01*
X14398753Y-12390650D02*
X14427325Y-12390650D01*
X14427325Y-12390650D02*
X14446372Y-12400174D01*
X14522563Y-12600174D02*
X14532087Y-12590650D01*
X14532087Y-12590650D02*
X14551134Y-12562079D01*
X14551134Y-12562079D02*
X14560658Y-12543031D01*
X14560658Y-12543031D02*
X14570182Y-12514460D01*
X14570182Y-12514460D02*
X14579706Y-12466841D01*
X14579706Y-12466841D02*
X14579706Y-12428746D01*
X14579706Y-12428746D02*
X14570182Y-12381127D01*
X14570182Y-12381127D02*
X14560658Y-12352555D01*
X14560658Y-12352555D02*
X14551134Y-12333508D01*
X14551134Y-12333508D02*
X14532087Y-12304936D01*
X14532087Y-12304936D02*
X14522563Y-12295412D01*
X14884468Y-12600174D02*
X14874944Y-12590650D01*
X14874944Y-12590650D02*
X14855896Y-12562079D01*
X14855896Y-12562079D02*
X14846372Y-12543031D01*
X14846372Y-12543031D02*
X14836849Y-12514460D01*
X14836849Y-12514460D02*
X14827325Y-12466841D01*
X14827325Y-12466841D02*
X14827325Y-12428746D01*
X14827325Y-12428746D02*
X14836849Y-12381127D01*
X14836849Y-12381127D02*
X14846372Y-12352555D01*
X14846372Y-12352555D02*
X14855896Y-12333508D01*
X14855896Y-12333508D02*
X14874944Y-12304936D01*
X14874944Y-12304936D02*
X14884468Y-12295412D01*
X14960658Y-12390650D02*
X14960658Y-12523984D01*
X14960658Y-12409698D02*
X14970182Y-12400174D01*
X14970182Y-12400174D02*
X14989230Y-12390650D01*
X14989230Y-12390650D02*
X15017801Y-12390650D01*
X15017801Y-12390650D02*
X15036849Y-12400174D01*
X15036849Y-12400174D02*
X15046372Y-12419222D01*
X15046372Y-12419222D02*
X15046372Y-12523984D01*
X15170182Y-12523984D02*
X15151134Y-12514460D01*
X15151134Y-12514460D02*
X15141611Y-12504936D01*
X15141611Y-12504936D02*
X15132087Y-12485888D01*
X15132087Y-12485888D02*
X15132087Y-12428746D01*
X15132087Y-12428746D02*
X15141611Y-12409698D01*
X15141611Y-12409698D02*
X15151134Y-12400174D01*
X15151134Y-12400174D02*
X15170182Y-12390650D01*
X15170182Y-12390650D02*
X15198753Y-12390650D01*
X15198753Y-12390650D02*
X15217801Y-12400174D01*
X15217801Y-12400174D02*
X15227325Y-12409698D01*
X15227325Y-12409698D02*
X15236849Y-12428746D01*
X15236849Y-12428746D02*
X15236849Y-12485888D01*
X15236849Y-12485888D02*
X15227325Y-12504936D01*
X15227325Y-12504936D02*
X15217801Y-12514460D01*
X15217801Y-12514460D02*
X15198753Y-12523984D01*
X15198753Y-12523984D02*
X15170182Y-12523984D01*
X15293992Y-12390650D02*
X15370182Y-12390650D01*
X15322563Y-12323984D02*
X15322563Y-12495412D01*
X15322563Y-12495412D02*
X15332087Y-12514460D01*
X15332087Y-12514460D02*
X15351134Y-12523984D01*
X15351134Y-12523984D02*
X15370182Y-12523984D01*
X15589230Y-12390650D02*
X15589230Y-12590650D01*
X15589230Y-12400174D02*
X15608277Y-12390650D01*
X15608277Y-12390650D02*
X15646373Y-12390650D01*
X15646373Y-12390650D02*
X15665420Y-12400174D01*
X15665420Y-12400174D02*
X15674944Y-12409698D01*
X15674944Y-12409698D02*
X15684468Y-12428746D01*
X15684468Y-12428746D02*
X15684468Y-12485888D01*
X15684468Y-12485888D02*
X15674944Y-12504936D01*
X15674944Y-12504936D02*
X15665420Y-12514460D01*
X15665420Y-12514460D02*
X15646373Y-12523984D01*
X15646373Y-12523984D02*
X15608277Y-12523984D01*
X15608277Y-12523984D02*
X15589230Y-12514460D01*
X15798753Y-12523984D02*
X15779706Y-12514460D01*
X15779706Y-12514460D02*
X15770182Y-12495412D01*
X15770182Y-12495412D02*
X15770182Y-12323984D01*
X15960658Y-12523984D02*
X15960658Y-12419222D01*
X15960658Y-12419222D02*
X15951134Y-12400174D01*
X15951134Y-12400174D02*
X15932087Y-12390650D01*
X15932087Y-12390650D02*
X15893992Y-12390650D01*
X15893992Y-12390650D02*
X15874944Y-12400174D01*
X15960658Y-12514460D02*
X15941611Y-12523984D01*
X15941611Y-12523984D02*
X15893992Y-12523984D01*
X15893992Y-12523984D02*
X15874944Y-12514460D01*
X15874944Y-12514460D02*
X15865420Y-12495412D01*
X15865420Y-12495412D02*
X15865420Y-12476365D01*
X15865420Y-12476365D02*
X15874944Y-12457317D01*
X15874944Y-12457317D02*
X15893992Y-12447793D01*
X15893992Y-12447793D02*
X15941611Y-12447793D01*
X15941611Y-12447793D02*
X15960658Y-12438269D01*
X16027325Y-12390650D02*
X16103515Y-12390650D01*
X16055896Y-12323984D02*
X16055896Y-12495412D01*
X16055896Y-12495412D02*
X16065420Y-12514460D01*
X16065420Y-12514460D02*
X16084468Y-12523984D01*
X16084468Y-12523984D02*
X16103515Y-12523984D01*
X16246373Y-12514460D02*
X16227325Y-12523984D01*
X16227325Y-12523984D02*
X16189230Y-12523984D01*
X16189230Y-12523984D02*
X16170182Y-12514460D01*
X16170182Y-12514460D02*
X16160658Y-12495412D01*
X16160658Y-12495412D02*
X16160658Y-12419222D01*
X16160658Y-12419222D02*
X16170182Y-12400174D01*
X16170182Y-12400174D02*
X16189230Y-12390650D01*
X16189230Y-12390650D02*
X16227325Y-12390650D01*
X16227325Y-12390650D02*
X16246373Y-12400174D01*
X16246373Y-12400174D02*
X16255896Y-12419222D01*
X16255896Y-12419222D02*
X16255896Y-12438269D01*
X16255896Y-12438269D02*
X16160658Y-12457317D01*
X16427325Y-12523984D02*
X16427325Y-12323984D01*
X16427325Y-12514460D02*
X16408277Y-12523984D01*
X16408277Y-12523984D02*
X16370182Y-12523984D01*
X16370182Y-12523984D02*
X16351134Y-12514460D01*
X16351134Y-12514460D02*
X16341611Y-12504936D01*
X16341611Y-12504936D02*
X16332087Y-12485888D01*
X16332087Y-12485888D02*
X16332087Y-12428746D01*
X16332087Y-12428746D02*
X16341611Y-12409698D01*
X16341611Y-12409698D02*
X16351134Y-12400174D01*
X16351134Y-12400174D02*
X16370182Y-12390650D01*
X16370182Y-12390650D02*
X16408277Y-12390650D01*
X16408277Y-12390650D02*
X16427325Y-12400174D01*
X16503515Y-12600174D02*
X16513039Y-12590650D01*
X16513039Y-12590650D02*
X16532087Y-12562079D01*
X16532087Y-12562079D02*
X16541611Y-12543031D01*
X16541611Y-12543031D02*
X16551134Y-12514460D01*
X16551134Y-12514460D02*
X16560658Y-12466841D01*
X16560658Y-12466841D02*
X16560658Y-12428746D01*
X16560658Y-12428746D02*
X16551134Y-12381127D01*
X16551134Y-12381127D02*
X16541611Y-12352555D01*
X16541611Y-12352555D02*
X16532087Y-12333508D01*
X16532087Y-12333508D02*
X16513039Y-12304936D01*
X16513039Y-12304936D02*
X16503515Y-12295412D01*
M02*
