%TF.GenerationSoftware,KiCad,Pcbnew,9.0.7*%
%TF.CreationDate,2026-07-20T17:43:14+05:30*%
%TF.ProjectId,HackroDevX,4861636b-726f-4446-9576-582e6b696361,rev?*%
%TF.SameCoordinates,Original*%
%TF.FileFunction,Legend,Top*%
%TF.FilePolarity,Positive*%
%FSLAX46Y46*%
G04 Gerber Fmt 4.6, Leading zero omitted, Abs format (unit mm)*
G04 Created by KiCad (PCBNEW 9.0.7) date 2026-07-20 17:43:14*
%MOMM*%
%LPD*%
G01*
G04 APERTURE LIST*
%ADD10C,0.100000*%
%ADD11C,0.150000*%
%ADD12C,0.040000*%
%ADD13C,0.120000*%
%ADD14C,0.060000*%
%ADD15C,0.110000*%
%ADD16C,0.000000*%
G04 APERTURE END LIST*
D10*
G36*
X104881935Y-104580000D02*
G01*
X104881935Y-103587397D01*
X105021275Y-103587397D01*
X105021275Y-104580000D01*
X104881935Y-104580000D01*
G37*
G36*
X104317673Y-104580000D02*
G01*
X104317673Y-103587397D01*
X104457013Y-103587397D01*
X104457013Y-104580000D01*
X104317673Y-104580000D01*
G37*
G36*
X104404440Y-104157948D02*
G01*
X104404440Y-104025080D01*
X104955696Y-104025080D01*
X104955696Y-104157948D01*
X104404440Y-104157948D01*
G37*
G36*
X105653925Y-104580000D02*
G01*
X105653925Y-104131570D01*
X105649353Y-104086649D01*
X105636705Y-104051361D01*
X105616678Y-104023553D01*
X105589541Y-104002771D01*
X105555090Y-103989729D01*
X105511165Y-103985024D01*
X105469824Y-103988168D01*
X105428795Y-103997663D01*
X105390047Y-104013260D01*
X105356071Y-104034239D01*
X105254283Y-103964508D01*
X105283415Y-103935031D01*
X105318542Y-103909869D01*
X105360468Y-103888975D01*
X105428974Y-103868896D01*
X105507074Y-103861926D01*
X105573688Y-103866801D01*
X105629016Y-103880440D01*
X105675048Y-103901861D01*
X105713337Y-103930802D01*
X105744408Y-103967417D01*
X105767070Y-104010999D01*
X105781350Y-104062950D01*
X105786427Y-104125158D01*
X105786427Y-104580000D01*
X105653925Y-104580000D01*
G37*
G36*
X105480391Y-104590746D02*
G01*
X105413908Y-104586728D01*
X105360641Y-104575721D01*
X105318224Y-104558930D01*
X105284691Y-104537013D01*
X105257178Y-104507974D01*
X105236987Y-104471960D01*
X105224115Y-104427464D01*
X105219478Y-104372393D01*
X105223740Y-104319868D01*
X105235567Y-104277318D01*
X105254080Y-104242811D01*
X105279196Y-104214918D01*
X105322145Y-104187565D01*
X105380369Y-104169550D01*
X105458531Y-104162833D01*
X105660093Y-104162833D01*
X105669618Y-104275184D01*
X105459203Y-104275184D01*
X105423997Y-104278261D01*
X105397586Y-104286543D01*
X105377931Y-104299181D01*
X105363348Y-104316984D01*
X105354053Y-104340805D01*
X105350637Y-104372576D01*
X105355004Y-104406343D01*
X105367124Y-104432058D01*
X105386846Y-104451711D01*
X105412375Y-104465030D01*
X105447599Y-104474023D01*
X105495412Y-104477418D01*
X105569488Y-104472426D01*
X105614297Y-104460321D01*
X105637126Y-104446064D01*
X105649693Y-104428640D01*
X105653925Y-104407015D01*
X105668275Y-104507276D01*
X105647519Y-104533330D01*
X105622479Y-104554110D01*
X105593591Y-104569966D01*
X105559953Y-104581587D01*
X105523502Y-104588337D01*
X105480391Y-104590746D01*
G37*
G36*
X106284316Y-104590746D02*
G01*
X106211501Y-104585100D01*
X106150847Y-104569262D01*
X106100163Y-104544254D01*
X106057781Y-104510207D01*
X106023885Y-104467731D01*
X105998967Y-104416910D01*
X105983177Y-104356065D01*
X105977547Y-104283000D01*
X105977547Y-104166313D01*
X105983175Y-104093927D01*
X105998956Y-104033694D01*
X106023867Y-103983418D01*
X106057781Y-103941427D01*
X106100096Y-103907861D01*
X106150753Y-103883167D01*
X106211431Y-103867510D01*
X106284316Y-103861926D01*
X106339221Y-103865342D01*
X106389054Y-103875241D01*
X106434526Y-103891296D01*
X106476752Y-103914043D01*
X106512027Y-103941940D01*
X106541138Y-103975193D01*
X106440754Y-104065258D01*
X106408544Y-104035231D01*
X106371022Y-104013112D01*
X106329714Y-103999376D01*
X106286331Y-103994794D01*
X106234418Y-104000282D01*
X106193590Y-104015502D01*
X106161340Y-104039734D01*
X106137457Y-104072300D01*
X106122394Y-104113680D01*
X106116949Y-104166435D01*
X106116949Y-104282878D01*
X106122424Y-104337014D01*
X106137519Y-104379249D01*
X106161340Y-104412266D01*
X106193643Y-104436889D01*
X106234472Y-104452320D01*
X106286331Y-104457878D01*
X106329648Y-104452975D01*
X106371022Y-104438217D01*
X106408453Y-104414600D01*
X106440754Y-104382590D01*
X106541138Y-104479494D01*
X106512095Y-104511880D01*
X106476734Y-104539246D01*
X106434220Y-104561742D01*
X106388536Y-104577620D01*
X106338787Y-104587385D01*
X106284316Y-104590746D01*
G37*
G36*
X106745874Y-104476441D02*
G01*
X106754789Y-104311516D01*
X107119566Y-103872672D01*
X107283514Y-103872672D01*
X106745874Y-104476441D01*
G37*
G36*
X106694644Y-104580000D02*
G01*
X106694644Y-103587397D01*
X106833985Y-103587397D01*
X106833985Y-104580000D01*
X106694644Y-104580000D01*
G37*
G36*
X107166705Y-104580000D02*
G01*
X106919409Y-104171809D01*
X107008863Y-104079118D01*
X107318318Y-104580000D01*
X107166705Y-104580000D01*
G37*
G36*
X107434212Y-104580000D02*
G01*
X107434212Y-103872672D01*
X107573552Y-103872672D01*
X107573552Y-104580000D01*
X107434212Y-104580000D01*
G37*
G36*
X107824267Y-104040528D02*
G01*
X107803547Y-104020815D01*
X107777800Y-104006395D01*
X107748412Y-103997840D01*
X107712954Y-103994794D01*
X107670186Y-103999235D01*
X107636577Y-104011534D01*
X107610066Y-104031064D01*
X107590344Y-104057378D01*
X107577993Y-104090450D01*
X107573552Y-104132241D01*
X107559203Y-103995587D01*
X107583380Y-103956082D01*
X107611460Y-103923613D01*
X107643589Y-103897402D01*
X107679761Y-103877628D01*
X107717882Y-103865886D01*
X107758688Y-103861926D01*
X107805689Y-103865570D01*
X107846432Y-103875969D01*
X107883428Y-103893454D01*
X107915126Y-103917430D01*
X107824267Y-104040528D01*
G37*
G36*
X108358534Y-103867488D02*
G01*
X108416257Y-103883121D01*
X108464629Y-103907896D01*
X108505216Y-103941793D01*
X108537418Y-103983687D01*
X108561202Y-104033978D01*
X108576324Y-104094353D01*
X108581725Y-104166985D01*
X108581725Y-104284344D01*
X108576320Y-104357335D01*
X108561190Y-104417997D01*
X108537404Y-104468510D01*
X108505216Y-104510573D01*
X108464609Y-104544614D01*
X108416229Y-104569480D01*
X108358514Y-104585166D01*
X108289367Y-104590746D01*
X108220232Y-104585127D01*
X108162512Y-104569323D01*
X108114106Y-104544254D01*
X108073456Y-104509902D01*
X108041270Y-104467494D01*
X108017480Y-104416627D01*
X108002351Y-104355608D01*
X107996947Y-104282267D01*
X107996947Y-104167107D01*
X108136349Y-104167107D01*
X108136349Y-104284221D01*
X108141359Y-104337773D01*
X108155124Y-104379597D01*
X108176649Y-104412266D01*
X108206285Y-104437125D01*
X108243131Y-104452426D01*
X108289367Y-104457878D01*
X108336044Y-104452400D01*
X108372960Y-104437078D01*
X108402390Y-104412266D01*
X108423741Y-104379621D01*
X108437408Y-104337797D01*
X108442385Y-104284221D01*
X108442385Y-104167107D01*
X108437392Y-104113538D01*
X108423714Y-104071966D01*
X108402390Y-104039734D01*
X108373012Y-104015318D01*
X108336098Y-104000205D01*
X108289367Y-103994794D01*
X108243078Y-104000179D01*
X108206233Y-104015272D01*
X108176649Y-104039734D01*
X108155150Y-104071990D01*
X108141374Y-104113563D01*
X108136349Y-104167107D01*
X107996947Y-104167107D01*
X107996947Y-104166985D01*
X108002349Y-104094353D01*
X108017471Y-104033978D01*
X108041255Y-103983687D01*
X108073456Y-103941793D01*
X108114043Y-103907898D01*
X108162424Y-103883124D01*
X108220166Y-103867489D01*
X108289367Y-103861926D01*
X108358534Y-103867488D01*
G37*
G36*
X108887456Y-104580000D02*
G01*
X108887456Y-104447131D01*
X109112160Y-104447131D01*
X109167196Y-104443104D01*
X109212921Y-104431836D01*
X109250976Y-104414137D01*
X109282641Y-104390223D01*
X109308346Y-104359937D01*
X109327089Y-104323912D01*
X109338895Y-104280996D01*
X109343091Y-104229633D01*
X109343091Y-103937763D01*
X109338894Y-103886399D01*
X109327086Y-103843495D01*
X109308344Y-103807492D01*
X109282641Y-103777234D01*
X109250972Y-103753292D01*
X109212916Y-103735575D01*
X109167191Y-103724296D01*
X109112160Y-103720265D01*
X108887456Y-103720265D01*
X108887456Y-103587397D01*
X109108069Y-103587397D01*
X109198308Y-103593999D01*
X109273187Y-103612459D01*
X109335416Y-103641438D01*
X109387116Y-103680575D01*
X109429102Y-103730103D01*
X109459715Y-103788999D01*
X109478998Y-103859144D01*
X109485851Y-103943075D01*
X109485851Y-104224321D01*
X109480535Y-104298333D01*
X109465459Y-104361829D01*
X109441460Y-104416540D01*
X109407499Y-104465239D01*
X109364790Y-104505529D01*
X109312317Y-104538051D01*
X109254397Y-104560626D01*
X109186692Y-104574930D01*
X109107397Y-104580000D01*
X108887456Y-104580000D01*
G37*
G36*
X108793179Y-104580000D02*
G01*
X108793179Y-103587397D01*
X108932519Y-103587397D01*
X108932519Y-104580000D01*
X108793179Y-104580000D01*
G37*
G36*
X109988198Y-104590746D02*
G01*
X109914439Y-104584968D01*
X109852983Y-104568753D01*
X109801602Y-104543126D01*
X109758610Y-104508192D01*
X109724387Y-104464702D01*
X109699133Y-104412361D01*
X109683077Y-104349374D01*
X109677338Y-104273414D01*
X109677338Y-104193607D01*
X109682916Y-104114153D01*
X109698484Y-104048339D01*
X109722836Y-103993795D01*
X109755557Y-103948632D01*
X109797380Y-103911586D01*
X109846910Y-103884736D01*
X109905691Y-103867896D01*
X109975864Y-103861926D01*
X110040878Y-103868466D01*
X110095840Y-103887106D01*
X110142831Y-103917414D01*
X110183165Y-103960355D01*
X110213479Y-104010678D01*
X110236435Y-104071973D01*
X110251275Y-104146402D01*
X110256621Y-104236533D01*
X110256621Y-104283000D01*
X109778454Y-104283000D01*
X109778454Y-104170648D01*
X110124119Y-104170648D01*
X110115704Y-104114588D01*
X110100481Y-104070622D01*
X110079362Y-104036376D01*
X110050731Y-104009489D01*
X110016807Y-103993508D01*
X109975864Y-103987955D01*
X109925913Y-103994094D01*
X109885947Y-104011399D01*
X109853620Y-104039734D01*
X109830388Y-104076642D01*
X109815392Y-104124431D01*
X109809901Y-104186158D01*
X109809901Y-104276039D01*
X109815685Y-104332788D01*
X109831597Y-104376779D01*
X109856673Y-104410922D01*
X109890619Y-104436232D01*
X109933584Y-104452140D01*
X109988198Y-104457878D01*
X110030042Y-104453740D01*
X110072156Y-104441086D01*
X110111671Y-104420866D01*
X110146650Y-104394009D01*
X110238180Y-104485233D01*
X110182191Y-104530023D01*
X110120028Y-104563208D01*
X110053710Y-104583980D01*
X109988198Y-104590746D01*
G37*
G36*
X110664690Y-104377644D02*
G01*
X110838224Y-103872672D01*
X110983732Y-103872672D01*
X110717263Y-104580000D01*
X110612116Y-104580000D01*
X110345647Y-103872672D01*
X110491155Y-103872672D01*
X110664690Y-104377644D01*
G37*
G36*
X111634700Y-104580000D02*
G01*
X111376474Y-104143782D01*
X111355347Y-104109649D01*
X111032886Y-103587397D01*
X111189323Y-103587397D01*
X111429109Y-103991557D01*
X111451640Y-104028377D01*
X111791138Y-104580000D01*
X111634700Y-104580000D01*
G37*
G36*
X111024703Y-104580000D02*
G01*
X111370368Y-104012684D01*
X111619679Y-103587397D01*
X111776117Y-103587397D01*
X111447549Y-104124670D01*
X111181141Y-104580000D01*
X111024703Y-104580000D01*
G37*
D11*
G36*
X101169439Y-67683980D02*
G01*
X101172538Y-67639181D01*
X101181510Y-67598755D01*
X101196092Y-67562027D01*
X101216561Y-67528509D01*
X101241555Y-67500886D01*
X101271380Y-67478542D01*
X101354911Y-67593305D01*
X101333936Y-67613714D01*
X101318504Y-67637635D01*
X101308902Y-67664162D01*
X101305727Y-67691674D01*
X101309072Y-67717270D01*
X101318531Y-67737692D01*
X101334166Y-67754185D01*
X101354296Y-67765837D01*
X101380459Y-67773424D01*
X101414308Y-67776213D01*
X101921952Y-67776213D01*
X101921952Y-67921705D01*
X101413804Y-67921705D01*
X101355767Y-67917325D01*
X101307451Y-67905050D01*
X101267128Y-67885710D01*
X101233462Y-67859469D01*
X101206325Y-67826514D01*
X101186459Y-67787202D01*
X101173908Y-67740257D01*
X101169439Y-67683980D01*
G37*
G36*
X101177500Y-68380988D02*
G01*
X101707995Y-68380988D01*
X101707995Y-68520848D01*
X101177500Y-68520848D01*
X101177500Y-68380988D01*
G37*
G36*
X101707995Y-68216033D02*
G01*
X101385686Y-68216033D01*
X101361057Y-68218679D01*
X101341620Y-68226035D01*
X101326198Y-68237786D01*
X101314794Y-68253552D01*
X101307596Y-68273554D01*
X101304994Y-68299014D01*
X101307666Y-68324420D01*
X101315046Y-68344219D01*
X101326747Y-68359693D01*
X101342540Y-68371107D01*
X101362845Y-68378354D01*
X101388983Y-68380988D01*
X101272250Y-68388178D01*
X101235242Y-68370096D01*
X101201130Y-68341284D01*
X101183795Y-68317229D01*
X101173174Y-68288703D01*
X101169439Y-68254455D01*
X101173212Y-68212380D01*
X101183871Y-68177133D01*
X101200945Y-68147395D01*
X101224669Y-68122244D01*
X101253251Y-68102832D01*
X101287846Y-68088298D01*
X101329653Y-68078971D01*
X101380145Y-68075624D01*
X101707995Y-68075624D01*
X101707995Y-68216033D01*
G37*
G36*
X101921952Y-68799285D02*
G01*
X101353492Y-68799285D01*
X101336189Y-68802216D01*
X101323770Y-68810413D01*
X101315926Y-68823268D01*
X101313054Y-68841783D01*
X101313054Y-68865368D01*
X101177500Y-68865368D01*
X101177500Y-68793652D01*
X101181979Y-68752477D01*
X101194434Y-68719996D01*
X101214365Y-68694230D01*
X101240996Y-68675253D01*
X101274945Y-68663232D01*
X101318321Y-68658876D01*
X101921952Y-68658876D01*
X101921952Y-68799285D01*
G37*
G36*
X101707995Y-69265025D02*
G01*
X101707995Y-69397191D01*
X101057744Y-69160520D01*
X101023405Y-69144424D01*
X100998940Y-69125950D01*
X100982365Y-69105199D01*
X100971332Y-69080680D01*
X100964010Y-69048688D01*
X100961299Y-69007334D01*
X100961299Y-68976056D01*
X101097586Y-68976056D01*
X101097586Y-69007334D01*
X101100118Y-69028118D01*
X101107203Y-69044474D01*
X101119487Y-69057398D01*
X101139627Y-69067784D01*
X101707995Y-69265025D01*
G37*
G36*
X101137932Y-69128234D02*
G01*
X101707995Y-68905897D01*
X101707995Y-69038063D01*
X101250131Y-69216848D01*
X101137932Y-69128234D01*
G37*
G36*
X101177500Y-69734246D02*
G01*
X101304307Y-69734246D01*
X101640447Y-69989923D01*
X101663598Y-70005518D01*
X101686792Y-70016805D01*
X101710443Y-70024050D01*
X101731122Y-70026285D01*
X101732175Y-70026285D01*
X101759471Y-70021195D01*
X101778795Y-70006821D01*
X101790714Y-69984495D01*
X101795190Y-69951500D01*
X101792549Y-69929580D01*
X101784967Y-69911134D01*
X101772383Y-69895355D01*
X101755975Y-69883261D01*
X101734796Y-69874365D01*
X101707674Y-69869023D01*
X101707171Y-69869023D01*
X101707171Y-69725042D01*
X101707674Y-69725042D01*
X101760297Y-69732543D01*
X101804381Y-69746644D01*
X101841343Y-69766781D01*
X101872264Y-69792910D01*
X101897467Y-69824924D01*
X101915597Y-69861252D01*
X101926822Y-69902724D01*
X101930744Y-69950447D01*
X101927116Y-70003242D01*
X101916996Y-70046960D01*
X101901191Y-70083165D01*
X101880003Y-70113113D01*
X101852784Y-70137784D01*
X101820533Y-70155628D01*
X101782237Y-70166807D01*
X101736480Y-70170769D01*
X101735976Y-70170769D01*
X101685654Y-70166396D01*
X101635226Y-70153092D01*
X101587466Y-70131804D01*
X101544734Y-70103633D01*
X101313054Y-69920222D01*
X101313054Y-70174891D01*
X101177500Y-70174891D01*
X101177500Y-69734246D01*
G37*
G36*
X101768157Y-70291629D02*
G01*
X101809538Y-70302630D01*
X101844596Y-70320123D01*
X101874370Y-70344106D01*
X101897896Y-70373817D01*
X101915425Y-70410424D01*
X101926685Y-70455395D01*
X101930744Y-70510618D01*
X101926686Y-70566172D01*
X101915448Y-70611260D01*
X101897987Y-70647820D01*
X101874599Y-70677360D01*
X101844975Y-70701204D01*
X101809949Y-70718630D01*
X101768453Y-70729609D01*
X101719077Y-70733505D01*
X101380374Y-70733505D01*
X101331294Y-70729607D01*
X101289913Y-70718606D01*
X101254855Y-70701113D01*
X101225081Y-70677131D01*
X101201559Y-70647441D01*
X101184029Y-70610845D01*
X101172768Y-70565868D01*
X101168720Y-70510801D01*
X101304262Y-70510801D01*
X101307915Y-70538435D01*
X101317952Y-70558841D01*
X101334212Y-70573862D01*
X101355079Y-70583996D01*
X101381959Y-70590649D01*
X101416369Y-70593096D01*
X101683082Y-70593096D01*
X101717836Y-70590624D01*
X101744762Y-70583929D01*
X101765468Y-70573770D01*
X101781601Y-70558718D01*
X101791564Y-70538321D01*
X101795190Y-70510755D01*
X101791570Y-70483213D01*
X101781610Y-70462762D01*
X101765468Y-70447603D01*
X101744752Y-70437369D01*
X101717825Y-70430628D01*
X101683082Y-70428140D01*
X101416369Y-70428140D01*
X101381969Y-70430603D01*
X101355089Y-70437302D01*
X101334212Y-70447512D01*
X101317944Y-70462667D01*
X101307909Y-70483158D01*
X101304262Y-70510801D01*
X101168720Y-70510801D01*
X101168707Y-70510618D01*
X101172835Y-70454824D01*
X101184261Y-70409627D01*
X101202014Y-70373049D01*
X101225814Y-70343556D01*
X101255938Y-70319740D01*
X101291045Y-70302416D01*
X101332098Y-70291563D01*
X101380374Y-70287731D01*
X101719077Y-70287731D01*
X101768157Y-70291629D01*
G37*
G36*
X101177500Y-70855321D02*
G01*
X101304307Y-70855321D01*
X101640447Y-71110998D01*
X101663598Y-71126593D01*
X101686792Y-71137880D01*
X101710443Y-71145124D01*
X101731122Y-71147359D01*
X101732175Y-71147359D01*
X101759471Y-71142269D01*
X101778795Y-71127896D01*
X101790714Y-71105569D01*
X101795190Y-71072575D01*
X101792549Y-71050654D01*
X101784967Y-71032208D01*
X101772383Y-71016430D01*
X101755975Y-71004336D01*
X101734796Y-70995439D01*
X101707674Y-70990097D01*
X101707171Y-70990097D01*
X101707171Y-70846116D01*
X101707674Y-70846116D01*
X101760297Y-70853618D01*
X101804381Y-70867719D01*
X101841343Y-70887856D01*
X101872264Y-70913985D01*
X101897467Y-70945999D01*
X101915597Y-70982327D01*
X101926822Y-71023798D01*
X101930744Y-71071522D01*
X101927116Y-71124316D01*
X101916996Y-71168034D01*
X101901191Y-71204239D01*
X101880003Y-71234188D01*
X101852784Y-71258858D01*
X101820533Y-71276703D01*
X101782237Y-71287882D01*
X101736480Y-71291844D01*
X101735976Y-71291844D01*
X101685654Y-71287470D01*
X101635226Y-71274167D01*
X101587466Y-71252878D01*
X101544734Y-71224708D01*
X101313054Y-71041297D01*
X101313054Y-71295966D01*
X101177500Y-71295966D01*
X101177500Y-70855321D01*
G37*
G36*
X101442984Y-71366028D02*
G01*
X101496099Y-71376520D01*
X101548959Y-71392861D01*
X101600971Y-71414439D01*
X101921952Y-71565564D01*
X101921952Y-71724383D01*
X101617884Y-71577234D01*
X101620800Y-71604490D01*
X101616803Y-71650047D01*
X101605509Y-71688256D01*
X101587445Y-71720519D01*
X101562411Y-71747830D01*
X101532119Y-71769033D01*
X101495456Y-71784871D01*
X101451143Y-71795021D01*
X101397593Y-71798663D01*
X101397089Y-71798663D01*
X101342876Y-71794637D01*
X101297733Y-71783357D01*
X101260058Y-71765604D01*
X101228607Y-71741556D01*
X101203174Y-71711243D01*
X101184595Y-71675125D01*
X101172876Y-71632033D01*
X101168718Y-71580539D01*
X101304262Y-71580539D01*
X101306939Y-71604788D01*
X101314344Y-71623616D01*
X101326152Y-71638287D01*
X101341923Y-71648978D01*
X101362207Y-71655811D01*
X101388296Y-71658300D01*
X101388846Y-71658300D01*
X101418850Y-71655773D01*
X101442068Y-71648889D01*
X101459966Y-71638287D01*
X101473773Y-71623345D01*
X101482227Y-71604463D01*
X101485245Y-71580402D01*
X101482239Y-71557088D01*
X101473733Y-71538423D01*
X101459692Y-71523295D01*
X101441605Y-71512553D01*
X101418283Y-71505599D01*
X101388296Y-71503053D01*
X101387793Y-71503053D01*
X101361726Y-71505573D01*
X101341544Y-71512484D01*
X101325923Y-71523295D01*
X101314202Y-71538097D01*
X101306890Y-71556792D01*
X101304262Y-71580539D01*
X101168718Y-71580539D01*
X101168707Y-71580402D01*
X101172810Y-71529032D01*
X101184348Y-71486101D01*
X101202634Y-71450073D01*
X101227646Y-71419797D01*
X101258648Y-71395727D01*
X101295792Y-71377980D01*
X101340309Y-71366711D01*
X101393792Y-71362690D01*
X101394341Y-71362690D01*
X101442984Y-71366028D01*
G37*
G36*
X114880560Y-72629232D02*
G01*
X114877854Y-72682097D01*
X114869798Y-72733508D01*
X114856430Y-72783219D01*
X114838290Y-72829084D01*
X114815243Y-72871763D01*
X114788327Y-72909501D01*
X114672465Y-72844425D01*
X114703651Y-72798452D01*
X114727190Y-72745049D01*
X114741653Y-72687891D01*
X114746470Y-72629232D01*
X114743449Y-72583825D01*
X114735319Y-72549036D01*
X114723114Y-72522666D01*
X114705045Y-72501299D01*
X114683457Y-72488979D01*
X114657123Y-72484747D01*
X114656574Y-72484747D01*
X114627310Y-72489782D01*
X114607114Y-72503706D01*
X114592551Y-72524963D01*
X114581744Y-72553669D01*
X114567913Y-72621035D01*
X114551290Y-72709191D01*
X114538226Y-72752231D01*
X114519508Y-72791165D01*
X114493312Y-72824627D01*
X114457226Y-72851340D01*
X114429281Y-72863364D01*
X114393823Y-72871256D01*
X114349102Y-72874146D01*
X114348553Y-72874146D01*
X114294971Y-72869268D01*
X114250002Y-72855464D01*
X114211965Y-72833304D01*
X114179705Y-72802431D01*
X114154901Y-72765358D01*
X114136276Y-72720307D01*
X114124295Y-72665677D01*
X114119987Y-72599511D01*
X114124946Y-72539176D01*
X114140229Y-72476595D01*
X114164773Y-72416242D01*
X114197885Y-72360275D01*
X114316771Y-72419717D01*
X114289826Y-72464013D01*
X114270288Y-72509614D01*
X114257986Y-72556335D01*
X114254077Y-72599511D01*
X114256851Y-72642274D01*
X114264293Y-72674877D01*
X114275417Y-72699436D01*
X114291940Y-72719435D01*
X114311513Y-72730880D01*
X114335226Y-72734791D01*
X114335776Y-72734791D01*
X114358761Y-72732217D01*
X114376448Y-72725121D01*
X114390089Y-72713816D01*
X114405785Y-72690375D01*
X114417521Y-72658999D01*
X114434145Y-72586230D01*
X114454386Y-72500684D01*
X114469174Y-72459690D01*
X114489008Y-72422786D01*
X114515528Y-72391240D01*
X114551015Y-72366411D01*
X114578127Y-72355277D01*
X114611815Y-72348026D01*
X114653505Y-72345391D01*
X114654559Y-72345391D01*
X114707128Y-72350391D01*
X114751451Y-72364591D01*
X114789173Y-72387524D01*
X114821392Y-72419717D01*
X114845896Y-72457923D01*
X114864366Y-72504419D01*
X114876274Y-72560856D01*
X114880560Y-72629232D01*
G37*
G36*
X114872500Y-71922012D02*
G01*
X114342004Y-71922012D01*
X114342004Y-71782152D01*
X114872500Y-71782152D01*
X114872500Y-71922012D01*
G37*
G36*
X114342004Y-72086967D02*
G01*
X114664313Y-72086967D01*
X114688942Y-72084321D01*
X114708379Y-72076965D01*
X114723801Y-72065214D01*
X114735205Y-72049448D01*
X114742403Y-72029446D01*
X114745005Y-72003986D01*
X114742333Y-71978580D01*
X114734953Y-71958781D01*
X114723252Y-71943306D01*
X114707459Y-71931893D01*
X114687154Y-71924646D01*
X114661016Y-71922012D01*
X114777749Y-71914822D01*
X114814757Y-71932904D01*
X114848869Y-71961716D01*
X114866204Y-71985771D01*
X114876825Y-72014297D01*
X114880560Y-72048545D01*
X114876787Y-72090620D01*
X114866128Y-72125866D01*
X114849054Y-72155605D01*
X114825330Y-72180756D01*
X114796748Y-72200168D01*
X114762153Y-72214702D01*
X114720346Y-72224029D01*
X114669854Y-72227376D01*
X114342004Y-72227376D01*
X114342004Y-72086967D01*
G37*
G36*
X114872500Y-71644124D02*
G01*
X114342004Y-71644124D01*
X114342004Y-71503715D01*
X114872500Y-71503715D01*
X114872500Y-71644124D01*
G37*
G36*
X114872500Y-71336699D02*
G01*
X114551244Y-71336699D01*
X114525946Y-71339427D01*
X114506190Y-71346977D01*
X114490702Y-71359001D01*
X114479349Y-71375078D01*
X114472125Y-71395732D01*
X114469499Y-71422291D01*
X114472165Y-71447382D01*
X114479549Y-71467044D01*
X114491297Y-71482512D01*
X114507035Y-71493914D01*
X114527021Y-71501112D01*
X114552480Y-71503715D01*
X114434190Y-71514477D01*
X114390498Y-71488098D01*
X114360047Y-71458423D01*
X114345948Y-71435093D01*
X114337098Y-71406881D01*
X114333944Y-71372557D01*
X114337771Y-71331354D01*
X114348614Y-71296722D01*
X114366064Y-71267365D01*
X114390456Y-71242406D01*
X114419587Y-71223304D01*
X114455044Y-71208929D01*
X114498095Y-71199668D01*
X114550282Y-71196335D01*
X114872500Y-71196335D01*
X114872500Y-71336699D01*
G37*
G36*
X114872500Y-71057941D02*
G01*
X114342004Y-71057941D01*
X114342004Y-70907320D01*
X114872500Y-70907320D01*
X114872500Y-71057941D01*
G37*
G36*
X114490015Y-70758713D02*
G01*
X114481240Y-70769665D01*
X114474719Y-70783535D01*
X114470878Y-70799170D01*
X114469499Y-70818156D01*
X114472767Y-70845167D01*
X114481952Y-70866673D01*
X114496930Y-70883964D01*
X114516465Y-70896440D01*
X114541332Y-70904420D01*
X114572997Y-70907320D01*
X114434190Y-70918082D01*
X114391501Y-70892173D01*
X114360551Y-70860975D01*
X114345639Y-70836554D01*
X114336881Y-70811019D01*
X114333944Y-70783809D01*
X114336668Y-70751707D01*
X114344477Y-70723771D01*
X114357518Y-70698531D01*
X114375526Y-70676739D01*
X114490015Y-70758713D01*
G37*
G36*
X114268731Y-70617938D02*
G01*
X114128047Y-70617938D01*
X114128047Y-70477529D01*
X114268731Y-70477529D01*
X114268731Y-70617938D01*
G37*
G36*
X114872500Y-70617938D02*
G01*
X114342004Y-70617938D01*
X114342004Y-70477529D01*
X114872500Y-70477529D01*
X114872500Y-70617938D01*
G37*
G36*
X114872500Y-70198588D02*
G01*
X114867852Y-70244480D01*
X114855431Y-70277710D01*
X114836367Y-70301491D01*
X114810421Y-70318417D01*
X114776533Y-70329351D01*
X114732411Y-70333364D01*
X114187398Y-70333364D01*
X114187398Y-70192955D01*
X114696782Y-70192955D01*
X114714256Y-70190859D01*
X114726274Y-70185307D01*
X114734188Y-70176003D01*
X114736945Y-70162730D01*
X114736945Y-70127880D01*
X114872500Y-70127880D01*
X114872500Y-70198588D01*
G37*
G36*
X114462172Y-70388182D02*
G01*
X114342004Y-70388182D01*
X114342004Y-70127880D01*
X114462172Y-70127880D01*
X114462172Y-70388182D01*
G37*
G36*
X114872500Y-69305575D02*
G01*
X114128047Y-69305575D01*
X114128047Y-69165166D01*
X114872500Y-69165166D01*
X114872500Y-69305575D01*
G37*
G36*
X114872500Y-69713384D02*
G01*
X114128047Y-69713384D01*
X114128047Y-69573021D01*
X114872500Y-69573021D01*
X114872500Y-69713384D01*
G37*
G36*
X114570615Y-69648309D02*
G01*
X114435061Y-69648309D01*
X114435061Y-69214351D01*
X114570615Y-69214351D01*
X114570615Y-69648309D01*
G37*
G36*
X114872500Y-68718889D02*
G01*
X114535948Y-68718889D01*
X114512570Y-68721811D01*
X114494041Y-68730028D01*
X114479207Y-68743481D01*
X114468630Y-68760938D01*
X114461763Y-68783665D01*
X114459241Y-68813136D01*
X114461596Y-68842721D01*
X114468720Y-68872121D01*
X114480418Y-68899798D01*
X114496152Y-68923824D01*
X114410652Y-69010927D01*
X114388687Y-68987994D01*
X114369844Y-68960226D01*
X114354140Y-68926938D01*
X114339159Y-68872856D01*
X114333944Y-68811075D01*
X114337627Y-68758490D01*
X114347908Y-68714908D01*
X114363991Y-68678766D01*
X114385601Y-68648822D01*
X114413237Y-68624247D01*
X114445993Y-68606436D01*
X114484895Y-68595264D01*
X114531369Y-68591302D01*
X114872500Y-68591302D01*
X114872500Y-68718889D01*
G37*
G36*
X114880560Y-68866946D02*
G01*
X114877589Y-68909856D01*
X114869400Y-68944456D01*
X114856763Y-68972275D01*
X114839985Y-68994532D01*
X114818516Y-69012168D01*
X114791521Y-69025380D01*
X114757764Y-69033927D01*
X114715650Y-69037030D01*
X114676153Y-69033680D01*
X114644069Y-69024353D01*
X114617940Y-69009680D01*
X114596719Y-68989632D01*
X114580681Y-68965242D01*
X114568404Y-68934417D01*
X114560361Y-68895735D01*
X114557426Y-68847483D01*
X114557426Y-68714263D01*
X114664405Y-68707073D01*
X114664405Y-68846979D01*
X114667941Y-68876003D01*
X114677044Y-68894515D01*
X114692362Y-68906248D01*
X114715421Y-68910497D01*
X114731837Y-68908135D01*
X114744501Y-68901486D01*
X114754347Y-68890393D01*
X114763367Y-68867348D01*
X114766987Y-68830034D01*
X114763266Y-68778162D01*
X114754210Y-68746687D01*
X114743652Y-68730811D01*
X114730600Y-68721919D01*
X114714230Y-68718889D01*
X114791533Y-68708127D01*
X114819191Y-68716411D01*
X114841725Y-68735283D01*
X114858658Y-68761523D01*
X114871034Y-68794451D01*
X114878162Y-68829989D01*
X114880560Y-68866946D01*
G37*
G36*
X114342004Y-68065753D02*
G01*
X114460798Y-68065753D01*
X114745005Y-68300913D01*
X114745005Y-68051923D01*
X114872500Y-68051923D01*
X114872500Y-68468433D01*
X114751645Y-68468433D01*
X114469499Y-68226632D01*
X114469499Y-68461289D01*
X114342004Y-68461289D01*
X114342004Y-68065753D01*
G37*
G36*
X114872500Y-67934320D02*
G01*
X114342004Y-67934320D01*
X114342004Y-67783698D01*
X114872500Y-67783698D01*
X114872500Y-67934320D01*
G37*
G36*
X114490015Y-67635092D02*
G01*
X114481240Y-67646043D01*
X114474719Y-67659913D01*
X114470878Y-67675549D01*
X114469499Y-67694534D01*
X114472767Y-67721546D01*
X114481952Y-67743052D01*
X114496930Y-67760342D01*
X114516465Y-67772818D01*
X114541332Y-67780798D01*
X114572997Y-67783698D01*
X114434190Y-67794460D01*
X114391501Y-67768551D01*
X114360551Y-67737353D01*
X114345639Y-67712932D01*
X114336881Y-67687398D01*
X114333944Y-67660188D01*
X114336668Y-67628086D01*
X114344477Y-67600150D01*
X114357518Y-67574909D01*
X114375526Y-67553118D01*
X114490015Y-67635092D01*
G37*
G36*
X114872500Y-67194081D02*
G01*
X114535948Y-67194081D01*
X114512570Y-67197003D01*
X114494041Y-67205220D01*
X114479207Y-67218673D01*
X114468630Y-67236130D01*
X114461763Y-67258857D01*
X114459241Y-67288328D01*
X114461596Y-67317913D01*
X114468720Y-67347312D01*
X114480418Y-67374990D01*
X114496152Y-67399016D01*
X114410652Y-67486119D01*
X114388687Y-67463186D01*
X114369844Y-67435418D01*
X114354140Y-67402130D01*
X114339159Y-67348048D01*
X114333944Y-67286267D01*
X114337627Y-67233682D01*
X114347908Y-67190100D01*
X114363991Y-67153958D01*
X114385601Y-67124013D01*
X114413237Y-67099439D01*
X114445993Y-67081628D01*
X114484895Y-67070456D01*
X114531369Y-67066494D01*
X114872500Y-67066494D01*
X114872500Y-67194081D01*
G37*
G36*
X114880560Y-67342138D02*
G01*
X114877589Y-67385048D01*
X114869400Y-67419648D01*
X114856763Y-67447467D01*
X114839985Y-67469724D01*
X114818516Y-67487360D01*
X114791521Y-67500572D01*
X114757764Y-67509119D01*
X114715650Y-67512222D01*
X114676153Y-67508871D01*
X114644069Y-67499545D01*
X114617940Y-67484872D01*
X114596719Y-67464824D01*
X114580681Y-67440434D01*
X114568404Y-67409609D01*
X114560361Y-67370927D01*
X114557426Y-67322674D01*
X114557426Y-67189455D01*
X114664405Y-67182265D01*
X114664405Y-67322171D01*
X114667941Y-67351194D01*
X114677044Y-67369706D01*
X114692362Y-67381440D01*
X114715421Y-67385689D01*
X114731837Y-67383327D01*
X114744501Y-67376678D01*
X114754347Y-67365585D01*
X114763367Y-67342539D01*
X114766987Y-67305226D01*
X114763266Y-67253354D01*
X114754210Y-67221878D01*
X114743652Y-67206003D01*
X114730600Y-67197111D01*
X114714230Y-67194081D01*
X114791533Y-67183319D01*
X114819191Y-67191603D01*
X114841725Y-67210475D01*
X114858658Y-67236715D01*
X114871034Y-67269643D01*
X114878162Y-67305181D01*
X114880560Y-67342138D01*
G37*
D12*
X105096667Y-87338200D02*
X105010000Y-87214391D01*
X104948095Y-87338200D02*
X104948095Y-87078200D01*
X104948095Y-87078200D02*
X105047143Y-87078200D01*
X105047143Y-87078200D02*
X105071905Y-87090581D01*
X105071905Y-87090581D02*
X105084286Y-87102962D01*
X105084286Y-87102962D02*
X105096667Y-87127724D01*
X105096667Y-87127724D02*
X105096667Y-87164867D01*
X105096667Y-87164867D02*
X105084286Y-87189629D01*
X105084286Y-87189629D02*
X105071905Y-87202010D01*
X105071905Y-87202010D02*
X105047143Y-87214391D01*
X105047143Y-87214391D02*
X104948095Y-87214391D01*
X105195714Y-87102962D02*
X105208095Y-87090581D01*
X105208095Y-87090581D02*
X105232857Y-87078200D01*
X105232857Y-87078200D02*
X105294762Y-87078200D01*
X105294762Y-87078200D02*
X105319524Y-87090581D01*
X105319524Y-87090581D02*
X105331905Y-87102962D01*
X105331905Y-87102962D02*
X105344286Y-87127724D01*
X105344286Y-87127724D02*
X105344286Y-87152486D01*
X105344286Y-87152486D02*
X105331905Y-87189629D01*
X105331905Y-87189629D02*
X105183333Y-87338200D01*
X105183333Y-87338200D02*
X105344286Y-87338200D01*
X105051667Y-83638200D02*
X104965000Y-83514391D01*
X104903095Y-83638200D02*
X104903095Y-83378200D01*
X104903095Y-83378200D02*
X105002143Y-83378200D01*
X105002143Y-83378200D02*
X105026905Y-83390581D01*
X105026905Y-83390581D02*
X105039286Y-83402962D01*
X105039286Y-83402962D02*
X105051667Y-83427724D01*
X105051667Y-83427724D02*
X105051667Y-83464867D01*
X105051667Y-83464867D02*
X105039286Y-83489629D01*
X105039286Y-83489629D02*
X105026905Y-83502010D01*
X105026905Y-83502010D02*
X105002143Y-83514391D01*
X105002143Y-83514391D02*
X104903095Y-83514391D01*
X105138333Y-83378200D02*
X105311667Y-83378200D01*
X105311667Y-83378200D02*
X105200238Y-83638200D01*
D10*
X98943333Y-91726109D02*
X98943333Y-92083252D01*
X98943333Y-92083252D02*
X98919524Y-92154680D01*
X98919524Y-92154680D02*
X98871905Y-92202300D01*
X98871905Y-92202300D02*
X98800476Y-92226109D01*
X98800476Y-92226109D02*
X98752857Y-92226109D01*
X99157619Y-91773728D02*
X99181428Y-91749919D01*
X99181428Y-91749919D02*
X99229047Y-91726109D01*
X99229047Y-91726109D02*
X99348095Y-91726109D01*
X99348095Y-91726109D02*
X99395714Y-91749919D01*
X99395714Y-91749919D02*
X99419523Y-91773728D01*
X99419523Y-91773728D02*
X99443333Y-91821347D01*
X99443333Y-91821347D02*
X99443333Y-91868966D01*
X99443333Y-91868966D02*
X99419523Y-91940395D01*
X99419523Y-91940395D02*
X99133809Y-92226109D01*
X99133809Y-92226109D02*
X99443333Y-92226109D01*
D12*
X110909765Y-91041666D02*
X110921670Y-91053570D01*
X110921670Y-91053570D02*
X110933574Y-91089285D01*
X110933574Y-91089285D02*
X110933574Y-91113094D01*
X110933574Y-91113094D02*
X110921670Y-91148808D01*
X110921670Y-91148808D02*
X110897860Y-91172618D01*
X110897860Y-91172618D02*
X110874050Y-91184523D01*
X110874050Y-91184523D02*
X110826431Y-91196427D01*
X110826431Y-91196427D02*
X110790717Y-91196427D01*
X110790717Y-91196427D02*
X110743098Y-91184523D01*
X110743098Y-91184523D02*
X110719289Y-91172618D01*
X110719289Y-91172618D02*
X110695479Y-91148808D01*
X110695479Y-91148808D02*
X110683574Y-91113094D01*
X110683574Y-91113094D02*
X110683574Y-91089285D01*
X110683574Y-91089285D02*
X110695479Y-91053570D01*
X110695479Y-91053570D02*
X110707384Y-91041666D01*
X110933574Y-90803570D02*
X110933574Y-90946427D01*
X110933574Y-90874999D02*
X110683574Y-90874999D01*
X110683574Y-90874999D02*
X110719289Y-90898808D01*
X110719289Y-90898808D02*
X110743098Y-90922618D01*
X110743098Y-90922618D02*
X110755003Y-90946427D01*
D13*
X107619048Y-106982902D02*
X107619048Y-107363855D01*
X107352381Y-106563855D02*
X107619048Y-106982902D01*
X107619048Y-106982902D02*
X107885714Y-106563855D01*
X108571428Y-107363855D02*
X108114285Y-107363855D01*
X108342857Y-107363855D02*
X108342857Y-106563855D01*
X108342857Y-106563855D02*
X108266666Y-106678140D01*
X108266666Y-106678140D02*
X108190476Y-106754331D01*
X108190476Y-106754331D02*
X108114285Y-106792426D01*
D11*
X107238095Y-95704819D02*
X107238095Y-96514342D01*
X107238095Y-96514342D02*
X107285714Y-96609580D01*
X107285714Y-96609580D02*
X107333333Y-96657200D01*
X107333333Y-96657200D02*
X107428571Y-96704819D01*
X107428571Y-96704819D02*
X107619047Y-96704819D01*
X107619047Y-96704819D02*
X107714285Y-96657200D01*
X107714285Y-96657200D02*
X107761904Y-96609580D01*
X107761904Y-96609580D02*
X107809523Y-96514342D01*
X107809523Y-96514342D02*
X107809523Y-95704819D01*
X108809523Y-96704819D02*
X108238095Y-96704819D01*
X108523809Y-96704819D02*
X108523809Y-95704819D01*
X108523809Y-95704819D02*
X108428571Y-95847676D01*
X108428571Y-95847676D02*
X108333333Y-95942914D01*
X108333333Y-95942914D02*
X108238095Y-95990533D01*
D12*
X111159765Y-88941666D02*
X111171670Y-88953570D01*
X111171670Y-88953570D02*
X111183574Y-88989285D01*
X111183574Y-88989285D02*
X111183574Y-89013094D01*
X111183574Y-89013094D02*
X111171670Y-89048808D01*
X111171670Y-89048808D02*
X111147860Y-89072618D01*
X111147860Y-89072618D02*
X111124050Y-89084523D01*
X111124050Y-89084523D02*
X111076431Y-89096427D01*
X111076431Y-89096427D02*
X111040717Y-89096427D01*
X111040717Y-89096427D02*
X110993098Y-89084523D01*
X110993098Y-89084523D02*
X110969289Y-89072618D01*
X110969289Y-89072618D02*
X110945479Y-89048808D01*
X110945479Y-89048808D02*
X110933574Y-89013094D01*
X110933574Y-89013094D02*
X110933574Y-88989285D01*
X110933574Y-88989285D02*
X110945479Y-88953570D01*
X110945479Y-88953570D02*
X110957384Y-88941666D01*
X110957384Y-88846427D02*
X110945479Y-88834523D01*
X110945479Y-88834523D02*
X110933574Y-88810713D01*
X110933574Y-88810713D02*
X110933574Y-88751189D01*
X110933574Y-88751189D02*
X110945479Y-88727380D01*
X110945479Y-88727380D02*
X110957384Y-88715475D01*
X110957384Y-88715475D02*
X110981193Y-88703570D01*
X110981193Y-88703570D02*
X111005003Y-88703570D01*
X111005003Y-88703570D02*
X111040717Y-88715475D01*
X111040717Y-88715475D02*
X111183574Y-88858332D01*
X111183574Y-88858332D02*
X111183574Y-88703570D01*
D14*
X105092857Y-75433832D02*
X105073809Y-75452880D01*
X105073809Y-75452880D02*
X105016667Y-75471927D01*
X105016667Y-75471927D02*
X104978571Y-75471927D01*
X104978571Y-75471927D02*
X104921428Y-75452880D01*
X104921428Y-75452880D02*
X104883333Y-75414784D01*
X104883333Y-75414784D02*
X104864286Y-75376689D01*
X104864286Y-75376689D02*
X104845238Y-75300499D01*
X104845238Y-75300499D02*
X104845238Y-75243356D01*
X104845238Y-75243356D02*
X104864286Y-75167165D01*
X104864286Y-75167165D02*
X104883333Y-75129070D01*
X104883333Y-75129070D02*
X104921428Y-75090975D01*
X104921428Y-75090975D02*
X104978571Y-75071927D01*
X104978571Y-75071927D02*
X105016667Y-75071927D01*
X105016667Y-75071927D02*
X105073809Y-75090975D01*
X105073809Y-75090975D02*
X105092857Y-75110022D01*
X105473809Y-75471927D02*
X105245238Y-75471927D01*
X105359524Y-75471927D02*
X105359524Y-75071927D01*
X105359524Y-75071927D02*
X105321428Y-75129070D01*
X105321428Y-75129070D02*
X105283333Y-75167165D01*
X105283333Y-75167165D02*
X105245238Y-75186213D01*
X105607142Y-75071927D02*
X105854761Y-75071927D01*
X105854761Y-75071927D02*
X105721428Y-75224308D01*
X105721428Y-75224308D02*
X105778571Y-75224308D01*
X105778571Y-75224308D02*
X105816666Y-75243356D01*
X105816666Y-75243356D02*
X105835714Y-75262403D01*
X105835714Y-75262403D02*
X105854761Y-75300499D01*
X105854761Y-75300499D02*
X105854761Y-75395737D01*
X105854761Y-75395737D02*
X105835714Y-75433832D01*
X105835714Y-75433832D02*
X105816666Y-75452880D01*
X105816666Y-75452880D02*
X105778571Y-75471927D01*
X105778571Y-75471927D02*
X105664285Y-75471927D01*
X105664285Y-75471927D02*
X105626190Y-75452880D01*
X105626190Y-75452880D02*
X105607142Y-75433832D01*
D12*
X113959285Y-97539765D02*
X113947381Y-97551670D01*
X113947381Y-97551670D02*
X113911666Y-97563574D01*
X113911666Y-97563574D02*
X113887857Y-97563574D01*
X113887857Y-97563574D02*
X113852143Y-97551670D01*
X113852143Y-97551670D02*
X113828333Y-97527860D01*
X113828333Y-97527860D02*
X113816428Y-97504050D01*
X113816428Y-97504050D02*
X113804524Y-97456431D01*
X113804524Y-97456431D02*
X113804524Y-97420717D01*
X113804524Y-97420717D02*
X113816428Y-97373098D01*
X113816428Y-97373098D02*
X113828333Y-97349289D01*
X113828333Y-97349289D02*
X113852143Y-97325479D01*
X113852143Y-97325479D02*
X113887857Y-97313574D01*
X113887857Y-97313574D02*
X113911666Y-97313574D01*
X113911666Y-97313574D02*
X113947381Y-97325479D01*
X113947381Y-97325479D02*
X113959285Y-97337384D01*
X114197381Y-97563574D02*
X114054524Y-97563574D01*
X114125952Y-97563574D02*
X114125952Y-97313574D01*
X114125952Y-97313574D02*
X114102143Y-97349289D01*
X114102143Y-97349289D02*
X114078333Y-97373098D01*
X114078333Y-97373098D02*
X114054524Y-97385003D01*
X114352142Y-97313574D02*
X114375952Y-97313574D01*
X114375952Y-97313574D02*
X114399761Y-97325479D01*
X114399761Y-97325479D02*
X114411666Y-97337384D01*
X114411666Y-97337384D02*
X114423571Y-97361193D01*
X114423571Y-97361193D02*
X114435476Y-97408812D01*
X114435476Y-97408812D02*
X114435476Y-97468336D01*
X114435476Y-97468336D02*
X114423571Y-97515955D01*
X114423571Y-97515955D02*
X114411666Y-97539765D01*
X114411666Y-97539765D02*
X114399761Y-97551670D01*
X114399761Y-97551670D02*
X114375952Y-97563574D01*
X114375952Y-97563574D02*
X114352142Y-97563574D01*
X114352142Y-97563574D02*
X114328333Y-97551670D01*
X114328333Y-97551670D02*
X114316428Y-97539765D01*
X114316428Y-97539765D02*
X114304523Y-97515955D01*
X114304523Y-97515955D02*
X114292619Y-97468336D01*
X114292619Y-97468336D02*
X114292619Y-97408812D01*
X114292619Y-97408812D02*
X114304523Y-97361193D01*
X114304523Y-97361193D02*
X114316428Y-97337384D01*
X114316428Y-97337384D02*
X114328333Y-97325479D01*
X114328333Y-97325479D02*
X114352142Y-97313574D01*
X105439765Y-107140714D02*
X105451670Y-107152618D01*
X105451670Y-107152618D02*
X105463574Y-107188333D01*
X105463574Y-107188333D02*
X105463574Y-107212142D01*
X105463574Y-107212142D02*
X105451670Y-107247856D01*
X105451670Y-107247856D02*
X105427860Y-107271666D01*
X105427860Y-107271666D02*
X105404050Y-107283571D01*
X105404050Y-107283571D02*
X105356431Y-107295475D01*
X105356431Y-107295475D02*
X105320717Y-107295475D01*
X105320717Y-107295475D02*
X105273098Y-107283571D01*
X105273098Y-107283571D02*
X105249289Y-107271666D01*
X105249289Y-107271666D02*
X105225479Y-107247856D01*
X105225479Y-107247856D02*
X105213574Y-107212142D01*
X105213574Y-107212142D02*
X105213574Y-107188333D01*
X105213574Y-107188333D02*
X105225479Y-107152618D01*
X105225479Y-107152618D02*
X105237384Y-107140714D01*
X105463574Y-106902618D02*
X105463574Y-107045475D01*
X105463574Y-106974047D02*
X105213574Y-106974047D01*
X105213574Y-106974047D02*
X105249289Y-106997856D01*
X105249289Y-106997856D02*
X105273098Y-107021666D01*
X105273098Y-107021666D02*
X105285003Y-107045475D01*
X105213574Y-106676428D02*
X105213574Y-106795476D01*
X105213574Y-106795476D02*
X105332622Y-106807380D01*
X105332622Y-106807380D02*
X105320717Y-106795476D01*
X105320717Y-106795476D02*
X105308812Y-106771666D01*
X105308812Y-106771666D02*
X105308812Y-106712142D01*
X105308812Y-106712142D02*
X105320717Y-106688333D01*
X105320717Y-106688333D02*
X105332622Y-106676428D01*
X105332622Y-106676428D02*
X105356431Y-106664523D01*
X105356431Y-106664523D02*
X105415955Y-106664523D01*
X105415955Y-106664523D02*
X105439765Y-106676428D01*
X105439765Y-106676428D02*
X105451670Y-106688333D01*
X105451670Y-106688333D02*
X105463574Y-106712142D01*
X105463574Y-106712142D02*
X105463574Y-106771666D01*
X105463574Y-106771666D02*
X105451670Y-106795476D01*
X105451670Y-106795476D02*
X105439765Y-106807380D01*
X104868200Y-91143332D02*
X104744391Y-91229999D01*
X104868200Y-91291904D02*
X104608200Y-91291904D01*
X104608200Y-91291904D02*
X104608200Y-91192856D01*
X104608200Y-91192856D02*
X104620581Y-91168094D01*
X104620581Y-91168094D02*
X104632962Y-91155713D01*
X104632962Y-91155713D02*
X104657724Y-91143332D01*
X104657724Y-91143332D02*
X104694867Y-91143332D01*
X104694867Y-91143332D02*
X104719629Y-91155713D01*
X104719629Y-91155713D02*
X104732010Y-91168094D01*
X104732010Y-91168094D02*
X104744391Y-91192856D01*
X104744391Y-91192856D02*
X104744391Y-91291904D01*
X104608200Y-90920475D02*
X104608200Y-90969999D01*
X104608200Y-90969999D02*
X104620581Y-90994761D01*
X104620581Y-90994761D02*
X104632962Y-91007142D01*
X104632962Y-91007142D02*
X104670105Y-91031904D01*
X104670105Y-91031904D02*
X104719629Y-91044285D01*
X104719629Y-91044285D02*
X104818677Y-91044285D01*
X104818677Y-91044285D02*
X104843439Y-91031904D01*
X104843439Y-91031904D02*
X104855820Y-91019523D01*
X104855820Y-91019523D02*
X104868200Y-90994761D01*
X104868200Y-90994761D02*
X104868200Y-90945237D01*
X104868200Y-90945237D02*
X104855820Y-90920475D01*
X104855820Y-90920475D02*
X104843439Y-90908094D01*
X104843439Y-90908094D02*
X104818677Y-90895713D01*
X104818677Y-90895713D02*
X104756772Y-90895713D01*
X104756772Y-90895713D02*
X104732010Y-90908094D01*
X104732010Y-90908094D02*
X104719629Y-90920475D01*
X104719629Y-90920475D02*
X104707248Y-90945237D01*
X104707248Y-90945237D02*
X104707248Y-90994761D01*
X104707248Y-90994761D02*
X104719629Y-91019523D01*
X104719629Y-91019523D02*
X104732010Y-91031904D01*
X104732010Y-91031904D02*
X104756772Y-91044285D01*
D15*
X105778571Y-84941244D02*
X105778571Y-85548387D01*
X105778571Y-85548387D02*
X105814285Y-85619815D01*
X105814285Y-85619815D02*
X105850000Y-85655530D01*
X105850000Y-85655530D02*
X105921428Y-85691244D01*
X105921428Y-85691244D02*
X106064285Y-85691244D01*
X106064285Y-85691244D02*
X106135714Y-85655530D01*
X106135714Y-85655530D02*
X106171428Y-85619815D01*
X106171428Y-85619815D02*
X106207142Y-85548387D01*
X106207142Y-85548387D02*
X106207142Y-84941244D01*
X106492856Y-84941244D02*
X106957142Y-84941244D01*
X106957142Y-84941244D02*
X106707142Y-85226958D01*
X106707142Y-85226958D02*
X106814285Y-85226958D01*
X106814285Y-85226958D02*
X106885714Y-85262672D01*
X106885714Y-85262672D02*
X106921428Y-85298387D01*
X106921428Y-85298387D02*
X106957142Y-85369815D01*
X106957142Y-85369815D02*
X106957142Y-85548387D01*
X106957142Y-85548387D02*
X106921428Y-85619815D01*
X106921428Y-85619815D02*
X106885714Y-85655530D01*
X106885714Y-85655530D02*
X106814285Y-85691244D01*
X106814285Y-85691244D02*
X106599999Y-85691244D01*
X106599999Y-85691244D02*
X106528571Y-85655530D01*
X106528571Y-85655530D02*
X106492856Y-85619815D01*
D12*
X108018200Y-102133332D02*
X107894391Y-102219999D01*
X108018200Y-102281904D02*
X107758200Y-102281904D01*
X107758200Y-102281904D02*
X107758200Y-102182856D01*
X107758200Y-102182856D02*
X107770581Y-102158094D01*
X107770581Y-102158094D02*
X107782962Y-102145713D01*
X107782962Y-102145713D02*
X107807724Y-102133332D01*
X107807724Y-102133332D02*
X107844867Y-102133332D01*
X107844867Y-102133332D02*
X107869629Y-102145713D01*
X107869629Y-102145713D02*
X107882010Y-102158094D01*
X107882010Y-102158094D02*
X107894391Y-102182856D01*
X107894391Y-102182856D02*
X107894391Y-102281904D01*
X107758200Y-102046666D02*
X107758200Y-101885713D01*
X107758200Y-101885713D02*
X107857248Y-101972380D01*
X107857248Y-101972380D02*
X107857248Y-101935237D01*
X107857248Y-101935237D02*
X107869629Y-101910475D01*
X107869629Y-101910475D02*
X107882010Y-101898094D01*
X107882010Y-101898094D02*
X107906772Y-101885713D01*
X107906772Y-101885713D02*
X107968677Y-101885713D01*
X107968677Y-101885713D02*
X107993439Y-101898094D01*
X107993439Y-101898094D02*
X108005820Y-101910475D01*
X108005820Y-101910475D02*
X108018200Y-101935237D01*
X108018200Y-101935237D02*
X108018200Y-102009523D01*
X108018200Y-102009523D02*
X108005820Y-102034285D01*
X108005820Y-102034285D02*
X107993439Y-102046666D01*
X112789765Y-92941666D02*
X112801670Y-92953570D01*
X112801670Y-92953570D02*
X112813574Y-92989285D01*
X112813574Y-92989285D02*
X112813574Y-93013094D01*
X112813574Y-93013094D02*
X112801670Y-93048808D01*
X112801670Y-93048808D02*
X112777860Y-93072618D01*
X112777860Y-93072618D02*
X112754050Y-93084523D01*
X112754050Y-93084523D02*
X112706431Y-93096427D01*
X112706431Y-93096427D02*
X112670717Y-93096427D01*
X112670717Y-93096427D02*
X112623098Y-93084523D01*
X112623098Y-93084523D02*
X112599289Y-93072618D01*
X112599289Y-93072618D02*
X112575479Y-93048808D01*
X112575479Y-93048808D02*
X112563574Y-93013094D01*
X112563574Y-93013094D02*
X112563574Y-92989285D01*
X112563574Y-92989285D02*
X112575479Y-92953570D01*
X112575479Y-92953570D02*
X112587384Y-92941666D01*
X112813574Y-92822618D02*
X112813574Y-92774999D01*
X112813574Y-92774999D02*
X112801670Y-92751189D01*
X112801670Y-92751189D02*
X112789765Y-92739285D01*
X112789765Y-92739285D02*
X112754050Y-92715475D01*
X112754050Y-92715475D02*
X112706431Y-92703570D01*
X112706431Y-92703570D02*
X112611193Y-92703570D01*
X112611193Y-92703570D02*
X112587384Y-92715475D01*
X112587384Y-92715475D02*
X112575479Y-92727380D01*
X112575479Y-92727380D02*
X112563574Y-92751189D01*
X112563574Y-92751189D02*
X112563574Y-92798808D01*
X112563574Y-92798808D02*
X112575479Y-92822618D01*
X112575479Y-92822618D02*
X112587384Y-92834523D01*
X112587384Y-92834523D02*
X112611193Y-92846427D01*
X112611193Y-92846427D02*
X112670717Y-92846427D01*
X112670717Y-92846427D02*
X112694527Y-92834523D01*
X112694527Y-92834523D02*
X112706431Y-92822618D01*
X112706431Y-92822618D02*
X112718336Y-92798808D01*
X112718336Y-92798808D02*
X112718336Y-92751189D01*
X112718336Y-92751189D02*
X112706431Y-92727380D01*
X112706431Y-92727380D02*
X112694527Y-92715475D01*
X112694527Y-92715475D02*
X112670717Y-92703570D01*
D14*
X105567857Y-81743832D02*
X105548809Y-81762880D01*
X105548809Y-81762880D02*
X105491667Y-81781927D01*
X105491667Y-81781927D02*
X105453571Y-81781927D01*
X105453571Y-81781927D02*
X105396428Y-81762880D01*
X105396428Y-81762880D02*
X105358333Y-81724784D01*
X105358333Y-81724784D02*
X105339286Y-81686689D01*
X105339286Y-81686689D02*
X105320238Y-81610499D01*
X105320238Y-81610499D02*
X105320238Y-81553356D01*
X105320238Y-81553356D02*
X105339286Y-81477165D01*
X105339286Y-81477165D02*
X105358333Y-81439070D01*
X105358333Y-81439070D02*
X105396428Y-81400975D01*
X105396428Y-81400975D02*
X105453571Y-81381927D01*
X105453571Y-81381927D02*
X105491667Y-81381927D01*
X105491667Y-81381927D02*
X105548809Y-81400975D01*
X105548809Y-81400975D02*
X105567857Y-81420022D01*
X105948809Y-81781927D02*
X105720238Y-81781927D01*
X105834524Y-81781927D02*
X105834524Y-81381927D01*
X105834524Y-81381927D02*
X105796428Y-81439070D01*
X105796428Y-81439070D02*
X105758333Y-81477165D01*
X105758333Y-81477165D02*
X105720238Y-81496213D01*
X106291666Y-81515260D02*
X106291666Y-81781927D01*
X106196428Y-81362880D02*
X106101190Y-81648594D01*
X106101190Y-81648594D02*
X106348809Y-81648594D01*
D10*
X116723333Y-91726109D02*
X116723333Y-92083252D01*
X116723333Y-92083252D02*
X116699524Y-92154680D01*
X116699524Y-92154680D02*
X116651905Y-92202300D01*
X116651905Y-92202300D02*
X116580476Y-92226109D01*
X116580476Y-92226109D02*
X116532857Y-92226109D01*
X116913809Y-91726109D02*
X117223333Y-91726109D01*
X117223333Y-91726109D02*
X117056666Y-91916585D01*
X117056666Y-91916585D02*
X117128095Y-91916585D01*
X117128095Y-91916585D02*
X117175714Y-91940395D01*
X117175714Y-91940395D02*
X117199523Y-91964204D01*
X117199523Y-91964204D02*
X117223333Y-92011823D01*
X117223333Y-92011823D02*
X117223333Y-92130871D01*
X117223333Y-92130871D02*
X117199523Y-92178490D01*
X117199523Y-92178490D02*
X117175714Y-92202300D01*
X117175714Y-92202300D02*
X117128095Y-92226109D01*
X117128095Y-92226109D02*
X116985238Y-92226109D01*
X116985238Y-92226109D02*
X116937619Y-92202300D01*
X116937619Y-92202300D02*
X116913809Y-92178490D01*
D11*
X107666666Y-68454819D02*
X107666666Y-69169104D01*
X107666666Y-69169104D02*
X107619047Y-69311961D01*
X107619047Y-69311961D02*
X107523809Y-69407200D01*
X107523809Y-69407200D02*
X107380952Y-69454819D01*
X107380952Y-69454819D02*
X107285714Y-69454819D01*
X108666666Y-69454819D02*
X108095238Y-69454819D01*
X108380952Y-69454819D02*
X108380952Y-68454819D01*
X108380952Y-68454819D02*
X108285714Y-68597676D01*
X108285714Y-68597676D02*
X108190476Y-68692914D01*
X108190476Y-68692914D02*
X108095238Y-68740533D01*
D12*
X110758333Y-83589765D02*
X110746429Y-83601670D01*
X110746429Y-83601670D02*
X110710714Y-83613574D01*
X110710714Y-83613574D02*
X110686905Y-83613574D01*
X110686905Y-83613574D02*
X110651191Y-83601670D01*
X110651191Y-83601670D02*
X110627381Y-83577860D01*
X110627381Y-83577860D02*
X110615476Y-83554050D01*
X110615476Y-83554050D02*
X110603572Y-83506431D01*
X110603572Y-83506431D02*
X110603572Y-83470717D01*
X110603572Y-83470717D02*
X110615476Y-83423098D01*
X110615476Y-83423098D02*
X110627381Y-83399289D01*
X110627381Y-83399289D02*
X110651191Y-83375479D01*
X110651191Y-83375479D02*
X110686905Y-83363574D01*
X110686905Y-83363574D02*
X110710714Y-83363574D01*
X110710714Y-83363574D02*
X110746429Y-83375479D01*
X110746429Y-83375479D02*
X110758333Y-83387384D01*
X110841667Y-83363574D02*
X111008333Y-83363574D01*
X111008333Y-83363574D02*
X110901191Y-83613574D01*
X109768200Y-90683332D02*
X109644391Y-90769999D01*
X109768200Y-90831904D02*
X109508200Y-90831904D01*
X109508200Y-90831904D02*
X109508200Y-90732856D01*
X109508200Y-90732856D02*
X109520581Y-90708094D01*
X109520581Y-90708094D02*
X109532962Y-90695713D01*
X109532962Y-90695713D02*
X109557724Y-90683332D01*
X109557724Y-90683332D02*
X109594867Y-90683332D01*
X109594867Y-90683332D02*
X109619629Y-90695713D01*
X109619629Y-90695713D02*
X109632010Y-90708094D01*
X109632010Y-90708094D02*
X109644391Y-90732856D01*
X109644391Y-90732856D02*
X109644391Y-90831904D01*
X109594867Y-90460475D02*
X109768200Y-90460475D01*
X109495820Y-90522380D02*
X109681534Y-90584285D01*
X109681534Y-90584285D02*
X109681534Y-90423332D01*
D11*
X109666667Y-80407200D02*
X109809524Y-80454819D01*
X109809524Y-80454819D02*
X110047619Y-80454819D01*
X110047619Y-80454819D02*
X110142857Y-80407200D01*
X110142857Y-80407200D02*
X110190476Y-80359580D01*
X110190476Y-80359580D02*
X110238095Y-80264342D01*
X110238095Y-80264342D02*
X110238095Y-80169104D01*
X110238095Y-80169104D02*
X110190476Y-80073866D01*
X110190476Y-80073866D02*
X110142857Y-80026247D01*
X110142857Y-80026247D02*
X110047619Y-79978628D01*
X110047619Y-79978628D02*
X109857143Y-79931009D01*
X109857143Y-79931009D02*
X109761905Y-79883390D01*
X109761905Y-79883390D02*
X109714286Y-79835771D01*
X109714286Y-79835771D02*
X109666667Y-79740533D01*
X109666667Y-79740533D02*
X109666667Y-79645295D01*
X109666667Y-79645295D02*
X109714286Y-79550057D01*
X109714286Y-79550057D02*
X109761905Y-79502438D01*
X109761905Y-79502438D02*
X109857143Y-79454819D01*
X109857143Y-79454819D02*
X110095238Y-79454819D01*
X110095238Y-79454819D02*
X110238095Y-79502438D01*
X110571429Y-79454819D02*
X110809524Y-80454819D01*
X110809524Y-80454819D02*
X111000000Y-79740533D01*
X111000000Y-79740533D02*
X111190476Y-80454819D01*
X111190476Y-80454819D02*
X111428572Y-79454819D01*
X112333333Y-80454819D02*
X111761905Y-80454819D01*
X112047619Y-80454819D02*
X112047619Y-79454819D01*
X112047619Y-79454819D02*
X111952381Y-79597676D01*
X111952381Y-79597676D02*
X111857143Y-79692914D01*
X111857143Y-79692914D02*
X111761905Y-79740533D01*
D12*
X108768200Y-90683332D02*
X108644391Y-90769999D01*
X108768200Y-90831904D02*
X108508200Y-90831904D01*
X108508200Y-90831904D02*
X108508200Y-90732856D01*
X108508200Y-90732856D02*
X108520581Y-90708094D01*
X108520581Y-90708094D02*
X108532962Y-90695713D01*
X108532962Y-90695713D02*
X108557724Y-90683332D01*
X108557724Y-90683332D02*
X108594867Y-90683332D01*
X108594867Y-90683332D02*
X108619629Y-90695713D01*
X108619629Y-90695713D02*
X108632010Y-90708094D01*
X108632010Y-90708094D02*
X108644391Y-90732856D01*
X108644391Y-90732856D02*
X108644391Y-90831904D01*
X108508200Y-90448094D02*
X108508200Y-90571904D01*
X108508200Y-90571904D02*
X108632010Y-90584285D01*
X108632010Y-90584285D02*
X108619629Y-90571904D01*
X108619629Y-90571904D02*
X108607248Y-90547142D01*
X108607248Y-90547142D02*
X108607248Y-90485237D01*
X108607248Y-90485237D02*
X108619629Y-90460475D01*
X108619629Y-90460475D02*
X108632010Y-90448094D01*
X108632010Y-90448094D02*
X108656772Y-90435713D01*
X108656772Y-90435713D02*
X108718677Y-90435713D01*
X108718677Y-90435713D02*
X108743439Y-90448094D01*
X108743439Y-90448094D02*
X108755820Y-90460475D01*
X108755820Y-90460475D02*
X108768200Y-90485237D01*
X108768200Y-90485237D02*
X108768200Y-90547142D01*
X108768200Y-90547142D02*
X108755820Y-90571904D01*
X108755820Y-90571904D02*
X108743439Y-90584285D01*
X110209765Y-88591666D02*
X110221670Y-88603570D01*
X110221670Y-88603570D02*
X110233574Y-88639285D01*
X110233574Y-88639285D02*
X110233574Y-88663094D01*
X110233574Y-88663094D02*
X110221670Y-88698808D01*
X110221670Y-88698808D02*
X110197860Y-88722618D01*
X110197860Y-88722618D02*
X110174050Y-88734523D01*
X110174050Y-88734523D02*
X110126431Y-88746427D01*
X110126431Y-88746427D02*
X110090717Y-88746427D01*
X110090717Y-88746427D02*
X110043098Y-88734523D01*
X110043098Y-88734523D02*
X110019289Y-88722618D01*
X110019289Y-88722618D02*
X109995479Y-88698808D01*
X109995479Y-88698808D02*
X109983574Y-88663094D01*
X109983574Y-88663094D02*
X109983574Y-88639285D01*
X109983574Y-88639285D02*
X109995479Y-88603570D01*
X109995479Y-88603570D02*
X110007384Y-88591666D01*
X109983574Y-88508332D02*
X109983574Y-88353570D01*
X109983574Y-88353570D02*
X110078812Y-88436904D01*
X110078812Y-88436904D02*
X110078812Y-88401189D01*
X110078812Y-88401189D02*
X110090717Y-88377380D01*
X110090717Y-88377380D02*
X110102622Y-88365475D01*
X110102622Y-88365475D02*
X110126431Y-88353570D01*
X110126431Y-88353570D02*
X110185955Y-88353570D01*
X110185955Y-88353570D02*
X110209765Y-88365475D01*
X110209765Y-88365475D02*
X110221670Y-88377380D01*
X110221670Y-88377380D02*
X110233574Y-88401189D01*
X110233574Y-88401189D02*
X110233574Y-88472618D01*
X110233574Y-88472618D02*
X110221670Y-88496427D01*
X110221670Y-88496427D02*
X110209765Y-88508332D01*
X112218200Y-87383332D02*
X112094391Y-87469999D01*
X112218200Y-87531904D02*
X111958200Y-87531904D01*
X111958200Y-87531904D02*
X111958200Y-87432856D01*
X111958200Y-87432856D02*
X111970581Y-87408094D01*
X111970581Y-87408094D02*
X111982962Y-87395713D01*
X111982962Y-87395713D02*
X112007724Y-87383332D01*
X112007724Y-87383332D02*
X112044867Y-87383332D01*
X112044867Y-87383332D02*
X112069629Y-87395713D01*
X112069629Y-87395713D02*
X112082010Y-87408094D01*
X112082010Y-87408094D02*
X112094391Y-87432856D01*
X112094391Y-87432856D02*
X112094391Y-87531904D01*
X112218200Y-87135713D02*
X112218200Y-87284285D01*
X112218200Y-87209999D02*
X111958200Y-87209999D01*
X111958200Y-87209999D02*
X111995343Y-87234761D01*
X111995343Y-87234761D02*
X112020105Y-87259523D01*
X112020105Y-87259523D02*
X112032486Y-87284285D01*
X101489765Y-96941666D02*
X101501670Y-96953570D01*
X101501670Y-96953570D02*
X101513574Y-96989285D01*
X101513574Y-96989285D02*
X101513574Y-97013094D01*
X101513574Y-97013094D02*
X101501670Y-97048808D01*
X101501670Y-97048808D02*
X101477860Y-97072618D01*
X101477860Y-97072618D02*
X101454050Y-97084523D01*
X101454050Y-97084523D02*
X101406431Y-97096427D01*
X101406431Y-97096427D02*
X101370717Y-97096427D01*
X101370717Y-97096427D02*
X101323098Y-97084523D01*
X101323098Y-97084523D02*
X101299289Y-97072618D01*
X101299289Y-97072618D02*
X101275479Y-97048808D01*
X101275479Y-97048808D02*
X101263574Y-97013094D01*
X101263574Y-97013094D02*
X101263574Y-96989285D01*
X101263574Y-96989285D02*
X101275479Y-96953570D01*
X101275479Y-96953570D02*
X101287384Y-96941666D01*
X101263574Y-96727380D02*
X101263574Y-96774999D01*
X101263574Y-96774999D02*
X101275479Y-96798808D01*
X101275479Y-96798808D02*
X101287384Y-96810713D01*
X101287384Y-96810713D02*
X101323098Y-96834523D01*
X101323098Y-96834523D02*
X101370717Y-96846427D01*
X101370717Y-96846427D02*
X101465955Y-96846427D01*
X101465955Y-96846427D02*
X101489765Y-96834523D01*
X101489765Y-96834523D02*
X101501670Y-96822618D01*
X101501670Y-96822618D02*
X101513574Y-96798808D01*
X101513574Y-96798808D02*
X101513574Y-96751189D01*
X101513574Y-96751189D02*
X101501670Y-96727380D01*
X101501670Y-96727380D02*
X101489765Y-96715475D01*
X101489765Y-96715475D02*
X101465955Y-96703570D01*
X101465955Y-96703570D02*
X101406431Y-96703570D01*
X101406431Y-96703570D02*
X101382622Y-96715475D01*
X101382622Y-96715475D02*
X101370717Y-96727380D01*
X101370717Y-96727380D02*
X101358812Y-96751189D01*
X101358812Y-96751189D02*
X101358812Y-96798808D01*
X101358812Y-96798808D02*
X101370717Y-96822618D01*
X101370717Y-96822618D02*
X101382622Y-96834523D01*
X101382622Y-96834523D02*
X101406431Y-96846427D01*
X112789765Y-91130714D02*
X112801670Y-91142618D01*
X112801670Y-91142618D02*
X112813574Y-91178333D01*
X112813574Y-91178333D02*
X112813574Y-91202142D01*
X112813574Y-91202142D02*
X112801670Y-91237856D01*
X112801670Y-91237856D02*
X112777860Y-91261666D01*
X112777860Y-91261666D02*
X112754050Y-91273571D01*
X112754050Y-91273571D02*
X112706431Y-91285475D01*
X112706431Y-91285475D02*
X112670717Y-91285475D01*
X112670717Y-91285475D02*
X112623098Y-91273571D01*
X112623098Y-91273571D02*
X112599289Y-91261666D01*
X112599289Y-91261666D02*
X112575479Y-91237856D01*
X112575479Y-91237856D02*
X112563574Y-91202142D01*
X112563574Y-91202142D02*
X112563574Y-91178333D01*
X112563574Y-91178333D02*
X112575479Y-91142618D01*
X112575479Y-91142618D02*
X112587384Y-91130714D01*
X112813574Y-90892618D02*
X112813574Y-91035475D01*
X112813574Y-90964047D02*
X112563574Y-90964047D01*
X112563574Y-90964047D02*
X112599289Y-90987856D01*
X112599289Y-90987856D02*
X112623098Y-91011666D01*
X112623098Y-91011666D02*
X112635003Y-91035475D01*
X112813574Y-90654523D02*
X112813574Y-90797380D01*
X112813574Y-90725952D02*
X112563574Y-90725952D01*
X112563574Y-90725952D02*
X112599289Y-90749761D01*
X112599289Y-90749761D02*
X112623098Y-90773571D01*
X112623098Y-90773571D02*
X112635003Y-90797380D01*
D15*
X105401428Y-78169865D02*
X105401428Y-78752722D01*
X105401428Y-78752722D02*
X105435714Y-78821294D01*
X105435714Y-78821294D02*
X105470000Y-78855580D01*
X105470000Y-78855580D02*
X105538571Y-78889865D01*
X105538571Y-78889865D02*
X105675714Y-78889865D01*
X105675714Y-78889865D02*
X105744285Y-78855580D01*
X105744285Y-78855580D02*
X105778571Y-78821294D01*
X105778571Y-78821294D02*
X105812857Y-78752722D01*
X105812857Y-78752722D02*
X105812857Y-78169865D01*
X106121428Y-78238437D02*
X106155714Y-78204151D01*
X106155714Y-78204151D02*
X106224286Y-78169865D01*
X106224286Y-78169865D02*
X106395714Y-78169865D01*
X106395714Y-78169865D02*
X106464286Y-78204151D01*
X106464286Y-78204151D02*
X106498571Y-78238437D01*
X106498571Y-78238437D02*
X106532857Y-78307008D01*
X106532857Y-78307008D02*
X106532857Y-78375580D01*
X106532857Y-78375580D02*
X106498571Y-78478437D01*
X106498571Y-78478437D02*
X106087143Y-78889865D01*
X106087143Y-78889865D02*
X106532857Y-78889865D01*
D12*
X110739765Y-107140714D02*
X110751670Y-107152618D01*
X110751670Y-107152618D02*
X110763574Y-107188333D01*
X110763574Y-107188333D02*
X110763574Y-107212142D01*
X110763574Y-107212142D02*
X110751670Y-107247856D01*
X110751670Y-107247856D02*
X110727860Y-107271666D01*
X110727860Y-107271666D02*
X110704050Y-107283571D01*
X110704050Y-107283571D02*
X110656431Y-107295475D01*
X110656431Y-107295475D02*
X110620717Y-107295475D01*
X110620717Y-107295475D02*
X110573098Y-107283571D01*
X110573098Y-107283571D02*
X110549289Y-107271666D01*
X110549289Y-107271666D02*
X110525479Y-107247856D01*
X110525479Y-107247856D02*
X110513574Y-107212142D01*
X110513574Y-107212142D02*
X110513574Y-107188333D01*
X110513574Y-107188333D02*
X110525479Y-107152618D01*
X110525479Y-107152618D02*
X110537384Y-107140714D01*
X110763574Y-106902618D02*
X110763574Y-107045475D01*
X110763574Y-106974047D02*
X110513574Y-106974047D01*
X110513574Y-106974047D02*
X110549289Y-106997856D01*
X110549289Y-106997856D02*
X110573098Y-107021666D01*
X110573098Y-107021666D02*
X110585003Y-107045475D01*
X110513574Y-106688333D02*
X110513574Y-106735952D01*
X110513574Y-106735952D02*
X110525479Y-106759761D01*
X110525479Y-106759761D02*
X110537384Y-106771666D01*
X110537384Y-106771666D02*
X110573098Y-106795476D01*
X110573098Y-106795476D02*
X110620717Y-106807380D01*
X110620717Y-106807380D02*
X110715955Y-106807380D01*
X110715955Y-106807380D02*
X110739765Y-106795476D01*
X110739765Y-106795476D02*
X110751670Y-106783571D01*
X110751670Y-106783571D02*
X110763574Y-106759761D01*
X110763574Y-106759761D02*
X110763574Y-106712142D01*
X110763574Y-106712142D02*
X110751670Y-106688333D01*
X110751670Y-106688333D02*
X110739765Y-106676428D01*
X110739765Y-106676428D02*
X110715955Y-106664523D01*
X110715955Y-106664523D02*
X110656431Y-106664523D01*
X110656431Y-106664523D02*
X110632622Y-106676428D01*
X110632622Y-106676428D02*
X110620717Y-106688333D01*
X110620717Y-106688333D02*
X110608812Y-106712142D01*
X110608812Y-106712142D02*
X110608812Y-106759761D01*
X110608812Y-106759761D02*
X110620717Y-106783571D01*
X110620717Y-106783571D02*
X110632622Y-106795476D01*
X110632622Y-106795476D02*
X110656431Y-106807380D01*
X111839765Y-91130714D02*
X111851670Y-91142618D01*
X111851670Y-91142618D02*
X111863574Y-91178333D01*
X111863574Y-91178333D02*
X111863574Y-91202142D01*
X111863574Y-91202142D02*
X111851670Y-91237856D01*
X111851670Y-91237856D02*
X111827860Y-91261666D01*
X111827860Y-91261666D02*
X111804050Y-91273571D01*
X111804050Y-91273571D02*
X111756431Y-91285475D01*
X111756431Y-91285475D02*
X111720717Y-91285475D01*
X111720717Y-91285475D02*
X111673098Y-91273571D01*
X111673098Y-91273571D02*
X111649289Y-91261666D01*
X111649289Y-91261666D02*
X111625479Y-91237856D01*
X111625479Y-91237856D02*
X111613574Y-91202142D01*
X111613574Y-91202142D02*
X111613574Y-91178333D01*
X111613574Y-91178333D02*
X111625479Y-91142618D01*
X111625479Y-91142618D02*
X111637384Y-91130714D01*
X111863574Y-90892618D02*
X111863574Y-91035475D01*
X111863574Y-90964047D02*
X111613574Y-90964047D01*
X111613574Y-90964047D02*
X111649289Y-90987856D01*
X111649289Y-90987856D02*
X111673098Y-91011666D01*
X111673098Y-91011666D02*
X111685003Y-91035475D01*
X111637384Y-90797380D02*
X111625479Y-90785476D01*
X111625479Y-90785476D02*
X111613574Y-90761666D01*
X111613574Y-90761666D02*
X111613574Y-90702142D01*
X111613574Y-90702142D02*
X111625479Y-90678333D01*
X111625479Y-90678333D02*
X111637384Y-90666428D01*
X111637384Y-90666428D02*
X111661193Y-90654523D01*
X111661193Y-90654523D02*
X111685003Y-90654523D01*
X111685003Y-90654523D02*
X111720717Y-90666428D01*
X111720717Y-90666428D02*
X111863574Y-90809285D01*
X111863574Y-90809285D02*
X111863574Y-90654523D01*
X107514765Y-87661666D02*
X107526670Y-87673570D01*
X107526670Y-87673570D02*
X107538574Y-87709285D01*
X107538574Y-87709285D02*
X107538574Y-87733094D01*
X107538574Y-87733094D02*
X107526670Y-87768808D01*
X107526670Y-87768808D02*
X107502860Y-87792618D01*
X107502860Y-87792618D02*
X107479050Y-87804523D01*
X107479050Y-87804523D02*
X107431431Y-87816427D01*
X107431431Y-87816427D02*
X107395717Y-87816427D01*
X107395717Y-87816427D02*
X107348098Y-87804523D01*
X107348098Y-87804523D02*
X107324289Y-87792618D01*
X107324289Y-87792618D02*
X107300479Y-87768808D01*
X107300479Y-87768808D02*
X107288574Y-87733094D01*
X107288574Y-87733094D02*
X107288574Y-87709285D01*
X107288574Y-87709285D02*
X107300479Y-87673570D01*
X107300479Y-87673570D02*
X107312384Y-87661666D01*
X107288574Y-87435475D02*
X107288574Y-87554523D01*
X107288574Y-87554523D02*
X107407622Y-87566427D01*
X107407622Y-87566427D02*
X107395717Y-87554523D01*
X107395717Y-87554523D02*
X107383812Y-87530713D01*
X107383812Y-87530713D02*
X107383812Y-87471189D01*
X107383812Y-87471189D02*
X107395717Y-87447380D01*
X107395717Y-87447380D02*
X107407622Y-87435475D01*
X107407622Y-87435475D02*
X107431431Y-87423570D01*
X107431431Y-87423570D02*
X107490955Y-87423570D01*
X107490955Y-87423570D02*
X107514765Y-87435475D01*
X107514765Y-87435475D02*
X107526670Y-87447380D01*
X107526670Y-87447380D02*
X107538574Y-87471189D01*
X107538574Y-87471189D02*
X107538574Y-87530713D01*
X107538574Y-87530713D02*
X107526670Y-87554523D01*
X107526670Y-87554523D02*
X107514765Y-87566427D01*
X108289765Y-79880714D02*
X108301670Y-79892618D01*
X108301670Y-79892618D02*
X108313574Y-79928333D01*
X108313574Y-79928333D02*
X108313574Y-79952142D01*
X108313574Y-79952142D02*
X108301670Y-79987856D01*
X108301670Y-79987856D02*
X108277860Y-80011666D01*
X108277860Y-80011666D02*
X108254050Y-80023571D01*
X108254050Y-80023571D02*
X108206431Y-80035475D01*
X108206431Y-80035475D02*
X108170717Y-80035475D01*
X108170717Y-80035475D02*
X108123098Y-80023571D01*
X108123098Y-80023571D02*
X108099289Y-80011666D01*
X108099289Y-80011666D02*
X108075479Y-79987856D01*
X108075479Y-79987856D02*
X108063574Y-79952142D01*
X108063574Y-79952142D02*
X108063574Y-79928333D01*
X108063574Y-79928333D02*
X108075479Y-79892618D01*
X108075479Y-79892618D02*
X108087384Y-79880714D01*
X108313574Y-79642618D02*
X108313574Y-79785475D01*
X108313574Y-79714047D02*
X108063574Y-79714047D01*
X108063574Y-79714047D02*
X108099289Y-79737856D01*
X108099289Y-79737856D02*
X108123098Y-79761666D01*
X108123098Y-79761666D02*
X108135003Y-79785475D01*
X108063574Y-79559285D02*
X108063574Y-79392619D01*
X108063574Y-79392619D02*
X108313574Y-79499761D01*
X108489765Y-87661666D02*
X108501670Y-87673570D01*
X108501670Y-87673570D02*
X108513574Y-87709285D01*
X108513574Y-87709285D02*
X108513574Y-87733094D01*
X108513574Y-87733094D02*
X108501670Y-87768808D01*
X108501670Y-87768808D02*
X108477860Y-87792618D01*
X108477860Y-87792618D02*
X108454050Y-87804523D01*
X108454050Y-87804523D02*
X108406431Y-87816427D01*
X108406431Y-87816427D02*
X108370717Y-87816427D01*
X108370717Y-87816427D02*
X108323098Y-87804523D01*
X108323098Y-87804523D02*
X108299289Y-87792618D01*
X108299289Y-87792618D02*
X108275479Y-87768808D01*
X108275479Y-87768808D02*
X108263574Y-87733094D01*
X108263574Y-87733094D02*
X108263574Y-87709285D01*
X108263574Y-87709285D02*
X108275479Y-87673570D01*
X108275479Y-87673570D02*
X108287384Y-87661666D01*
X108370717Y-87518808D02*
X108358812Y-87542618D01*
X108358812Y-87542618D02*
X108346908Y-87554523D01*
X108346908Y-87554523D02*
X108323098Y-87566427D01*
X108323098Y-87566427D02*
X108311193Y-87566427D01*
X108311193Y-87566427D02*
X108287384Y-87554523D01*
X108287384Y-87554523D02*
X108275479Y-87542618D01*
X108275479Y-87542618D02*
X108263574Y-87518808D01*
X108263574Y-87518808D02*
X108263574Y-87471189D01*
X108263574Y-87471189D02*
X108275479Y-87447380D01*
X108275479Y-87447380D02*
X108287384Y-87435475D01*
X108287384Y-87435475D02*
X108311193Y-87423570D01*
X108311193Y-87423570D02*
X108323098Y-87423570D01*
X108323098Y-87423570D02*
X108346908Y-87435475D01*
X108346908Y-87435475D02*
X108358812Y-87447380D01*
X108358812Y-87447380D02*
X108370717Y-87471189D01*
X108370717Y-87471189D02*
X108370717Y-87518808D01*
X108370717Y-87518808D02*
X108382622Y-87542618D01*
X108382622Y-87542618D02*
X108394527Y-87554523D01*
X108394527Y-87554523D02*
X108418336Y-87566427D01*
X108418336Y-87566427D02*
X108465955Y-87566427D01*
X108465955Y-87566427D02*
X108489765Y-87554523D01*
X108489765Y-87554523D02*
X108501670Y-87542618D01*
X108501670Y-87542618D02*
X108513574Y-87518808D01*
X108513574Y-87518808D02*
X108513574Y-87471189D01*
X108513574Y-87471189D02*
X108501670Y-87447380D01*
X108501670Y-87447380D02*
X108489765Y-87435475D01*
X108489765Y-87435475D02*
X108465955Y-87423570D01*
X108465955Y-87423570D02*
X108418336Y-87423570D01*
X108418336Y-87423570D02*
X108394527Y-87435475D01*
X108394527Y-87435475D02*
X108382622Y-87447380D01*
X108382622Y-87447380D02*
X108370717Y-87471189D01*
X103789765Y-92311666D02*
X103801670Y-92323570D01*
X103801670Y-92323570D02*
X103813574Y-92359285D01*
X103813574Y-92359285D02*
X103813574Y-92383094D01*
X103813574Y-92383094D02*
X103801670Y-92418808D01*
X103801670Y-92418808D02*
X103777860Y-92442618D01*
X103777860Y-92442618D02*
X103754050Y-92454523D01*
X103754050Y-92454523D02*
X103706431Y-92466427D01*
X103706431Y-92466427D02*
X103670717Y-92466427D01*
X103670717Y-92466427D02*
X103623098Y-92454523D01*
X103623098Y-92454523D02*
X103599289Y-92442618D01*
X103599289Y-92442618D02*
X103575479Y-92418808D01*
X103575479Y-92418808D02*
X103563574Y-92383094D01*
X103563574Y-92383094D02*
X103563574Y-92359285D01*
X103563574Y-92359285D02*
X103575479Y-92323570D01*
X103575479Y-92323570D02*
X103587384Y-92311666D01*
X103646908Y-92097380D02*
X103813574Y-92097380D01*
X103551670Y-92156904D02*
X103730241Y-92216427D01*
X103730241Y-92216427D02*
X103730241Y-92061666D01*
D13*
%TO.C,R2*%
X104986359Y-86840000D02*
X105293641Y-86840000D01*
X104986359Y-87600000D02*
X105293641Y-87600000D01*
%TO.C,R7*%
X105248641Y-83140000D02*
X104941359Y-83140000D01*
X105248641Y-83900000D02*
X104941359Y-83900000D01*
%TO.C,J2*%
X97730000Y-66490000D02*
X99110000Y-66490000D01*
X97730000Y-67870000D02*
X97730000Y-66490000D01*
X97730000Y-69140000D02*
X97730000Y-117510000D01*
X97730000Y-69140000D02*
X100490000Y-69140000D01*
X97730000Y-117510000D02*
X100490000Y-117510000D01*
X100490000Y-69140000D02*
X100490000Y-117510000D01*
%TO.C,C1*%
X110440000Y-91077836D02*
X110440000Y-90862164D01*
X111160000Y-91077836D02*
X111160000Y-90862164D01*
%TO.C,Y1*%
X110060000Y-105290000D02*
X105940000Y-105290000D01*
X110060000Y-108710000D02*
X110060000Y-105290000D01*
%TO.C,U1*%
X104390000Y-92640000D02*
X105040000Y-92640000D01*
X104390000Y-93290000D02*
X104390000Y-92640000D01*
X104390000Y-99860000D02*
X104390000Y-99210000D01*
X105040000Y-99860000D02*
X104390000Y-99860000D01*
X110960000Y-92640000D02*
X111610000Y-92640000D01*
X111610000Y-92640000D02*
X111610000Y-93290000D01*
X111610000Y-99210000D02*
X111610000Y-99860000D01*
X111610000Y-99860000D02*
X110960000Y-99860000D01*
X103860000Y-93650000D02*
X103530000Y-93890000D01*
X103530000Y-93410000D01*
X103860000Y-93650000D01*
G36*
X103860000Y-93650000D02*
G01*
X103530000Y-93890000D01*
X103530000Y-93410000D01*
X103860000Y-93650000D01*
G37*
%TO.C,J4*%
X104080000Y-117770000D02*
X104080000Y-116390000D01*
X105460000Y-117770000D02*
X104080000Y-117770000D01*
X106730000Y-115010000D02*
X111920000Y-115010000D01*
X106730000Y-117770000D02*
X106730000Y-115010000D01*
X106730000Y-117770000D02*
X111920000Y-117770000D01*
X111920000Y-117770000D02*
X111920000Y-115010000D01*
%TO.C,C2*%
X110690000Y-88977836D02*
X110690000Y-88762164D01*
X111410000Y-88977836D02*
X111410000Y-88762164D01*
%TO.C,C13*%
X105765580Y-74690000D02*
X105484420Y-74690000D01*
X105765580Y-75710000D02*
X105484420Y-75710000D01*
%TO.C,C10*%
X114012164Y-97090000D02*
X114227836Y-97090000D01*
X114012164Y-97810000D02*
X114227836Y-97810000D01*
%TO.C,C15*%
X104990000Y-106872164D02*
X104990000Y-107087836D01*
X105710000Y-106872164D02*
X105710000Y-107087836D01*
%TO.C,R6*%
X104370000Y-90946359D02*
X104370000Y-91253641D01*
X105130000Y-90946359D02*
X105130000Y-91253641D01*
%TO.C,U3*%
X105164432Y-84215000D02*
X107960000Y-84215000D01*
X107960000Y-86485000D02*
X104740000Y-86485000D01*
X104870000Y-84210000D02*
X104730000Y-84020000D01*
X105010000Y-84020000D01*
X104870000Y-84210000D01*
G36*
X104870000Y-84210000D02*
G01*
X104730000Y-84020000D01*
X105010000Y-84020000D01*
X104870000Y-84210000D01*
G37*
%TO.C,R3*%
X107520000Y-102243641D02*
X107520000Y-101936359D01*
X108280000Y-102243641D02*
X108280000Y-101936359D01*
%TO.C,C9*%
X112340000Y-93007836D02*
X112340000Y-92792164D01*
X113060000Y-93007836D02*
X113060000Y-92792164D01*
D16*
%TO.C,G\u002A\u002A\u002A*%
G36*
X106644374Y-110661081D02*
G01*
X106640597Y-110763531D01*
X106630616Y-110839997D01*
X106615673Y-110883582D01*
X106602979Y-110890847D01*
X106572715Y-110885588D01*
X106521811Y-110877959D01*
X106469297Y-110866573D01*
X106439747Y-110853381D01*
X106444923Y-110829692D01*
X106471700Y-110779446D01*
X106514921Y-110711871D01*
X106534689Y-110683421D01*
X106644679Y-110528496D01*
X106644374Y-110661081D01*
G37*
G36*
X111270758Y-110722975D02*
G01*
X111307143Y-110746753D01*
X111305673Y-110788816D01*
X111277497Y-110830077D01*
X111219711Y-110885559D01*
X111177664Y-110902455D01*
X111145063Y-110881050D01*
X111121774Y-110837072D01*
X111102587Y-110782966D01*
X111096789Y-110748700D01*
X111098253Y-110744695D01*
X111125176Y-110735304D01*
X111179420Y-110724827D01*
X111199683Y-110721883D01*
X111270758Y-110722975D01*
G37*
G36*
X111399413Y-111036579D02*
G01*
X111407204Y-111043214D01*
X111438799Y-111082808D01*
X111447669Y-111109012D01*
X111429183Y-111150149D01*
X111382560Y-111196305D01*
X111321047Y-111235668D01*
X111291549Y-111248189D01*
X111253661Y-111258366D01*
X111232209Y-111248308D01*
X111217291Y-111208805D01*
X111208153Y-111170624D01*
X111196113Y-111105214D01*
X111203977Y-111067750D01*
X111240107Y-111044585D01*
X111296234Y-111026814D01*
X111356110Y-111017969D01*
X111399413Y-111036579D01*
G37*
G36*
X105606077Y-109516801D02*
G01*
X105801354Y-109530657D01*
X105991872Y-109552296D01*
X106165573Y-109581078D01*
X106186719Y-109585401D01*
X106429135Y-109641129D01*
X106665054Y-109706081D01*
X106903339Y-109783333D01*
X107152853Y-109875961D01*
X107422459Y-109987042D01*
X107705804Y-110112709D01*
X107983154Y-110233372D01*
X108235698Y-110329886D01*
X108474171Y-110405173D01*
X108709307Y-110462159D01*
X108951842Y-110503767D01*
X109212509Y-110532924D01*
X109263984Y-110537219D01*
X109653456Y-110548354D01*
X110059713Y-110522246D01*
X110476727Y-110460069D01*
X110898473Y-110362998D01*
X111318924Y-110232207D01*
X111732053Y-110068870D01*
X111782196Y-110046531D01*
X111897570Y-109992742D01*
X112017379Y-109934014D01*
X112124439Y-109878897D01*
X112178757Y-109849225D01*
X112253550Y-109809116D01*
X112312895Y-109781536D01*
X112346885Y-109770941D01*
X112350762Y-109771840D01*
X112345006Y-109794732D01*
X112321251Y-109850621D01*
X112282513Y-109933076D01*
X112231812Y-110035666D01*
X112173699Y-110149025D01*
X112113342Y-110266035D01*
X112060901Y-110369974D01*
X112019652Y-110454160D01*
X111992872Y-110511911D01*
X111983817Y-110536247D01*
X112005855Y-110545094D01*
X112070852Y-110551863D01*
X112177134Y-110556464D01*
X112323024Y-110558806D01*
X112410129Y-110559102D01*
X112567482Y-110560209D01*
X112690465Y-110563431D01*
X112776249Y-110568621D01*
X112822008Y-110575632D01*
X112828994Y-110580972D01*
X112808674Y-110605143D01*
X112758921Y-110652467D01*
X112685270Y-110718281D01*
X112593255Y-110797925D01*
X112488408Y-110886735D01*
X112376264Y-110980052D01*
X112262356Y-111073212D01*
X112152218Y-111161556D01*
X112051383Y-111240420D01*
X111998211Y-111280829D01*
X111603687Y-111563357D01*
X111223340Y-111809275D01*
X110858300Y-112018006D01*
X110509697Y-112188968D01*
X110178661Y-112321583D01*
X109866320Y-112415271D01*
X109728053Y-112445361D01*
X109607807Y-112461749D01*
X109453387Y-112472991D01*
X109275013Y-112478972D01*
X109082906Y-112479575D01*
X108887286Y-112474684D01*
X108698375Y-112464183D01*
X108621724Y-112457912D01*
X108368501Y-112431730D01*
X108125489Y-112399554D01*
X107885001Y-112359760D01*
X107639351Y-112310723D01*
X107380851Y-112250817D01*
X107101815Y-112178418D01*
X106794557Y-112091901D01*
X106555321Y-112021092D01*
X106213103Y-111919478D01*
X105908732Y-111832166D01*
X105638036Y-111758269D01*
X105555467Y-111737261D01*
X107587569Y-111737261D01*
X107589333Y-111796343D01*
X107616848Y-111824528D01*
X107674675Y-111824760D01*
X107742382Y-111792531D01*
X107811119Y-111735943D01*
X107872035Y-111663101D01*
X107916279Y-111582106D01*
X107930153Y-111537697D01*
X107951907Y-111486946D01*
X107984296Y-111455693D01*
X108015590Y-111454322D01*
X108020156Y-111458003D01*
X108028716Y-111483205D01*
X108043105Y-111542447D01*
X108061033Y-111625836D01*
X108073753Y-111689611D01*
X108098130Y-111803085D01*
X108121060Y-111880005D01*
X108145323Y-111928295D01*
X108164951Y-111949604D01*
X108215103Y-111982466D01*
X108257841Y-111984057D01*
X108297454Y-111966676D01*
X108332090Y-111929775D01*
X108353386Y-111878334D01*
X108355169Y-111812231D01*
X108341417Y-111718430D01*
X108315051Y-111609919D01*
X108278993Y-111499687D01*
X108278040Y-111497340D01*
X108970564Y-111497340D01*
X108971560Y-111529555D01*
X108990320Y-111703059D01*
X109031810Y-111840343D01*
X109095384Y-111940560D01*
X109180399Y-112002860D01*
X109286210Y-112026395D01*
X109346306Y-112023412D01*
X109420545Y-112007849D01*
X109483967Y-111984430D01*
X109497097Y-111977005D01*
X109536386Y-111934662D01*
X109548764Y-111869195D01*
X109548812Y-111863254D01*
X109548812Y-111783387D01*
X109419705Y-111798372D01*
X109342514Y-111804869D01*
X109295230Y-111800420D01*
X109263944Y-111782808D01*
X109253011Y-111771823D01*
X109199915Y-111689070D01*
X109163921Y-111584782D01*
X109146536Y-111472228D01*
X109149266Y-111364677D01*
X109173618Y-111275397D01*
X109193002Y-111243469D01*
X109242334Y-111200129D01*
X109293085Y-111184753D01*
X109332001Y-111200712D01*
X109336587Y-111206947D01*
X109367381Y-111224240D01*
X109404924Y-111229287D01*
X109443752Y-111221951D01*
X109458104Y-111191020D01*
X109459454Y-111161253D01*
X109439391Y-111081211D01*
X109431798Y-111072859D01*
X109640213Y-111072859D01*
X109642506Y-111166733D01*
X109652633Y-111293642D01*
X109670360Y-111458028D01*
X109681703Y-111553209D01*
X109697499Y-111684140D01*
X109709732Y-111777247D01*
X109721150Y-111838935D01*
X109734501Y-111875611D01*
X109752533Y-111893681D01*
X109777995Y-111899551D01*
X109813635Y-111899629D01*
X109830243Y-111899471D01*
X109905809Y-111894249D01*
X110002042Y-111880648D01*
X110085769Y-111864255D01*
X110207196Y-111829344D01*
X110286931Y-111789624D01*
X110323928Y-111745777D01*
X110322750Y-111709935D01*
X110309099Y-111688414D01*
X110282309Y-111679027D01*
X110231230Y-111680128D01*
X110168233Y-111687098D01*
X110081855Y-111696904D01*
X110003372Y-111704267D01*
X109962093Y-111706983D01*
X109895074Y-111709586D01*
X109870093Y-111452682D01*
X109851284Y-111280300D01*
X109831720Y-111148324D01*
X109810106Y-111052484D01*
X109785145Y-110988510D01*
X109755541Y-110952133D01*
X109742217Y-110947241D01*
X110218997Y-110947241D01*
X110225413Y-110998240D01*
X110242469Y-111079518D01*
X110266878Y-111178900D01*
X110295356Y-111284213D01*
X110324614Y-111383281D01*
X110351367Y-111463932D01*
X110371658Y-111512757D01*
X110417795Y-111573628D01*
X110488247Y-111619777D01*
X110548293Y-111644638D01*
X110654781Y-111664265D01*
X110753490Y-111640953D01*
X110793131Y-111618926D01*
X110842809Y-111561479D01*
X110874256Y-111468771D01*
X110886829Y-111346610D01*
X110879888Y-111200804D01*
X110855797Y-111051163D01*
X110824388Y-110922983D01*
X110791532Y-110834943D01*
X110754773Y-110782517D01*
X110711657Y-110761178D01*
X110698021Y-110760157D01*
X110652596Y-110770224D01*
X110628985Y-110804233D01*
X110625660Y-110867896D01*
X110641094Y-110966925D01*
X110641794Y-110970321D01*
X110664240Y-111097528D01*
X110678683Y-111218994D01*
X110684672Y-111325671D01*
X110681761Y-111408514D01*
X110669499Y-111458473D01*
X110666235Y-111463311D01*
X110620412Y-111498477D01*
X110576800Y-111490358D01*
X110535056Y-111438582D01*
X110494835Y-111342775D01*
X110466856Y-111247208D01*
X110440988Y-111147422D01*
X110416053Y-111051249D01*
X110396721Y-110976694D01*
X110393920Y-110965895D01*
X110362601Y-110890875D01*
X110321203Y-110847308D01*
X110278187Y-110836097D01*
X110242019Y-110858144D01*
X110221159Y-110914352D01*
X110218997Y-110947241D01*
X109742217Y-110947241D01*
X109719997Y-110939083D01*
X109714074Y-110938873D01*
X109682686Y-110945027D01*
X109660070Y-110966447D01*
X109645990Y-111007577D01*
X109640213Y-111072859D01*
X109431798Y-111072859D01*
X109384648Y-111020997D01*
X109303395Y-110987791D01*
X109257180Y-110983552D01*
X109187845Y-110990997D01*
X109132407Y-111019872D01*
X109090620Y-111057505D01*
X109032097Y-111133118D01*
X108993883Y-111226463D01*
X108974023Y-111345288D01*
X108970564Y-111497340D01*
X108278040Y-111497340D01*
X108254772Y-111440040D01*
X108230056Y-111381185D01*
X108223993Y-111347547D01*
X108236991Y-111323559D01*
X108258353Y-111303551D01*
X108319546Y-111241595D01*
X108379889Y-111167904D01*
X108431413Y-111093785D01*
X108466147Y-111030546D01*
X108476517Y-110994034D01*
X108463687Y-110937887D01*
X108426374Y-110917463D01*
X108366341Y-110932329D01*
X108285352Y-110982049D01*
X108185878Y-111065534D01*
X108119907Y-111125802D01*
X108080752Y-111158090D01*
X108062871Y-111165226D01*
X108060722Y-111150040D01*
X108065819Y-111126822D01*
X108074745Y-111069977D01*
X108081356Y-110987933D01*
X108083915Y-110913422D01*
X108075054Y-110796499D01*
X108046258Y-110721385D01*
X110934114Y-110721385D01*
X110940204Y-110758239D01*
X110956489Y-110827883D01*
X110980256Y-110920563D01*
X111008788Y-111026528D01*
X111039371Y-111136024D01*
X111069291Y-111239297D01*
X111095833Y-111326595D01*
X111116282Y-111388166D01*
X111126450Y-111412378D01*
X111157746Y-111424311D01*
X111217383Y-111419012D01*
X111293561Y-111398866D01*
X111374480Y-111366257D01*
X111388196Y-111359474D01*
X111492307Y-111294650D01*
X111555312Y-111225749D01*
X111580781Y-111148512D01*
X111581706Y-111128665D01*
X111565520Y-111030052D01*
X111522401Y-110941843D01*
X111470603Y-110888190D01*
X111441239Y-110858090D01*
X111438976Y-110817105D01*
X111446298Y-110787276D01*
X111457693Y-110689495D01*
X111433929Y-110611149D01*
X111378843Y-110558281D01*
X111296274Y-110536932D01*
X111287193Y-110536763D01*
X111212031Y-110547141D01*
X111128668Y-110574365D01*
X111048326Y-110612565D01*
X110982229Y-110655873D01*
X110941599Y-110698421D01*
X110934114Y-110721385D01*
X108046258Y-110721385D01*
X108045042Y-110718214D01*
X107993325Y-110677556D01*
X107950812Y-110670800D01*
X107908860Y-110678201D01*
X107878308Y-110704770D01*
X107856268Y-110757053D01*
X107839852Y-110841597D01*
X107827540Y-110950256D01*
X107811625Y-111094005D01*
X107792076Y-111208153D01*
X107764757Y-111307775D01*
X107725531Y-111407946D01*
X107670264Y-111523739D01*
X107670154Y-111523959D01*
X107614431Y-111646905D01*
X107587569Y-111737261D01*
X105555467Y-111737261D01*
X105396843Y-111696902D01*
X105180983Y-111647179D01*
X104986283Y-111608215D01*
X104808572Y-111579122D01*
X104643678Y-111559015D01*
X104487430Y-111547008D01*
X104335656Y-111542215D01*
X104299728Y-111542040D01*
X103993270Y-111542040D01*
X103922756Y-111722184D01*
X103890862Y-111805724D01*
X103866482Y-111873503D01*
X103853434Y-111914739D01*
X103852242Y-111921247D01*
X103870629Y-111940949D01*
X103917630Y-111970551D01*
X103954244Y-111989543D01*
X104063359Y-112065067D01*
X104138114Y-112168909D01*
X104177878Y-112300084D01*
X104182984Y-112345914D01*
X104183727Y-112433317D01*
X104175410Y-112515798D01*
X104166598Y-112553630D01*
X104123727Y-112637146D01*
X104057721Y-112715391D01*
X103981351Y-112775789D01*
X103911333Y-112805086D01*
X103836613Y-112819104D01*
X103879359Y-112901020D01*
X103912270Y-113005325D01*
X103918030Y-113127153D01*
X103897914Y-113249552D01*
X103853194Y-113355572D01*
X103844190Y-113369380D01*
X103789907Y-113432343D01*
X103727846Y-113483274D01*
X103706084Y-113495699D01*
X103630741Y-113531452D01*
X103687407Y-113636966D01*
X103730725Y-113757238D01*
X103740491Y-113884548D01*
X103719280Y-114009113D01*
X103669669Y-114121152D01*
X103594231Y-114210884D01*
X103524249Y-114256722D01*
X103422156Y-114282388D01*
X103320245Y-114264451D01*
X103223195Y-114203763D01*
X103220672Y-114201527D01*
X103171950Y-114148249D01*
X103152101Y-114092011D01*
X103149564Y-114046349D01*
X103148886Y-113989520D01*
X103147189Y-113957385D01*
X103146440Y-113954705D01*
X103133469Y-113971413D01*
X103104270Y-114013669D01*
X103087643Y-114038478D01*
X102966483Y-114194490D01*
X102825151Y-114332968D01*
X102676894Y-114441043D01*
X102667443Y-114446644D01*
X102593608Y-114486892D01*
X102527302Y-114513858D01*
X102457932Y-114529030D01*
X102374900Y-114533896D01*
X102267613Y-114529943D01*
X102143271Y-114520223D01*
X101846059Y-114485339D01*
X101552489Y-114433829D01*
X101269677Y-114367742D01*
X101004740Y-114289123D01*
X100764794Y-114200021D01*
X100556957Y-114102483D01*
X100429828Y-114027282D01*
X100375787Y-113986139D01*
X100351108Y-113946320D01*
X100344959Y-113889639D01*
X100344943Y-113884755D01*
X100344943Y-113798402D01*
X100454136Y-113876850D01*
X100603613Y-113968586D01*
X100789326Y-114057332D01*
X101002833Y-114140448D01*
X101235692Y-114215295D01*
X101479461Y-114279231D01*
X101725699Y-114329617D01*
X101965963Y-114363813D01*
X102031574Y-114370175D01*
X102119500Y-114377304D01*
X102170012Y-114379011D01*
X102190190Y-114373909D01*
X102187117Y-114360613D01*
X102172239Y-114342654D01*
X102121250Y-114266268D01*
X102071923Y-114159138D01*
X102029590Y-114035049D01*
X101999584Y-113907784D01*
X101996226Y-113887686D01*
X101980440Y-113699046D01*
X101982254Y-113619612D01*
X102110535Y-113619612D01*
X102121391Y-113809306D01*
X102152780Y-113980902D01*
X102202584Y-114128385D01*
X102268684Y-114245739D01*
X102348962Y-114326948D01*
X102362844Y-114336101D01*
X102446381Y-114366458D01*
X102537364Y-114356928D01*
X102634740Y-114311042D01*
X102693377Y-114267862D01*
X102760917Y-114206949D01*
X102830482Y-114136102D01*
X102895196Y-114063123D01*
X102948181Y-113995814D01*
X102982562Y-113941977D01*
X102991460Y-113909412D01*
X102990549Y-113907400D01*
X102961571Y-113893098D01*
X102914120Y-113887686D01*
X102832631Y-113878123D01*
X102770117Y-113852863D01*
X102737564Y-113817047D01*
X102735268Y-113803971D01*
X102752091Y-113755202D01*
X102756038Y-113749516D01*
X102902814Y-113749516D01*
X102969833Y-113764013D01*
X103100984Y-113795133D01*
X103193224Y-113825078D01*
X103252040Y-113857651D01*
X103282922Y-113896650D01*
X103291359Y-113945878D01*
X103287590Y-113984041D01*
X103283300Y-114051848D01*
X103303110Y-114095368D01*
X103349604Y-114129065D01*
X103404480Y-114152178D01*
X103450694Y-114144778D01*
X103489967Y-114120895D01*
X103555330Y-114049856D01*
X103594780Y-113954365D01*
X103606024Y-113847895D01*
X103586771Y-113743918D01*
X103562733Y-113693300D01*
X103492448Y-113615533D01*
X103400226Y-113565946D01*
X103321184Y-113552594D01*
X103222127Y-113567243D01*
X103112296Y-113605894D01*
X103012152Y-113660604D01*
X102979178Y-113685383D01*
X102902814Y-113749516D01*
X102756038Y-113749516D01*
X102796835Y-113690752D01*
X102860911Y-113620697D01*
X102935728Y-113555110D01*
X102966966Y-113532226D01*
X103025508Y-113484513D01*
X103069546Y-113426861D01*
X103082996Y-113399252D01*
X103256720Y-113399252D01*
X103266426Y-113418513D01*
X103267520Y-113418557D01*
X103292677Y-113400582D01*
X103304473Y-113379463D01*
X103317675Y-113330510D01*
X103328422Y-113265497D01*
X103328807Y-113262180D01*
X103337643Y-113183992D01*
X103307349Y-113252453D01*
X103270278Y-113344247D01*
X103256720Y-113399252D01*
X103082996Y-113399252D01*
X103109733Y-113344367D01*
X103120931Y-113316844D01*
X103148638Y-113240730D01*
X103165925Y-113180611D01*
X103169413Y-113148441D01*
X103168872Y-113147220D01*
X103140206Y-113133387D01*
X103092836Y-113128143D01*
X103005772Y-113117786D01*
X102943606Y-113089607D01*
X102914942Y-113047950D01*
X102913984Y-113037881D01*
X102931454Y-112989973D01*
X103081530Y-112989973D01*
X103148548Y-113004470D01*
X103279700Y-113035590D01*
X103371940Y-113065536D01*
X103430756Y-113098108D01*
X103461638Y-113137108D01*
X103470075Y-113186336D01*
X103466306Y-113224498D01*
X103462016Y-113292306D01*
X103481826Y-113335826D01*
X103528320Y-113369523D01*
X103583196Y-113392635D01*
X103629410Y-113385236D01*
X103668683Y-113361352D01*
X103734046Y-113290313D01*
X103773496Y-113194823D01*
X103784740Y-113088352D01*
X103765487Y-112984375D01*
X103741449Y-112933757D01*
X103671163Y-112855990D01*
X103578942Y-112806404D01*
X103499899Y-112793051D01*
X103400843Y-112807700D01*
X103291012Y-112846352D01*
X103190868Y-112901061D01*
X103157894Y-112925840D01*
X103081530Y-112989973D01*
X102931454Y-112989973D01*
X102931824Y-112988958D01*
X102979086Y-112926526D01*
X103046380Y-112859210D01*
X103124318Y-112795637D01*
X103203510Y-112744433D01*
X103262271Y-112717900D01*
X103329522Y-112692059D01*
X103371240Y-112661466D01*
X103377821Y-112651020D01*
X103556647Y-112651020D01*
X103568593Y-112663421D01*
X103592526Y-112661013D01*
X103605944Y-112633945D01*
X103600648Y-112602175D01*
X103596098Y-112596479D01*
X103574457Y-112599570D01*
X103561794Y-112614392D01*
X103556647Y-112651020D01*
X103377821Y-112651020D01*
X103402555Y-112611763D01*
X103423422Y-112564956D01*
X103450960Y-112488427D01*
X103451743Y-112442571D01*
X103422545Y-112420081D01*
X103360143Y-112413650D01*
X103356643Y-112413622D01*
X103271614Y-112402611D01*
X103210628Y-112373817D01*
X103182832Y-112331986D01*
X103182058Y-112323018D01*
X103197646Y-112283623D01*
X103203744Y-112275110D01*
X103349604Y-112275110D01*
X103416622Y-112289606D01*
X103547774Y-112320726D01*
X103640014Y-112350672D01*
X103698830Y-112383245D01*
X103729712Y-112422244D01*
X103738149Y-112471472D01*
X103734380Y-112509634D01*
X103730089Y-112577442D01*
X103749899Y-112620962D01*
X103796394Y-112654659D01*
X103851270Y-112677772D01*
X103897484Y-112670372D01*
X103936757Y-112646488D01*
X104002120Y-112575450D01*
X104041570Y-112479959D01*
X104052814Y-112373489D01*
X104033560Y-112269511D01*
X104009523Y-112218894D01*
X103939237Y-112141127D01*
X103847015Y-112091540D01*
X103767973Y-112078187D01*
X103668916Y-112092837D01*
X103559086Y-112131488D01*
X103458942Y-112186197D01*
X103425968Y-112210976D01*
X103349604Y-112275110D01*
X103203744Y-112275110D01*
X103239408Y-112225318D01*
X103299838Y-112158551D01*
X103301130Y-112157256D01*
X103389795Y-112078071D01*
X103474054Y-112026402D01*
X103547514Y-111998052D01*
X103634368Y-111962621D01*
X103681967Y-111919235D01*
X103695736Y-111859848D01*
X103685537Y-111793359D01*
X103649882Y-111705436D01*
X103589824Y-111609663D01*
X103517790Y-111523478D01*
X103454980Y-111469822D01*
X103308721Y-111396154D01*
X103162741Y-111366283D01*
X103021015Y-111379482D01*
X102887520Y-111435022D01*
X102766232Y-111532175D01*
X102702889Y-111607519D01*
X102605133Y-111762112D01*
X102509679Y-111953112D01*
X102418964Y-112172247D01*
X102335422Y-112411244D01*
X102261488Y-112661831D01*
X102199598Y-112915736D01*
X102152187Y-113164687D01*
X102121691Y-113400412D01*
X102110545Y-113614638D01*
X102110535Y-113619612D01*
X101982254Y-113619612D01*
X101985464Y-113479015D01*
X102009959Y-113235006D01*
X102052588Y-112974431D01*
X102112015Y-112704703D01*
X102186901Y-112433236D01*
X102275910Y-112167441D01*
X102333324Y-112019178D01*
X102410835Y-111841445D01*
X102485852Y-111697234D01*
X102564631Y-111576253D01*
X102653424Y-111468208D01*
X102694254Y-111425180D01*
X102750941Y-111364896D01*
X102790588Y-111317502D01*
X102806737Y-111290924D01*
X102805952Y-111288146D01*
X102779729Y-111278542D01*
X102720128Y-111259019D01*
X102636537Y-111232598D01*
X102556552Y-111207868D01*
X102258979Y-111108008D01*
X101942370Y-110986104D01*
X101619074Y-110847728D01*
X101301437Y-110698454D01*
X101001805Y-110543854D01*
X100732525Y-110389501D01*
X100702374Y-110370973D01*
X100575562Y-110291619D01*
X100482334Y-110230599D01*
X100417813Y-110183506D01*
X100377123Y-110145935D01*
X100355391Y-110113479D01*
X100347738Y-110081732D01*
X100348729Y-110051371D01*
X100356112Y-109980157D01*
X100642014Y-110167142D01*
X100837185Y-110288090D01*
X101061450Y-110415848D01*
X101301411Y-110543414D01*
X101543673Y-110663789D01*
X101774836Y-110769973D01*
X101886367Y-110817322D01*
X102089755Y-110897612D01*
X102300084Y-110974898D01*
X102509491Y-111046686D01*
X102710114Y-111110485D01*
X102894089Y-111163801D01*
X103053553Y-111204141D01*
X103180643Y-111229012D01*
X103188656Y-111230186D01*
X103370952Y-111275090D01*
X103525220Y-111354479D01*
X103652881Y-111469236D01*
X103721267Y-111561635D01*
X103758045Y-111617901D01*
X103779197Y-111640551D01*
X103792708Y-111633899D01*
X103804807Y-111606753D01*
X103886860Y-111398770D01*
X103972057Y-111185605D01*
X104058645Y-110971422D01*
X104068285Y-110947829D01*
X104908877Y-110947829D01*
X104915850Y-111029336D01*
X104947281Y-111078087D01*
X104952709Y-111081818D01*
X105005067Y-111090297D01*
X105069798Y-111066250D01*
X105137040Y-111015904D01*
X105196931Y-110945487D01*
X105214865Y-110916292D01*
X105262635Y-110829360D01*
X105295335Y-110774817D01*
X105321765Y-110747285D01*
X105350727Y-110741386D01*
X105391019Y-110751741D01*
X105450118Y-110772522D01*
X105519932Y-110799975D01*
X105570612Y-110826864D01*
X105588691Y-110843687D01*
X105589199Y-110877673D01*
X105580805Y-110942127D01*
X105565271Y-111024129D01*
X105562203Y-111038184D01*
X105543243Y-111135795D01*
X105538083Y-111200959D01*
X105546136Y-111243527D01*
X105549522Y-111250652D01*
X105591324Y-111288970D01*
X105650274Y-111292466D01*
X105666236Y-111285135D01*
X106023871Y-111285135D01*
X106042535Y-111339925D01*
X106080850Y-111359680D01*
X106133443Y-111346375D01*
X106194937Y-111301988D01*
X106259959Y-111228495D01*
X106287911Y-111188052D01*
X106313805Y-111156361D01*
X106346803Y-111144458D01*
X106402957Y-111147990D01*
X106424314Y-111151046D01*
X106526997Y-111166444D01*
X106485310Y-111300383D01*
X106460158Y-111382949D01*
X106447979Y-111434242D01*
X106448454Y-111465645D01*
X106461262Y-111488540D01*
X106479486Y-111507693D01*
X106531626Y-111531178D01*
X106596905Y-111516122D01*
X106652827Y-111477964D01*
X106681040Y-111447990D01*
X106704634Y-111407804D01*
X106726519Y-111349339D01*
X106749602Y-111264534D01*
X106750866Y-111258992D01*
X106954595Y-111258992D01*
X106963000Y-111400140D01*
X106995732Y-111523118D01*
X107001302Y-111535993D01*
X107060850Y-111623704D01*
X107142648Y-111686193D01*
X107235989Y-111718916D01*
X107330168Y-111717330D01*
X107382838Y-111697904D01*
X107437252Y-111651850D01*
X107459436Y-111597329D01*
X107450769Y-111545826D01*
X107412631Y-111508827D01*
X107358756Y-111497361D01*
X107294251Y-111482322D01*
X107247845Y-111452682D01*
X107215877Y-111392344D01*
X107203515Y-111302144D01*
X107209489Y-111191721D01*
X107232531Y-111070718D01*
X107271375Y-110948775D01*
X107324751Y-110835533D01*
X107330273Y-110826014D01*
X107382392Y-110766602D01*
X107442186Y-110743188D01*
X107500247Y-110758724D01*
X107512993Y-110768680D01*
X107575573Y-110804118D01*
X107631762Y-110800635D01*
X107672497Y-110763906D01*
X107688712Y-110699610D01*
X107685166Y-110660843D01*
X107649736Y-110580276D01*
X107583479Y-110523732D01*
X107494857Y-110493959D01*
X107392332Y-110493706D01*
X107284366Y-110525722D01*
X107278139Y-110528616D01*
X107191916Y-110592000D01*
X107115354Y-110690583D01*
X107050896Y-110815468D01*
X107000988Y-110957761D01*
X106968073Y-111108567D01*
X106954595Y-111258992D01*
X106750866Y-111258992D01*
X106776791Y-111145321D01*
X106782773Y-111117589D01*
X106816355Y-110901445D01*
X106831078Y-110659651D01*
X106831423Y-110637290D01*
X106831836Y-110518478D01*
X106829032Y-110434570D01*
X106821845Y-110375837D01*
X106809111Y-110332553D01*
X106790654Y-110296613D01*
X106734922Y-110239201D01*
X106667113Y-110221903D01*
X106596156Y-110245401D01*
X106556387Y-110278723D01*
X106530811Y-110313903D01*
X106487860Y-110381895D01*
X106431394Y-110476199D01*
X106365273Y-110590315D01*
X106293358Y-110717745D01*
X106261193Y-110775777D01*
X106175883Y-110932452D01*
X106111625Y-111055152D01*
X106066415Y-111148173D01*
X106038252Y-111215813D01*
X106025135Y-111262368D01*
X106023871Y-111285135D01*
X105666236Y-111285135D01*
X105716626Y-111261992D01*
X105750798Y-111233024D01*
X105787005Y-111179965D01*
X105830100Y-111088720D01*
X105878089Y-110964891D01*
X105928978Y-110814079D01*
X105980776Y-110641886D01*
X106031488Y-110453914D01*
X106039976Y-110420320D01*
X106064846Y-110307535D01*
X106072527Y-110227995D01*
X106061852Y-110173240D01*
X106031657Y-110134809D01*
X105997598Y-110112721D01*
X105944078Y-110099114D01*
X105891484Y-110119095D01*
X105836603Y-110175475D01*
X105776218Y-110271066D01*
X105742120Y-110336114D01*
X105645176Y-110529770D01*
X105535257Y-110488766D01*
X105425338Y-110447763D01*
X105426257Y-110285622D01*
X105416296Y-110147819D01*
X105385007Y-110046843D01*
X105332932Y-109983812D01*
X105268572Y-109960437D01*
X105218140Y-109962914D01*
X105178586Y-109985632D01*
X105146159Y-110034480D01*
X105117103Y-110115349D01*
X105087667Y-110234130D01*
X105084257Y-110249705D01*
X105054459Y-110375165D01*
X105016834Y-110516996D01*
X104978310Y-110649400D01*
X104968544Y-110680529D01*
X104926422Y-110832062D01*
X104908877Y-110947829D01*
X104068285Y-110947829D01*
X104144875Y-110760385D01*
X104228994Y-110556658D01*
X104309252Y-110364405D01*
X104383897Y-110187792D01*
X104451178Y-110030982D01*
X104509345Y-109898140D01*
X104556646Y-109793429D01*
X104591329Y-109721015D01*
X104611645Y-109685062D01*
X104613971Y-109682492D01*
X104671297Y-109649506D01*
X104762208Y-109614024D01*
X104875989Y-109579361D01*
X105001924Y-109548833D01*
X105112249Y-109528339D01*
X105249468Y-109515002D01*
X105418096Y-109511370D01*
X105606077Y-109516801D01*
G37*
D13*
%TO.C,C14*%
X105965580Y-81090000D02*
X105684420Y-81090000D01*
X105965580Y-82110000D02*
X105684420Y-82110000D01*
%TO.C,J3*%
X115510000Y-66490000D02*
X116890000Y-66490000D01*
X115510000Y-67870000D02*
X115510000Y-66490000D01*
X115510000Y-69140000D02*
X115510000Y-117510000D01*
X115510000Y-69140000D02*
X118270000Y-69140000D01*
X115510000Y-117510000D02*
X118270000Y-117510000D01*
X118270000Y-69140000D02*
X118270000Y-117510000D01*
%TO.C,J1*%
X103300000Y-67000000D02*
X103300000Y-65100000D01*
X103300000Y-70900000D02*
X103300000Y-68900000D01*
X112700000Y-65100000D02*
X103300000Y-65100000D01*
X112700000Y-67000000D02*
X112700000Y-65100000D01*
X112700000Y-70900000D02*
X112700000Y-68900000D01*
%TO.C,C7*%
X110692164Y-83140000D02*
X110907836Y-83140000D01*
X110692164Y-83860000D02*
X110907836Y-83860000D01*
%TO.C,R4*%
X109270000Y-90793641D02*
X109270000Y-90486359D01*
X110030000Y-90793641D02*
X110030000Y-90486359D01*
%TO.C,SW1*%
X109430000Y-77930000D02*
X109730000Y-77930000D01*
X109430000Y-82070000D02*
X109430000Y-77930000D01*
X109730000Y-82070000D02*
X109430000Y-82070000D01*
X112270000Y-77930000D02*
X112570000Y-77930000D01*
X112570000Y-77930000D02*
X112570000Y-82070000D01*
X112570000Y-82070000D02*
X112270000Y-82070000D01*
%TO.C,R5*%
X108270000Y-90793641D02*
X108270000Y-90486359D01*
X109030000Y-90793641D02*
X109030000Y-90486359D01*
%TO.C,C3*%
X109740000Y-88627836D02*
X109740000Y-88412164D01*
X110460000Y-88627836D02*
X110460000Y-88412164D01*
%TO.C,R1*%
X111720000Y-87186359D02*
X111720000Y-87493641D01*
X112480000Y-87186359D02*
X112480000Y-87493641D01*
%TO.C,C6*%
X101040000Y-97007836D02*
X101040000Y-96792164D01*
X101760000Y-97007836D02*
X101760000Y-96792164D01*
%TO.C,C11*%
X112340000Y-91077836D02*
X112340000Y-90862164D01*
X113060000Y-91077836D02*
X113060000Y-90862164D01*
%TO.C,U2*%
X104390000Y-77802500D02*
X105390000Y-77802500D01*
X104390000Y-79322500D02*
X104390000Y-77802500D01*
X104440000Y-79322500D02*
X104390000Y-79322500D01*
X106340000Y-79322500D02*
X105560000Y-79322500D01*
X106510000Y-77802500D02*
X107510000Y-77802500D01*
X107510000Y-77802500D02*
X107510000Y-79322500D01*
X107510000Y-79322500D02*
X107460000Y-79322500D01*
X105900000Y-80102500D02*
X105570000Y-79862500D01*
X105900000Y-79622500D01*
X105900000Y-80102500D01*
G36*
X105900000Y-80102500D02*
G01*
X105570000Y-79862500D01*
X105900000Y-79622500D01*
X105900000Y-80102500D01*
G37*
%TO.C,C16*%
X110290000Y-107087836D02*
X110290000Y-106872164D01*
X111010000Y-107087836D02*
X111010000Y-106872164D01*
%TO.C,C12*%
X111390000Y-91077836D02*
X111390000Y-90862164D01*
X112110000Y-91077836D02*
X112110000Y-90862164D01*
%TO.C,C5*%
X107065000Y-87727836D02*
X107065000Y-87512164D01*
X107785000Y-87727836D02*
X107785000Y-87512164D01*
%TO.C,C17*%
X107840000Y-79612164D02*
X107840000Y-79827836D01*
X108560000Y-79612164D02*
X108560000Y-79827836D01*
%TO.C,C8*%
X108040000Y-87727836D02*
X108040000Y-87512164D01*
X108760000Y-87727836D02*
X108760000Y-87512164D01*
%TO.C,C4*%
X103340000Y-92377836D02*
X103340000Y-92162164D01*
X104060000Y-92377836D02*
X104060000Y-92162164D01*
%TD*%
M02*
