%TF.GenerationSoftware,KiCad,Pcbnew,9.0.7*%
%TF.CreationDate,2026-07-20T17:43:14+05:30*%
%TF.ProjectId,HackroDevX,4861636b-726f-4446-9576-582e6b696361,rev?*%
%TF.SameCoordinates,Original*%
%TF.FileFunction,Soldermask,Top*%
%TF.FilePolarity,Negative*%
%FSLAX46Y46*%
G04 Gerber Fmt 4.6, Leading zero omitted, Abs format (unit mm)*
G04 Created by KiCad (PCBNEW 9.0.7) date 2026-07-20 17:43:14*
%MOMM*%
%LPD*%
G01*
G04 APERTURE LIST*
G04 Aperture macros list*
%AMRoundRect*
0 Rectangle with rounded corners*
0 $1 Rounding radius*
0 $2 $3 $4 $5 $6 $7 $8 $9 X,Y pos of 4 corners*
0 Add a 4 corners polygon primitive as box body*
4,1,4,$2,$3,$4,$5,$6,$7,$8,$9,$2,$3,0*
0 Add four circle primitives for the rounded corners*
1,1,$1+$1,$2,$3*
1,1,$1+$1,$4,$5*
1,1,$1+$1,$6,$7*
1,1,$1+$1,$8,$9*
0 Add four rect primitives between the rounded corners*
20,1,$1+$1,$2,$3,$4,$5,0*
20,1,$1+$1,$4,$5,$6,$7,0*
20,1,$1+$1,$6,$7,$8,$9,0*
20,1,$1+$1,$8,$9,$2,$3,0*%
G04 Aperture macros list end*
%ADD10RoundRect,0.135000X-0.135000X-0.185000X0.135000X-0.185000X0.135000X0.185000X-0.135000X0.185000X0*%
%ADD11RoundRect,0.135000X0.135000X0.185000X-0.135000X0.185000X-0.135000X-0.185000X0.135000X-0.185000X0*%
%ADD12R,1.700000X1.700000*%
%ADD13C,1.700000*%
%ADD14RoundRect,0.140000X0.170000X-0.140000X0.170000X0.140000X-0.170000X0.140000X-0.170000X-0.140000X0*%
%ADD15RoundRect,0.250000X0.450000X0.350000X-0.450000X0.350000X-0.450000X-0.350000X0.450000X-0.350000X0*%
%ADD16RoundRect,0.050000X-0.387500X-0.050000X0.387500X-0.050000X0.387500X0.050000X-0.387500X0.050000X0*%
%ADD17RoundRect,0.050000X-0.050000X-0.387500X0.050000X-0.387500X0.050000X0.387500X-0.050000X0.387500X0*%
%ADD18R,3.200000X3.200000*%
%ADD19RoundRect,0.225000X0.225000X0.250000X-0.225000X0.250000X-0.225000X-0.250000X0.225000X-0.250000X0*%
%ADD20RoundRect,0.140000X-0.140000X-0.170000X0.140000X-0.170000X0.140000X0.170000X-0.140000X0.170000X0*%
%ADD21RoundRect,0.140000X-0.170000X0.140000X-0.170000X-0.140000X0.170000X-0.140000X0.170000X0.140000X0*%
%ADD22RoundRect,0.135000X-0.185000X0.135000X-0.185000X-0.135000X0.185000X-0.135000X0.185000X0.135000X0*%
%ADD23RoundRect,0.062500X-0.387500X-0.062500X0.387500X-0.062500X0.387500X0.062500X-0.387500X0.062500X0*%
%ADD24R,0.200000X1.600000*%
%ADD25RoundRect,0.135000X0.185000X-0.135000X0.185000X0.135000X-0.185000X0.135000X-0.185000X-0.135000X0*%
%ADD26C,0.650000*%
%ADD27R,0.600000X1.450000*%
%ADD28R,0.300000X1.450000*%
%ADD29O,1.000000X2.100000*%
%ADD30O,1.000000X1.600000*%
%ADD31RoundRect,0.200000X0.800000X-0.200000X0.800000X0.200000X-0.800000X0.200000X-0.800000X-0.200000X0*%
%ADD32RoundRect,0.150000X0.150000X-0.587500X0.150000X0.587500X-0.150000X0.587500X-0.150000X-0.587500X0*%
G04 APERTURE END LIST*
D10*
%TO.C,R2*%
X104630000Y-87220000D03*
X105650000Y-87220000D03*
%TD*%
D11*
%TO.C,R7*%
X105605000Y-83520000D03*
X104585000Y-83520000D03*
%TD*%
D12*
%TO.C,J2*%
X99110000Y-67870000D03*
D13*
X99110000Y-70410000D03*
X99110000Y-72950000D03*
X99110000Y-75490000D03*
X99110000Y-78030000D03*
X99110000Y-80570000D03*
X99110000Y-83110000D03*
X99110000Y-85650000D03*
X99110000Y-88190000D03*
X99110000Y-90730000D03*
X99110000Y-93270000D03*
X99110000Y-95810000D03*
X99110000Y-98350000D03*
X99110000Y-100890000D03*
X99110000Y-103430000D03*
X99110000Y-105970000D03*
X99110000Y-108510000D03*
X99110000Y-111050000D03*
X99110000Y-113590000D03*
X99110000Y-116130000D03*
%TD*%
D14*
%TO.C,C1*%
X110800000Y-91450000D03*
X110800000Y-90490000D03*
%TD*%
D15*
%TO.C,Y1*%
X109100000Y-106150000D03*
X106900000Y-106150000D03*
X106900000Y-107850000D03*
X109100000Y-107850000D03*
%TD*%
D16*
%TO.C,U1*%
X104562500Y-93650000D03*
X104562500Y-94050000D03*
X104562500Y-94450000D03*
X104562500Y-94850000D03*
X104562500Y-95250000D03*
X104562500Y-95650000D03*
X104562500Y-96050000D03*
X104562500Y-96450000D03*
X104562500Y-96850000D03*
X104562500Y-97250000D03*
X104562500Y-97650000D03*
X104562500Y-98050000D03*
X104562500Y-98450000D03*
X104562500Y-98850000D03*
D17*
X105400000Y-99687500D03*
X105800000Y-99687500D03*
X106200000Y-99687500D03*
X106600000Y-99687500D03*
X107000000Y-99687500D03*
X107400000Y-99687500D03*
X107800000Y-99687500D03*
X108200000Y-99687500D03*
X108600000Y-99687500D03*
X109000000Y-99687500D03*
X109400000Y-99687500D03*
X109800000Y-99687500D03*
X110200000Y-99687500D03*
X110600000Y-99687500D03*
D16*
X111437500Y-98850000D03*
X111437500Y-98450000D03*
X111437500Y-98050000D03*
X111437500Y-97650000D03*
X111437500Y-97250000D03*
X111437500Y-96850000D03*
X111437500Y-96450000D03*
X111437500Y-96050000D03*
X111437500Y-95650000D03*
X111437500Y-95250000D03*
X111437500Y-94850000D03*
X111437500Y-94450000D03*
X111437500Y-94050000D03*
X111437500Y-93650000D03*
D17*
X110600000Y-92812500D03*
X110200000Y-92812500D03*
X109800000Y-92812500D03*
X109400000Y-92812500D03*
X109000000Y-92812500D03*
X108600000Y-92812500D03*
X108200000Y-92812500D03*
X107800000Y-92812500D03*
X107400000Y-92812500D03*
X107000000Y-92812500D03*
X106600000Y-92812500D03*
X106200000Y-92812500D03*
X105800000Y-92812500D03*
X105400000Y-92812500D03*
D18*
X108000000Y-96250000D03*
%TD*%
D12*
%TO.C,J4*%
X105460000Y-116390000D03*
D13*
X108000000Y-116390000D03*
X110540000Y-116390000D03*
%TD*%
D14*
%TO.C,C2*%
X111050000Y-89350000D03*
X111050000Y-88390000D03*
%TD*%
D19*
%TO.C,C13*%
X106400000Y-75200000D03*
X104850000Y-75200000D03*
%TD*%
D20*
%TO.C,C10*%
X113640000Y-97450000D03*
X114600000Y-97450000D03*
%TD*%
D21*
%TO.C,C15*%
X105350000Y-106500000D03*
X105350000Y-107460000D03*
%TD*%
D22*
%TO.C,R6*%
X104750000Y-90590000D03*
X104750000Y-91610000D03*
%TD*%
D23*
%TO.C,U3*%
X104925000Y-84600000D03*
X104925000Y-85100000D03*
X104925000Y-85600000D03*
X104925000Y-86100000D03*
X107775000Y-86100000D03*
X107775000Y-85600000D03*
X107775000Y-85100000D03*
X107775000Y-84600000D03*
D24*
X106350000Y-85350000D03*
%TD*%
D25*
%TO.C,R3*%
X107900000Y-102600000D03*
X107900000Y-101580000D03*
%TD*%
D14*
%TO.C,C9*%
X112700000Y-93380000D03*
X112700000Y-92420000D03*
%TD*%
D19*
%TO.C,C14*%
X106600000Y-81600000D03*
X105050000Y-81600000D03*
%TD*%
D12*
%TO.C,J3*%
X116890000Y-67870000D03*
D13*
X116890000Y-70410000D03*
X116890000Y-72950000D03*
X116890000Y-75490000D03*
X116890000Y-78030000D03*
X116890000Y-80570000D03*
X116890000Y-83110000D03*
X116890000Y-85650000D03*
X116890000Y-88190000D03*
X116890000Y-90730000D03*
X116890000Y-93270000D03*
X116890000Y-95810000D03*
X116890000Y-98350000D03*
X116890000Y-100890000D03*
X116890000Y-103430000D03*
X116890000Y-105970000D03*
X116890000Y-108510000D03*
X116890000Y-111050000D03*
X116890000Y-113590000D03*
X116890000Y-116130000D03*
%TD*%
D26*
%TO.C,J1*%
X110890000Y-71600000D03*
X105110000Y-71600000D03*
D27*
X111250000Y-73045000D03*
X110450000Y-73045000D03*
D28*
X109250000Y-73045000D03*
X108250000Y-73045000D03*
X107750000Y-73045000D03*
X106750000Y-73045000D03*
D27*
X105550000Y-73045000D03*
X104750000Y-73045000D03*
X104750000Y-73045000D03*
X105550000Y-73045000D03*
D28*
X106250000Y-73045000D03*
X107250000Y-73045000D03*
X108750000Y-73045000D03*
X109750000Y-73045000D03*
D27*
X110450000Y-73045000D03*
X111250000Y-73045000D03*
D29*
X112320000Y-72130000D03*
D30*
X112320000Y-67950000D03*
D29*
X103680000Y-72130000D03*
D30*
X103680000Y-67950000D03*
%TD*%
D20*
%TO.C,C7*%
X110320000Y-83500000D03*
X111280000Y-83500000D03*
%TD*%
D25*
%TO.C,R4*%
X109650000Y-91150000D03*
X109650000Y-90130000D03*
%TD*%
D31*
%TO.C,SW1*%
X111000000Y-82100000D03*
X111000000Y-77900000D03*
%TD*%
D25*
%TO.C,R5*%
X108650000Y-91150000D03*
X108650000Y-90130000D03*
%TD*%
D14*
%TO.C,C3*%
X110100000Y-89000000D03*
X110100000Y-88040000D03*
%TD*%
D22*
%TO.C,R1*%
X112100000Y-86830000D03*
X112100000Y-87850000D03*
%TD*%
D14*
%TO.C,C6*%
X101400000Y-97380000D03*
X101400000Y-96420000D03*
%TD*%
%TO.C,C11*%
X112700000Y-91450000D03*
X112700000Y-90490000D03*
%TD*%
D32*
%TO.C,U2*%
X105000000Y-79500000D03*
X106900000Y-79500000D03*
X105950000Y-77625000D03*
%TD*%
D14*
%TO.C,C16*%
X110650000Y-107460000D03*
X110650000Y-106500000D03*
%TD*%
%TO.C,C12*%
X111750000Y-91450000D03*
X111750000Y-90490000D03*
%TD*%
%TO.C,C5*%
X107425000Y-88100000D03*
X107425000Y-87140000D03*
%TD*%
D21*
%TO.C,C17*%
X108200000Y-79240000D03*
X108200000Y-80200000D03*
%TD*%
D14*
%TO.C,C8*%
X108400000Y-88100000D03*
X108400000Y-87140000D03*
%TD*%
%TO.C,C4*%
X103700000Y-92750000D03*
X103700000Y-91790000D03*
%TD*%
M02*
