M48
; DRILL file {KiCad 9.0.7} date 2026-07-20T17:43:17+0530
; FORMAT={-:-/ absolute / metric / decimal}
; #@! TF.CreationDate,2026-07-20T17:43:17+05:30
; #@! TF.GenerationSoftware,Kicad,Pcbnew,9.0.7
; #@! TF.FileFunction,Plated,1,2,PTH
FMAT,2
METRIC
; #@! TA.AperFunction,Plated,PTH,ViaDrill
T1C0.300
; #@! TA.AperFunction,Plated,PTH,ComponentDrill
T2C0.600
; #@! TA.AperFunction,Plated,PTH,ComponentDrill
T3C1.000
%
G90
G05
T1
X98.3Y-71.7
X98.4Y-109.8
X98.4Y-112.3
X101.4Y-96.417
X101.4Y-97.361
X102.45Y-111.15
X103.689Y-76.6
X103.689Y-82.9
X103.7Y-91.79
X104.381Y-76.198
X104.45Y-112.9
X104.585Y-83.52
X104.65Y-87.22
X104.777Y-93.15
X104.984Y-91.376
X105.3Y-88.35
X105.377Y-94.048
X105.6Y-89.651
X105.694Y-97.039
X105.95Y-77.625
X106.0Y-96.3
X106.4Y-75.2
X106.611Y-93.768
X106.743Y-78.143
X106.8Y-82.9
X106.927Y-85.832
X107.0Y-98.65
X107.033Y-85.1
X107.2Y-89.45
X107.775Y-84.535
X108.0Y-89.398
X108.2Y-81.55
X108.201Y-98.601
X108.4Y-87.14
X108.5Y-113.4
X108.599Y-102.091
X109.214Y-98.35
X110.0Y-76.5
X110.0Y-98.5
X110.099Y-94.6
X110.32Y-83.5
X110.4Y-92.8
X110.45Y-73.045
X110.5Y-82.1
X110.65Y-107.46
X110.8Y-91.45
X110.85Y-108.5
X110.867Y-87.121
X111.045Y-89.409
X112.079Y-86.85
X112.111Y-91.45
X112.261Y-88.717
X112.4Y-108.25
X112.6Y-104.0
X112.7Y-92.42
X112.711Y-90.5
X113.65Y-101.65
X114.6Y-97.45
X114.725Y-98.625
X115.1Y-73.2
X115.189Y-78.039
X115.325Y-80.85
X115.916Y-94.205
X117.4Y-92.0
X117.7Y-97.0
X117.7Y-99.6
X117.7Y-109.8
X117.7Y-112.3
T3
X99.11Y-67.87
X99.11Y-70.41
X99.11Y-72.95
X99.11Y-75.49
X99.11Y-78.03
X99.11Y-80.57
X99.11Y-83.11
X99.11Y-85.65
X99.11Y-88.19
X99.11Y-90.73
X99.11Y-93.27
X99.11Y-95.81
X99.11Y-98.35
X99.11Y-100.89
X99.11Y-103.43
X99.11Y-105.97
X99.11Y-108.51
X99.11Y-111.05
X99.11Y-113.59
X99.11Y-116.13
X105.46Y-116.39
X108.0Y-116.39
X110.54Y-116.39
X116.89Y-67.87
X116.89Y-70.41
X116.89Y-72.95
X116.89Y-75.49
X116.89Y-78.03
X116.89Y-80.57
X116.89Y-83.11
X116.89Y-85.65
X116.89Y-88.19
X116.89Y-90.73
X116.89Y-93.27
X116.89Y-95.81
X116.89Y-98.35
X116.89Y-100.89
X116.89Y-103.43
X116.89Y-105.97
X116.89Y-108.51
X116.89Y-111.05
X116.89Y-113.59
X116.89Y-116.13
T2
X103.68Y-68.25G85X103.68Y-67.65
G05
X103.68Y-72.68G85X103.68Y-71.58
G05
X112.32Y-68.25G85X112.32Y-67.65
G05
X112.32Y-72.68G85X112.32Y-71.58
G05
M30
