%TF.GenerationSoftware,KiCad,Pcbnew,9.0.7*%
%TF.CreationDate,2026-07-20T17:43:14+05:30*%
%TF.ProjectId,HackroDevX,4861636b-726f-4446-9576-582e6b696361,rev?*%
%TF.SameCoordinates,Original*%
%TF.FileFunction,Soldermask,Bot*%
%TF.FilePolarity,Negative*%
%FSLAX46Y46*%
G04 Gerber Fmt 4.6, Leading zero omitted, Abs format (unit mm)*
G04 Created by KiCad (PCBNEW 9.0.7) date 2026-07-20 17:43:14*
%MOMM*%
%LPD*%
G01*
G04 APERTURE LIST*
%ADD10R,1.700000X1.700000*%
%ADD11C,1.700000*%
%ADD12C,0.650000*%
%ADD13O,1.000000X2.100000*%
%ADD14O,1.000000X1.600000*%
G04 APERTURE END LIST*
D10*
%TO.C,J2*%
X99110000Y-67870000D03*
D11*
X99110000Y-70410000D03*
X99110000Y-72950000D03*
X99110000Y-75490000D03*
X99110000Y-78030000D03*
X99110000Y-80570000D03*
X99110000Y-83110000D03*
X99110000Y-85650000D03*
X99110000Y-88190000D03*
X99110000Y-90730000D03*
X99110000Y-93270000D03*
X99110000Y-95810000D03*
X99110000Y-98350000D03*
X99110000Y-100890000D03*
X99110000Y-103430000D03*
X99110000Y-105970000D03*
X99110000Y-108510000D03*
X99110000Y-111050000D03*
X99110000Y-113590000D03*
X99110000Y-116130000D03*
%TD*%
D10*
%TO.C,J4*%
X105460000Y-116390000D03*
D11*
X108000000Y-116390000D03*
X110540000Y-116390000D03*
%TD*%
D10*
%TO.C,J3*%
X116890000Y-67870000D03*
D11*
X116890000Y-70410000D03*
X116890000Y-72950000D03*
X116890000Y-75490000D03*
X116890000Y-78030000D03*
X116890000Y-80570000D03*
X116890000Y-83110000D03*
X116890000Y-85650000D03*
X116890000Y-88190000D03*
X116890000Y-90730000D03*
X116890000Y-93270000D03*
X116890000Y-95810000D03*
X116890000Y-98350000D03*
X116890000Y-100890000D03*
X116890000Y-103430000D03*
X116890000Y-105970000D03*
X116890000Y-108510000D03*
X116890000Y-111050000D03*
X116890000Y-113590000D03*
X116890000Y-116130000D03*
%TD*%
D12*
%TO.C,J1*%
X110890000Y-71600000D03*
X105110000Y-71600000D03*
D13*
X112320000Y-72130000D03*
D14*
X112320000Y-67950000D03*
D13*
X103680000Y-72130000D03*
D14*
X103680000Y-67950000D03*
%TD*%
M02*
