%TF.GenerationSoftware,KiCad,Pcbnew,9.0.7*%
%TF.CreationDate,2026-07-20T17:43:14+05:30*%
%TF.ProjectId,HackroDevX,4861636b-726f-4446-9576-582e6b696361,rev?*%
%TF.SameCoordinates,Original*%
%TF.FileFunction,Legend,Bot*%
%TF.FilePolarity,Positive*%
%FSLAX46Y46*%
G04 Gerber Fmt 4.6, Leading zero omitted, Abs format (unit mm)*
G04 Created by KiCad (PCBNEW 9.0.7) date 2026-07-20 17:43:14*
%MOMM*%
%LPD*%
G01*
G04 APERTURE LIST*
%ADD10C,0.100000*%
G04 APERTURE END LIST*
D10*
X108380952Y-113939919D02*
X108428571Y-113916109D01*
X108428571Y-113916109D02*
X108500000Y-113916109D01*
X108500000Y-113916109D02*
X108571428Y-113939919D01*
X108571428Y-113939919D02*
X108619047Y-113987538D01*
X108619047Y-113987538D02*
X108642857Y-114035157D01*
X108642857Y-114035157D02*
X108666666Y-114130395D01*
X108666666Y-114130395D02*
X108666666Y-114201823D01*
X108666666Y-114201823D02*
X108642857Y-114297061D01*
X108642857Y-114297061D02*
X108619047Y-114344680D01*
X108619047Y-114344680D02*
X108571428Y-114392300D01*
X108571428Y-114392300D02*
X108500000Y-114416109D01*
X108500000Y-114416109D02*
X108452381Y-114416109D01*
X108452381Y-114416109D02*
X108380952Y-114392300D01*
X108380952Y-114392300D02*
X108357143Y-114368490D01*
X108357143Y-114368490D02*
X108357143Y-114201823D01*
X108357143Y-114201823D02*
X108452381Y-114201823D01*
X108142857Y-114416109D02*
X108142857Y-113916109D01*
X108142857Y-113916109D02*
X107857143Y-114416109D01*
X107857143Y-114416109D02*
X107857143Y-113916109D01*
X107619047Y-114416109D02*
X107619047Y-113916109D01*
X107619047Y-113916109D02*
X107499999Y-113916109D01*
X107499999Y-113916109D02*
X107428571Y-113939919D01*
X107428571Y-113939919D02*
X107380952Y-113987538D01*
X107380952Y-113987538D02*
X107357142Y-114035157D01*
X107357142Y-114035157D02*
X107333333Y-114130395D01*
X107333333Y-114130395D02*
X107333333Y-114201823D01*
X107333333Y-114201823D02*
X107357142Y-114297061D01*
X107357142Y-114297061D02*
X107380952Y-114344680D01*
X107380952Y-114344680D02*
X107428571Y-114392300D01*
X107428571Y-114392300D02*
X107499999Y-114416109D01*
X107499999Y-114416109D02*
X107619047Y-114416109D01*
X102190952Y-110799919D02*
X102238571Y-110776109D01*
X102238571Y-110776109D02*
X102310000Y-110776109D01*
X102310000Y-110776109D02*
X102381428Y-110799919D01*
X102381428Y-110799919D02*
X102429047Y-110847538D01*
X102429047Y-110847538D02*
X102452857Y-110895157D01*
X102452857Y-110895157D02*
X102476666Y-110990395D01*
X102476666Y-110990395D02*
X102476666Y-111061823D01*
X102476666Y-111061823D02*
X102452857Y-111157061D01*
X102452857Y-111157061D02*
X102429047Y-111204680D01*
X102429047Y-111204680D02*
X102381428Y-111252300D01*
X102381428Y-111252300D02*
X102310000Y-111276109D01*
X102310000Y-111276109D02*
X102262381Y-111276109D01*
X102262381Y-111276109D02*
X102190952Y-111252300D01*
X102190952Y-111252300D02*
X102167143Y-111228490D01*
X102167143Y-111228490D02*
X102167143Y-111061823D01*
X102167143Y-111061823D02*
X102262381Y-111061823D01*
X101952857Y-111276109D02*
X101952857Y-110776109D01*
X101952857Y-110776109D02*
X101667143Y-111276109D01*
X101667143Y-111276109D02*
X101667143Y-110776109D01*
X101429047Y-111276109D02*
X101429047Y-110776109D01*
X101429047Y-110776109D02*
X101309999Y-110776109D01*
X101309999Y-110776109D02*
X101238571Y-110799919D01*
X101238571Y-110799919D02*
X101190952Y-110847538D01*
X101190952Y-110847538D02*
X101167142Y-110895157D01*
X101167142Y-110895157D02*
X101143333Y-110990395D01*
X101143333Y-110990395D02*
X101143333Y-111061823D01*
X101143333Y-111061823D02*
X101167142Y-111157061D01*
X101167142Y-111157061D02*
X101190952Y-111204680D01*
X101190952Y-111204680D02*
X101238571Y-111252300D01*
X101238571Y-111252300D02*
X101309999Y-111276109D01*
X101309999Y-111276109D02*
X101429047Y-111276109D01*
X115166189Y-74837433D02*
X115213808Y-74813623D01*
X115213808Y-74813623D02*
X115285237Y-74813623D01*
X115285237Y-74813623D02*
X115356665Y-74837433D01*
X115356665Y-74837433D02*
X115404284Y-74885052D01*
X115404284Y-74885052D02*
X115428094Y-74932671D01*
X115428094Y-74932671D02*
X115451903Y-75027909D01*
X115451903Y-75027909D02*
X115451903Y-75099337D01*
X115451903Y-75099337D02*
X115428094Y-75194575D01*
X115428094Y-75194575D02*
X115404284Y-75242194D01*
X115404284Y-75242194D02*
X115356665Y-75289814D01*
X115356665Y-75289814D02*
X115285237Y-75313623D01*
X115285237Y-75313623D02*
X115237618Y-75313623D01*
X115237618Y-75313623D02*
X115166189Y-75289814D01*
X115166189Y-75289814D02*
X115142380Y-75266004D01*
X115142380Y-75266004D02*
X115142380Y-75099337D01*
X115142380Y-75099337D02*
X115237618Y-75099337D01*
X114928094Y-75313623D02*
X114928094Y-74813623D01*
X114928094Y-74813623D02*
X114737618Y-74813623D01*
X114737618Y-74813623D02*
X114689999Y-74837433D01*
X114689999Y-74837433D02*
X114666189Y-74861242D01*
X114666189Y-74861242D02*
X114642380Y-74908861D01*
X114642380Y-74908861D02*
X114642380Y-74980290D01*
X114642380Y-74980290D02*
X114666189Y-75027909D01*
X114666189Y-75027909D02*
X114689999Y-75051718D01*
X114689999Y-75051718D02*
X114737618Y-75075528D01*
X114737618Y-75075528D02*
X114928094Y-75075528D01*
X114428094Y-75313623D02*
X114428094Y-74813623D01*
X114094761Y-74813623D02*
X113999523Y-74813623D01*
X113999523Y-74813623D02*
X113951904Y-74837433D01*
X113951904Y-74837433D02*
X113904285Y-74885052D01*
X113904285Y-74885052D02*
X113880475Y-74980290D01*
X113880475Y-74980290D02*
X113880475Y-75146956D01*
X113880475Y-75146956D02*
X113904285Y-75242194D01*
X113904285Y-75242194D02*
X113951904Y-75289814D01*
X113951904Y-75289814D02*
X113999523Y-75313623D01*
X113999523Y-75313623D02*
X114094761Y-75313623D01*
X114094761Y-75313623D02*
X114142380Y-75289814D01*
X114142380Y-75289814D02*
X114189999Y-75242194D01*
X114189999Y-75242194D02*
X114213808Y-75146956D01*
X114213808Y-75146956D02*
X114213808Y-74980290D01*
X114213808Y-74980290D02*
X114189999Y-74885052D01*
X114189999Y-74885052D02*
X114142380Y-74837433D01*
X114142380Y-74837433D02*
X114094761Y-74813623D01*
X113689998Y-74861242D02*
X113666189Y-74837433D01*
X113666189Y-74837433D02*
X113618570Y-74813623D01*
X113618570Y-74813623D02*
X113499522Y-74813623D01*
X113499522Y-74813623D02*
X113451903Y-74837433D01*
X113451903Y-74837433D02*
X113428094Y-74861242D01*
X113428094Y-74861242D02*
X113404284Y-74908861D01*
X113404284Y-74908861D02*
X113404284Y-74956480D01*
X113404284Y-74956480D02*
X113428094Y-75027909D01*
X113428094Y-75027909D02*
X113713808Y-75313623D01*
X113713808Y-75313623D02*
X113404284Y-75313623D01*
X113118570Y-75027909D02*
X113166189Y-75004099D01*
X113166189Y-75004099D02*
X113189999Y-74980290D01*
X113189999Y-74980290D02*
X113213808Y-74932671D01*
X113213808Y-74932671D02*
X113213808Y-74908861D01*
X113213808Y-74908861D02*
X113189999Y-74861242D01*
X113189999Y-74861242D02*
X113166189Y-74837433D01*
X113166189Y-74837433D02*
X113118570Y-74813623D01*
X113118570Y-74813623D02*
X113023332Y-74813623D01*
X113023332Y-74813623D02*
X112975713Y-74837433D01*
X112975713Y-74837433D02*
X112951904Y-74861242D01*
X112951904Y-74861242D02*
X112928094Y-74908861D01*
X112928094Y-74908861D02*
X112928094Y-74932671D01*
X112928094Y-74932671D02*
X112951904Y-74980290D01*
X112951904Y-74980290D02*
X112975713Y-75004099D01*
X112975713Y-75004099D02*
X113023332Y-75027909D01*
X113023332Y-75027909D02*
X113118570Y-75027909D01*
X113118570Y-75027909D02*
X113166189Y-75051718D01*
X113166189Y-75051718D02*
X113189999Y-75075528D01*
X113189999Y-75075528D02*
X113213808Y-75123147D01*
X113213808Y-75123147D02*
X113213808Y-75218385D01*
X113213808Y-75218385D02*
X113189999Y-75266004D01*
X113189999Y-75266004D02*
X113166189Y-75289814D01*
X113166189Y-75289814D02*
X113118570Y-75313623D01*
X113118570Y-75313623D02*
X113023332Y-75313623D01*
X113023332Y-75313623D02*
X112975713Y-75289814D01*
X112975713Y-75289814D02*
X112951904Y-75266004D01*
X112951904Y-75266004D02*
X112928094Y-75218385D01*
X112928094Y-75218385D02*
X112928094Y-75123147D01*
X112928094Y-75123147D02*
X112951904Y-75075528D01*
X112951904Y-75075528D02*
X112975713Y-75051718D01*
X112975713Y-75051718D02*
X113023332Y-75027909D01*
X114928094Y-75594786D02*
X115356665Y-76237643D01*
X114785236Y-75975738D02*
X114547141Y-75975738D01*
X114832855Y-76118595D02*
X114666189Y-75618595D01*
X114666189Y-75618595D02*
X114499522Y-76118595D01*
X114332856Y-76118595D02*
X114332856Y-75618595D01*
X114332856Y-75618595D02*
X114213808Y-75618595D01*
X114213808Y-75618595D02*
X114142380Y-75642405D01*
X114142380Y-75642405D02*
X114094761Y-75690024D01*
X114094761Y-75690024D02*
X114070951Y-75737643D01*
X114070951Y-75737643D02*
X114047142Y-75832881D01*
X114047142Y-75832881D02*
X114047142Y-75904309D01*
X114047142Y-75904309D02*
X114070951Y-75999547D01*
X114070951Y-75999547D02*
X114094761Y-76047166D01*
X114094761Y-76047166D02*
X114142380Y-76094786D01*
X114142380Y-76094786D02*
X114213808Y-76118595D01*
X114213808Y-76118595D02*
X114332856Y-76118595D01*
X113547142Y-76070976D02*
X113570951Y-76094786D01*
X113570951Y-76094786D02*
X113642380Y-76118595D01*
X113642380Y-76118595D02*
X113689999Y-76118595D01*
X113689999Y-76118595D02*
X113761427Y-76094786D01*
X113761427Y-76094786D02*
X113809046Y-76047166D01*
X113809046Y-76047166D02*
X113832856Y-75999547D01*
X113832856Y-75999547D02*
X113856665Y-75904309D01*
X113856665Y-75904309D02*
X113856665Y-75832881D01*
X113856665Y-75832881D02*
X113832856Y-75737643D01*
X113832856Y-75737643D02*
X113809046Y-75690024D01*
X113809046Y-75690024D02*
X113761427Y-75642405D01*
X113761427Y-75642405D02*
X113689999Y-75618595D01*
X113689999Y-75618595D02*
X113642380Y-75618595D01*
X113642380Y-75618595D02*
X113570951Y-75642405D01*
X113570951Y-75642405D02*
X113547142Y-75666214D01*
X113356665Y-75666214D02*
X113332856Y-75642405D01*
X113332856Y-75642405D02*
X113285237Y-75618595D01*
X113285237Y-75618595D02*
X113166189Y-75618595D01*
X113166189Y-75618595D02*
X113118570Y-75642405D01*
X113118570Y-75642405D02*
X113094761Y-75666214D01*
X113094761Y-75666214D02*
X113070951Y-75713833D01*
X113070951Y-75713833D02*
X113070951Y-75761452D01*
X113070951Y-75761452D02*
X113094761Y-75832881D01*
X113094761Y-75832881D02*
X113380475Y-76118595D01*
X113380475Y-76118595D02*
X113070951Y-76118595D01*
X102786189Y-80319919D02*
X102833808Y-80296109D01*
X102833808Y-80296109D02*
X102905237Y-80296109D01*
X102905237Y-80296109D02*
X102976665Y-80319919D01*
X102976665Y-80319919D02*
X103024284Y-80367538D01*
X103024284Y-80367538D02*
X103048094Y-80415157D01*
X103048094Y-80415157D02*
X103071903Y-80510395D01*
X103071903Y-80510395D02*
X103071903Y-80581823D01*
X103071903Y-80581823D02*
X103048094Y-80677061D01*
X103048094Y-80677061D02*
X103024284Y-80724680D01*
X103024284Y-80724680D02*
X102976665Y-80772300D01*
X102976665Y-80772300D02*
X102905237Y-80796109D01*
X102905237Y-80796109D02*
X102857618Y-80796109D01*
X102857618Y-80796109D02*
X102786189Y-80772300D01*
X102786189Y-80772300D02*
X102762380Y-80748490D01*
X102762380Y-80748490D02*
X102762380Y-80581823D01*
X102762380Y-80581823D02*
X102857618Y-80581823D01*
X102548094Y-80796109D02*
X102548094Y-80296109D01*
X102548094Y-80296109D02*
X102357618Y-80296109D01*
X102357618Y-80296109D02*
X102309999Y-80319919D01*
X102309999Y-80319919D02*
X102286189Y-80343728D01*
X102286189Y-80343728D02*
X102262380Y-80391347D01*
X102262380Y-80391347D02*
X102262380Y-80462776D01*
X102262380Y-80462776D02*
X102286189Y-80510395D01*
X102286189Y-80510395D02*
X102309999Y-80534204D01*
X102309999Y-80534204D02*
X102357618Y-80558014D01*
X102357618Y-80558014D02*
X102548094Y-80558014D01*
X102048094Y-80796109D02*
X102048094Y-80296109D01*
X101714761Y-80296109D02*
X101619523Y-80296109D01*
X101619523Y-80296109D02*
X101571904Y-80319919D01*
X101571904Y-80319919D02*
X101524285Y-80367538D01*
X101524285Y-80367538D02*
X101500475Y-80462776D01*
X101500475Y-80462776D02*
X101500475Y-80629442D01*
X101500475Y-80629442D02*
X101524285Y-80724680D01*
X101524285Y-80724680D02*
X101571904Y-80772300D01*
X101571904Y-80772300D02*
X101619523Y-80796109D01*
X101619523Y-80796109D02*
X101714761Y-80796109D01*
X101714761Y-80796109D02*
X101762380Y-80772300D01*
X101762380Y-80772300D02*
X101809999Y-80724680D01*
X101809999Y-80724680D02*
X101833808Y-80629442D01*
X101833808Y-80629442D02*
X101833808Y-80462776D01*
X101833808Y-80462776D02*
X101809999Y-80367538D01*
X101809999Y-80367538D02*
X101762380Y-80319919D01*
X101762380Y-80319919D02*
X101714761Y-80296109D01*
X101190951Y-80296109D02*
X101143332Y-80296109D01*
X101143332Y-80296109D02*
X101095713Y-80319919D01*
X101095713Y-80319919D02*
X101071903Y-80343728D01*
X101071903Y-80343728D02*
X101048094Y-80391347D01*
X101048094Y-80391347D02*
X101024284Y-80486585D01*
X101024284Y-80486585D02*
X101024284Y-80605633D01*
X101024284Y-80605633D02*
X101048094Y-80700871D01*
X101048094Y-80700871D02*
X101071903Y-80748490D01*
X101071903Y-80748490D02*
X101095713Y-80772300D01*
X101095713Y-80772300D02*
X101143332Y-80796109D01*
X101143332Y-80796109D02*
X101190951Y-80796109D01*
X101190951Y-80796109D02*
X101238570Y-80772300D01*
X101238570Y-80772300D02*
X101262379Y-80748490D01*
X101262379Y-80748490D02*
X101286189Y-80700871D01*
X101286189Y-80700871D02*
X101309998Y-80605633D01*
X101309998Y-80605633D02*
X101309998Y-80486585D01*
X101309998Y-80486585D02*
X101286189Y-80391347D01*
X101286189Y-80391347D02*
X101262379Y-80343728D01*
X101262379Y-80343728D02*
X101238570Y-80319919D01*
X101238570Y-80319919D02*
X101190951Y-80296109D01*
X100595713Y-80462776D02*
X100595713Y-80796109D01*
X100714761Y-80272300D02*
X100833808Y-80629442D01*
X100833808Y-80629442D02*
X100524285Y-80629442D01*
X102190952Y-98099919D02*
X102238571Y-98076109D01*
X102238571Y-98076109D02*
X102310000Y-98076109D01*
X102310000Y-98076109D02*
X102381428Y-98099919D01*
X102381428Y-98099919D02*
X102429047Y-98147538D01*
X102429047Y-98147538D02*
X102452857Y-98195157D01*
X102452857Y-98195157D02*
X102476666Y-98290395D01*
X102476666Y-98290395D02*
X102476666Y-98361823D01*
X102476666Y-98361823D02*
X102452857Y-98457061D01*
X102452857Y-98457061D02*
X102429047Y-98504680D01*
X102429047Y-98504680D02*
X102381428Y-98552300D01*
X102381428Y-98552300D02*
X102310000Y-98576109D01*
X102310000Y-98576109D02*
X102262381Y-98576109D01*
X102262381Y-98576109D02*
X102190952Y-98552300D01*
X102190952Y-98552300D02*
X102167143Y-98528490D01*
X102167143Y-98528490D02*
X102167143Y-98361823D01*
X102167143Y-98361823D02*
X102262381Y-98361823D01*
X101952857Y-98576109D02*
X101952857Y-98076109D01*
X101952857Y-98076109D02*
X101667143Y-98576109D01*
X101667143Y-98576109D02*
X101667143Y-98076109D01*
X101429047Y-98576109D02*
X101429047Y-98076109D01*
X101429047Y-98076109D02*
X101309999Y-98076109D01*
X101309999Y-98076109D02*
X101238571Y-98099919D01*
X101238571Y-98099919D02*
X101190952Y-98147538D01*
X101190952Y-98147538D02*
X101167142Y-98195157D01*
X101167142Y-98195157D02*
X101143333Y-98290395D01*
X101143333Y-98290395D02*
X101143333Y-98361823D01*
X101143333Y-98361823D02*
X101167142Y-98457061D01*
X101167142Y-98457061D02*
X101190952Y-98504680D01*
X101190952Y-98504680D02*
X101238571Y-98552300D01*
X101238571Y-98552300D02*
X101309999Y-98576109D01*
X101309999Y-98576109D02*
X101429047Y-98576109D01*
X115166189Y-79917433D02*
X115213808Y-79893623D01*
X115213808Y-79893623D02*
X115285237Y-79893623D01*
X115285237Y-79893623D02*
X115356665Y-79917433D01*
X115356665Y-79917433D02*
X115404284Y-79965052D01*
X115404284Y-79965052D02*
X115428094Y-80012671D01*
X115428094Y-80012671D02*
X115451903Y-80107909D01*
X115451903Y-80107909D02*
X115451903Y-80179337D01*
X115451903Y-80179337D02*
X115428094Y-80274575D01*
X115428094Y-80274575D02*
X115404284Y-80322194D01*
X115404284Y-80322194D02*
X115356665Y-80369814D01*
X115356665Y-80369814D02*
X115285237Y-80393623D01*
X115285237Y-80393623D02*
X115237618Y-80393623D01*
X115237618Y-80393623D02*
X115166189Y-80369814D01*
X115166189Y-80369814D02*
X115142380Y-80346004D01*
X115142380Y-80346004D02*
X115142380Y-80179337D01*
X115142380Y-80179337D02*
X115237618Y-80179337D01*
X114928094Y-80393623D02*
X114928094Y-79893623D01*
X114928094Y-79893623D02*
X114737618Y-79893623D01*
X114737618Y-79893623D02*
X114689999Y-79917433D01*
X114689999Y-79917433D02*
X114666189Y-79941242D01*
X114666189Y-79941242D02*
X114642380Y-79988861D01*
X114642380Y-79988861D02*
X114642380Y-80060290D01*
X114642380Y-80060290D02*
X114666189Y-80107909D01*
X114666189Y-80107909D02*
X114689999Y-80131718D01*
X114689999Y-80131718D02*
X114737618Y-80155528D01*
X114737618Y-80155528D02*
X114928094Y-80155528D01*
X114428094Y-80393623D02*
X114428094Y-79893623D01*
X114094761Y-79893623D02*
X113999523Y-79893623D01*
X113999523Y-79893623D02*
X113951904Y-79917433D01*
X113951904Y-79917433D02*
X113904285Y-79965052D01*
X113904285Y-79965052D02*
X113880475Y-80060290D01*
X113880475Y-80060290D02*
X113880475Y-80226956D01*
X113880475Y-80226956D02*
X113904285Y-80322194D01*
X113904285Y-80322194D02*
X113951904Y-80369814D01*
X113951904Y-80369814D02*
X113999523Y-80393623D01*
X113999523Y-80393623D02*
X114094761Y-80393623D01*
X114094761Y-80393623D02*
X114142380Y-80369814D01*
X114142380Y-80369814D02*
X114189999Y-80322194D01*
X114189999Y-80322194D02*
X114213808Y-80226956D01*
X114213808Y-80226956D02*
X114213808Y-80060290D01*
X114213808Y-80060290D02*
X114189999Y-79965052D01*
X114189999Y-79965052D02*
X114142380Y-79917433D01*
X114142380Y-79917433D02*
X114094761Y-79893623D01*
X113689998Y-79941242D02*
X113666189Y-79917433D01*
X113666189Y-79917433D02*
X113618570Y-79893623D01*
X113618570Y-79893623D02*
X113499522Y-79893623D01*
X113499522Y-79893623D02*
X113451903Y-79917433D01*
X113451903Y-79917433D02*
X113428094Y-79941242D01*
X113428094Y-79941242D02*
X113404284Y-79988861D01*
X113404284Y-79988861D02*
X113404284Y-80036480D01*
X113404284Y-80036480D02*
X113428094Y-80107909D01*
X113428094Y-80107909D02*
X113713808Y-80393623D01*
X113713808Y-80393623D02*
X113404284Y-80393623D01*
X113237618Y-79893623D02*
X112904285Y-79893623D01*
X112904285Y-79893623D02*
X113118570Y-80393623D01*
X114928094Y-80674786D02*
X115356665Y-81317643D01*
X114785236Y-81055738D02*
X114547141Y-81055738D01*
X114832855Y-81198595D02*
X114666189Y-80698595D01*
X114666189Y-80698595D02*
X114499522Y-81198595D01*
X114332856Y-81198595D02*
X114332856Y-80698595D01*
X114332856Y-80698595D02*
X114213808Y-80698595D01*
X114213808Y-80698595D02*
X114142380Y-80722405D01*
X114142380Y-80722405D02*
X114094761Y-80770024D01*
X114094761Y-80770024D02*
X114070951Y-80817643D01*
X114070951Y-80817643D02*
X114047142Y-80912881D01*
X114047142Y-80912881D02*
X114047142Y-80984309D01*
X114047142Y-80984309D02*
X114070951Y-81079547D01*
X114070951Y-81079547D02*
X114094761Y-81127166D01*
X114094761Y-81127166D02*
X114142380Y-81174786D01*
X114142380Y-81174786D02*
X114213808Y-81198595D01*
X114213808Y-81198595D02*
X114332856Y-81198595D01*
X113547142Y-81150976D02*
X113570951Y-81174786D01*
X113570951Y-81174786D02*
X113642380Y-81198595D01*
X113642380Y-81198595D02*
X113689999Y-81198595D01*
X113689999Y-81198595D02*
X113761427Y-81174786D01*
X113761427Y-81174786D02*
X113809046Y-81127166D01*
X113809046Y-81127166D02*
X113832856Y-81079547D01*
X113832856Y-81079547D02*
X113856665Y-80984309D01*
X113856665Y-80984309D02*
X113856665Y-80912881D01*
X113856665Y-80912881D02*
X113832856Y-80817643D01*
X113832856Y-80817643D02*
X113809046Y-80770024D01*
X113809046Y-80770024D02*
X113761427Y-80722405D01*
X113761427Y-80722405D02*
X113689999Y-80698595D01*
X113689999Y-80698595D02*
X113642380Y-80698595D01*
X113642380Y-80698595D02*
X113570951Y-80722405D01*
X113570951Y-80722405D02*
X113547142Y-80746214D01*
X113070951Y-81198595D02*
X113356665Y-81198595D01*
X113213808Y-81198595D02*
X113213808Y-80698595D01*
X113213808Y-80698595D02*
X113261427Y-80770024D01*
X113261427Y-80770024D02*
X113309046Y-80817643D01*
X113309046Y-80817643D02*
X113356665Y-80841452D01*
G36*
X107170000Y-98356130D02*
G01*
X109155205Y-98356130D01*
X109155205Y-98077449D01*
X107170000Y-98077449D01*
X107170000Y-98356130D01*
G37*
G36*
X107170000Y-99484654D02*
G01*
X109155205Y-99484654D01*
X109155205Y-99205973D01*
X107170000Y-99205973D01*
X107170000Y-99484654D01*
G37*
G36*
X108014103Y-99311119D02*
G01*
X108279839Y-99311119D01*
X108279839Y-98208607D01*
X108014103Y-98208607D01*
X108014103Y-99311119D01*
G37*
G36*
X107170000Y-96812149D02*
G01*
X108066859Y-96812149D01*
X108156701Y-96821294D01*
X108227276Y-96846589D01*
X108282892Y-96886643D01*
X108324456Y-96940918D01*
X108350540Y-97009820D01*
X108359951Y-97097669D01*
X108353663Y-97180352D01*
X108334672Y-97262410D01*
X108303479Y-97339905D01*
X108261521Y-97407857D01*
X108400983Y-97611433D01*
X108459937Y-97553169D01*
X108510261Y-97482916D01*
X108552048Y-97399064D01*
X108592206Y-97262051D01*
X108606147Y-97105851D01*
X108596396Y-96972624D01*
X108569118Y-96861967D01*
X108526277Y-96769904D01*
X108468394Y-96693325D01*
X108395164Y-96631183D01*
X108308000Y-96585859D01*
X108204099Y-96557299D01*
X108079682Y-96547145D01*
X107170000Y-96547145D01*
X107170000Y-96812149D01*
G37*
G36*
X107148506Y-97159218D02*
G01*
X107156542Y-97292183D01*
X107178557Y-97398718D01*
X107212139Y-97483552D01*
X107255973Y-97550617D01*
X107314051Y-97605643D01*
X107386078Y-97646026D01*
X107475070Y-97671769D01*
X107585212Y-97681043D01*
X107690263Y-97672520D01*
X107775362Y-97648866D01*
X107844377Y-97611839D01*
X107900163Y-97561608D01*
X107954868Y-97475709D01*
X107990898Y-97359262D01*
X108004333Y-97202937D01*
X108004333Y-96799814D01*
X107779630Y-96780764D01*
X107779630Y-97201594D01*
X107773476Y-97272005D01*
X107756912Y-97324828D01*
X107731636Y-97364138D01*
X107696031Y-97393303D01*
X107648389Y-97411894D01*
X107584846Y-97418726D01*
X107517313Y-97409991D01*
X107465882Y-97385752D01*
X107426577Y-97346308D01*
X107399938Y-97295250D01*
X107381952Y-97224802D01*
X107375163Y-97129176D01*
X107385146Y-96981023D01*
X107409357Y-96891406D01*
X107437871Y-96845748D01*
X107472719Y-96820613D01*
X107515969Y-96812149D01*
X107315446Y-96783450D01*
X107263338Y-96824961D01*
X107221779Y-96875041D01*
X107190067Y-96932817D01*
X107166824Y-97000094D01*
X107153325Y-97072995D01*
X107148506Y-97159218D01*
G37*
G36*
X107148506Y-95551367D02*
G01*
X107159798Y-95696997D01*
X107191474Y-95818305D01*
X107241491Y-95919673D01*
X107309584Y-96004438D01*
X107394536Y-96072229D01*
X107496179Y-96122065D01*
X107617869Y-96153645D01*
X107763998Y-96164905D01*
X107997372Y-96164905D01*
X108142144Y-96153650D01*
X108262610Y-96122088D01*
X108363163Y-96072265D01*
X108447145Y-96004438D01*
X108514276Y-95919808D01*
X108563665Y-95818493D01*
X108594979Y-95697138D01*
X108606147Y-95551367D01*
X108599315Y-95441557D01*
X108579517Y-95341891D01*
X108547407Y-95250948D01*
X108501912Y-95166495D01*
X108446119Y-95095945D01*
X108379612Y-95037724D01*
X108199483Y-95238492D01*
X108259536Y-95302911D01*
X108303775Y-95377955D01*
X108331246Y-95460572D01*
X108340411Y-95547337D01*
X108329434Y-95651164D01*
X108298994Y-95732820D01*
X108250530Y-95797320D01*
X108185398Y-95845085D01*
X108102638Y-95875211D01*
X107997128Y-95886102D01*
X107764242Y-95886102D01*
X107655970Y-95875152D01*
X107571500Y-95844962D01*
X107505467Y-95797320D01*
X107456221Y-95732714D01*
X107425359Y-95651056D01*
X107414242Y-95547337D01*
X107424049Y-95460704D01*
X107453565Y-95377955D01*
X107500798Y-95303093D01*
X107564818Y-95238492D01*
X107371011Y-95037724D01*
X107306238Y-95095810D01*
X107251506Y-95166531D01*
X107206514Y-95251559D01*
X107174758Y-95342928D01*
X107155228Y-95442426D01*
X107148506Y-95551367D01*
G37*
G36*
X107377117Y-94628251D02*
G01*
X107706967Y-94610422D01*
X108584654Y-93880868D01*
X108584654Y-93552972D01*
X107377117Y-94628251D01*
G37*
G36*
X107170000Y-94730711D02*
G01*
X109155205Y-94730711D01*
X109155205Y-94452030D01*
X107170000Y-94452030D01*
X107170000Y-94730711D01*
G37*
G36*
X107170000Y-93786590D02*
G01*
X107986381Y-94281182D01*
X108171762Y-94102274D01*
X107170000Y-93483363D01*
X107170000Y-93786590D01*
G37*
G36*
X107170000Y-93251576D02*
G01*
X108584654Y-93251576D01*
X108584654Y-92972895D01*
X107170000Y-92972895D01*
X107170000Y-93251576D01*
G37*
G36*
X108248942Y-92471465D02*
G01*
X108288368Y-92512905D01*
X108317208Y-92564399D01*
X108334318Y-92623176D01*
X108340411Y-92694092D01*
X108331528Y-92779628D01*
X108306930Y-92846846D01*
X108267871Y-92899867D01*
X108215242Y-92939311D01*
X108149098Y-92964013D01*
X108065516Y-92972895D01*
X108338824Y-93001594D01*
X108417834Y-92953239D01*
X108482773Y-92897080D01*
X108535195Y-92832822D01*
X108574743Y-92760478D01*
X108598227Y-92684236D01*
X108606147Y-92602623D01*
X108598859Y-92508622D01*
X108578060Y-92427135D01*
X108543091Y-92353144D01*
X108495139Y-92289748D01*
X108248942Y-92471465D01*
G37*
G36*
X108141292Y-90967352D02*
G01*
X108262043Y-90997596D01*
X108362625Y-91045164D01*
X108446413Y-91109567D01*
X108514207Y-91190741D01*
X108563756Y-91287486D01*
X108595023Y-91402931D01*
X108606147Y-91541266D01*
X108595021Y-91679668D01*
X108563751Y-91795152D01*
X108514202Y-91891914D01*
X108446413Y-91973087D01*
X108362625Y-92037490D01*
X108262043Y-92085058D01*
X108141292Y-92115302D01*
X107996029Y-92126105D01*
X107765464Y-92126105D01*
X107618782Y-92115298D01*
X107496744Y-92085039D01*
X107395011Y-92037459D01*
X107310195Y-91973087D01*
X107241491Y-91891787D01*
X107191353Y-91794976D01*
X107159745Y-91679535D01*
X107148506Y-91541266D01*
X107414242Y-91541266D01*
X107425147Y-91633738D01*
X107455748Y-91707430D01*
X107505467Y-91766702D01*
X107570805Y-91809752D01*
X107654453Y-91837282D01*
X107761556Y-91847302D01*
X107995785Y-91847302D01*
X108102873Y-91837251D01*
X108186018Y-91809700D01*
X108250530Y-91766702D01*
X108299455Y-91707534D01*
X108329640Y-91633844D01*
X108340411Y-91541266D01*
X108329589Y-91447804D01*
X108299362Y-91373975D01*
X108250530Y-91315219D01*
X108186066Y-91272571D01*
X108102923Y-91245215D01*
X107995785Y-91235230D01*
X107761556Y-91235230D01*
X107654404Y-91245184D01*
X107570757Y-91272518D01*
X107505467Y-91315219D01*
X107455842Y-91374080D01*
X107425198Y-91447912D01*
X107414242Y-91541266D01*
X107148506Y-91541266D01*
X107159666Y-91402972D01*
X107191039Y-91287541D01*
X107240771Y-91190781D01*
X107308852Y-91109567D01*
X107392978Y-91045192D01*
X107494005Y-90997619D01*
X107615329Y-90967360D01*
X107761311Y-90956549D01*
X107996029Y-90956549D01*
X108141292Y-90967352D01*
G37*
G36*
X107170000Y-90345087D02*
G01*
X107435736Y-90345087D01*
X107435736Y-89895680D01*
X107443791Y-89785608D01*
X107466327Y-89694157D01*
X107501724Y-89618048D01*
X107549553Y-89554717D01*
X107610125Y-89503307D01*
X107682175Y-89465822D01*
X107768006Y-89442209D01*
X107870732Y-89433817D01*
X108454473Y-89433817D01*
X108557201Y-89442211D01*
X108643009Y-89465827D01*
X108715015Y-89503311D01*
X108775530Y-89554717D01*
X108823415Y-89618056D01*
X108858849Y-89694168D01*
X108881406Y-89785617D01*
X108889469Y-89895680D01*
X108889469Y-90345087D01*
X109155205Y-90345087D01*
X109155205Y-89903862D01*
X109142000Y-89723384D01*
X109105080Y-89573626D01*
X109047123Y-89449168D01*
X108968848Y-89345767D01*
X108869792Y-89261796D01*
X108752001Y-89200569D01*
X108611711Y-89162003D01*
X108443848Y-89148297D01*
X107881357Y-89148297D01*
X107733333Y-89158930D01*
X107606341Y-89189081D01*
X107496919Y-89237079D01*
X107399520Y-89305002D01*
X107318941Y-89390419D01*
X107253897Y-89495366D01*
X107208747Y-89611205D01*
X107180138Y-89746616D01*
X107170000Y-89905205D01*
X107170000Y-90345087D01*
G37*
G36*
X107170000Y-90533642D02*
G01*
X109155205Y-90533642D01*
X109155205Y-90254961D01*
X107170000Y-90254961D01*
X107170000Y-90533642D01*
G37*
G36*
X107148506Y-88143604D02*
G01*
X107160062Y-88291121D01*
X107192492Y-88414033D01*
X107243746Y-88516795D01*
X107313614Y-88602780D01*
X107400595Y-88671226D01*
X107505277Y-88721733D01*
X107631251Y-88753845D01*
X107783171Y-88765324D01*
X107942784Y-88765324D01*
X108101693Y-88754167D01*
X108233321Y-88723031D01*
X108342409Y-88674327D01*
X108432735Y-88608886D01*
X108506826Y-88525239D01*
X108560527Y-88426180D01*
X108594207Y-88308617D01*
X108606147Y-88168272D01*
X108593066Y-88038243D01*
X108555786Y-87928319D01*
X108495170Y-87834337D01*
X108409288Y-87753670D01*
X108308643Y-87693042D01*
X108186052Y-87647130D01*
X108037194Y-87617450D01*
X107856933Y-87606758D01*
X107763998Y-87606758D01*
X107763998Y-88563091D01*
X107988702Y-88563091D01*
X107988702Y-87871761D01*
X108100822Y-87888591D01*
X108188755Y-87919037D01*
X108257247Y-87961276D01*
X108311020Y-88018538D01*
X108342983Y-88086386D01*
X108354089Y-88168272D01*
X108341810Y-88268174D01*
X108307200Y-88348105D01*
X108250530Y-88412759D01*
X108176715Y-88459224D01*
X108081137Y-88489216D01*
X107957683Y-88500198D01*
X107777920Y-88500198D01*
X107664423Y-88488629D01*
X107576441Y-88456805D01*
X107508154Y-88406653D01*
X107457535Y-88338762D01*
X107425719Y-88252831D01*
X107414242Y-88143604D01*
X107422518Y-88059915D01*
X107447826Y-87975687D01*
X107488266Y-87896658D01*
X107541981Y-87826699D01*
X107359532Y-87643639D01*
X107269952Y-87755618D01*
X107203583Y-87879944D01*
X107162038Y-88012580D01*
X107148506Y-88143604D01*
G37*
G36*
X107574710Y-86790620D02*
G01*
X108584654Y-86443551D01*
X108584654Y-86152536D01*
X107170000Y-86685474D01*
X107170000Y-86895767D01*
X108584654Y-87428705D01*
X108584654Y-87137690D01*
X107574710Y-86790620D01*
G37*
G36*
X107170000Y-84850600D02*
G01*
X108042435Y-85367051D01*
X108110701Y-85409305D01*
X109155205Y-86054228D01*
X109155205Y-85741353D01*
X108346884Y-85261782D01*
X108273244Y-85216720D01*
X107170000Y-84537724D01*
X107170000Y-84850600D01*
G37*
G36*
X107170000Y-86070593D02*
G01*
X108304630Y-85379263D01*
X109155205Y-84880641D01*
X109155205Y-84567766D01*
X108080659Y-85224902D01*
X107170000Y-85757717D01*
X107170000Y-86070593D01*
G37*
X114570952Y-98099919D02*
X114618571Y-98076109D01*
X114618571Y-98076109D02*
X114690000Y-98076109D01*
X114690000Y-98076109D02*
X114761428Y-98099919D01*
X114761428Y-98099919D02*
X114809047Y-98147538D01*
X114809047Y-98147538D02*
X114832857Y-98195157D01*
X114832857Y-98195157D02*
X114856666Y-98290395D01*
X114856666Y-98290395D02*
X114856666Y-98361823D01*
X114856666Y-98361823D02*
X114832857Y-98457061D01*
X114832857Y-98457061D02*
X114809047Y-98504680D01*
X114809047Y-98504680D02*
X114761428Y-98552300D01*
X114761428Y-98552300D02*
X114690000Y-98576109D01*
X114690000Y-98576109D02*
X114642381Y-98576109D01*
X114642381Y-98576109D02*
X114570952Y-98552300D01*
X114570952Y-98552300D02*
X114547143Y-98528490D01*
X114547143Y-98528490D02*
X114547143Y-98361823D01*
X114547143Y-98361823D02*
X114642381Y-98361823D01*
X114332857Y-98576109D02*
X114332857Y-98076109D01*
X114332857Y-98076109D02*
X114047143Y-98576109D01*
X114047143Y-98576109D02*
X114047143Y-98076109D01*
X113809047Y-98576109D02*
X113809047Y-98076109D01*
X113809047Y-98076109D02*
X113689999Y-98076109D01*
X113689999Y-98076109D02*
X113618571Y-98099919D01*
X113618571Y-98099919D02*
X113570952Y-98147538D01*
X113570952Y-98147538D02*
X113547142Y-98195157D01*
X113547142Y-98195157D02*
X113523333Y-98290395D01*
X113523333Y-98290395D02*
X113523333Y-98361823D01*
X113523333Y-98361823D02*
X113547142Y-98457061D01*
X113547142Y-98457061D02*
X113570952Y-98504680D01*
X113570952Y-98504680D02*
X113618571Y-98552300D01*
X113618571Y-98552300D02*
X113689999Y-98576109D01*
X113689999Y-98576109D02*
X113809047Y-98576109D01*
X115166189Y-90479919D02*
X115213808Y-90456109D01*
X115213808Y-90456109D02*
X115285237Y-90456109D01*
X115285237Y-90456109D02*
X115356665Y-90479919D01*
X115356665Y-90479919D02*
X115404284Y-90527538D01*
X115404284Y-90527538D02*
X115428094Y-90575157D01*
X115428094Y-90575157D02*
X115451903Y-90670395D01*
X115451903Y-90670395D02*
X115451903Y-90741823D01*
X115451903Y-90741823D02*
X115428094Y-90837061D01*
X115428094Y-90837061D02*
X115404284Y-90884680D01*
X115404284Y-90884680D02*
X115356665Y-90932300D01*
X115356665Y-90932300D02*
X115285237Y-90956109D01*
X115285237Y-90956109D02*
X115237618Y-90956109D01*
X115237618Y-90956109D02*
X115166189Y-90932300D01*
X115166189Y-90932300D02*
X115142380Y-90908490D01*
X115142380Y-90908490D02*
X115142380Y-90741823D01*
X115142380Y-90741823D02*
X115237618Y-90741823D01*
X114928094Y-90956109D02*
X114928094Y-90456109D01*
X114928094Y-90456109D02*
X114737618Y-90456109D01*
X114737618Y-90456109D02*
X114689999Y-90479919D01*
X114689999Y-90479919D02*
X114666189Y-90503728D01*
X114666189Y-90503728D02*
X114642380Y-90551347D01*
X114642380Y-90551347D02*
X114642380Y-90622776D01*
X114642380Y-90622776D02*
X114666189Y-90670395D01*
X114666189Y-90670395D02*
X114689999Y-90694204D01*
X114689999Y-90694204D02*
X114737618Y-90718014D01*
X114737618Y-90718014D02*
X114928094Y-90718014D01*
X114428094Y-90956109D02*
X114428094Y-90456109D01*
X114094761Y-90456109D02*
X113999523Y-90456109D01*
X113999523Y-90456109D02*
X113951904Y-90479919D01*
X113951904Y-90479919D02*
X113904285Y-90527538D01*
X113904285Y-90527538D02*
X113880475Y-90622776D01*
X113880475Y-90622776D02*
X113880475Y-90789442D01*
X113880475Y-90789442D02*
X113904285Y-90884680D01*
X113904285Y-90884680D02*
X113951904Y-90932300D01*
X113951904Y-90932300D02*
X113999523Y-90956109D01*
X113999523Y-90956109D02*
X114094761Y-90956109D01*
X114094761Y-90956109D02*
X114142380Y-90932300D01*
X114142380Y-90932300D02*
X114189999Y-90884680D01*
X114189999Y-90884680D02*
X114213808Y-90789442D01*
X114213808Y-90789442D02*
X114213808Y-90622776D01*
X114213808Y-90622776D02*
X114189999Y-90527538D01*
X114189999Y-90527538D02*
X114142380Y-90479919D01*
X114142380Y-90479919D02*
X114094761Y-90456109D01*
X113689998Y-90503728D02*
X113666189Y-90479919D01*
X113666189Y-90479919D02*
X113618570Y-90456109D01*
X113618570Y-90456109D02*
X113499522Y-90456109D01*
X113499522Y-90456109D02*
X113451903Y-90479919D01*
X113451903Y-90479919D02*
X113428094Y-90503728D01*
X113428094Y-90503728D02*
X113404284Y-90551347D01*
X113404284Y-90551347D02*
X113404284Y-90598966D01*
X113404284Y-90598966D02*
X113428094Y-90670395D01*
X113428094Y-90670395D02*
X113713808Y-90956109D01*
X113713808Y-90956109D02*
X113404284Y-90956109D01*
X113237618Y-90456109D02*
X112928094Y-90456109D01*
X112928094Y-90456109D02*
X113094761Y-90646585D01*
X113094761Y-90646585D02*
X113023332Y-90646585D01*
X113023332Y-90646585D02*
X112975713Y-90670395D01*
X112975713Y-90670395D02*
X112951904Y-90694204D01*
X112951904Y-90694204D02*
X112928094Y-90741823D01*
X112928094Y-90741823D02*
X112928094Y-90860871D01*
X112928094Y-90860871D02*
X112951904Y-90908490D01*
X112951904Y-90908490D02*
X112975713Y-90932300D01*
X112975713Y-90932300D02*
X113023332Y-90956109D01*
X113023332Y-90956109D02*
X113166189Y-90956109D01*
X113166189Y-90956109D02*
X113213808Y-90932300D01*
X113213808Y-90932300D02*
X113237618Y-90908490D01*
X115166189Y-87939919D02*
X115213808Y-87916109D01*
X115213808Y-87916109D02*
X115285237Y-87916109D01*
X115285237Y-87916109D02*
X115356665Y-87939919D01*
X115356665Y-87939919D02*
X115404284Y-87987538D01*
X115404284Y-87987538D02*
X115428094Y-88035157D01*
X115428094Y-88035157D02*
X115451903Y-88130395D01*
X115451903Y-88130395D02*
X115451903Y-88201823D01*
X115451903Y-88201823D02*
X115428094Y-88297061D01*
X115428094Y-88297061D02*
X115404284Y-88344680D01*
X115404284Y-88344680D02*
X115356665Y-88392300D01*
X115356665Y-88392300D02*
X115285237Y-88416109D01*
X115285237Y-88416109D02*
X115237618Y-88416109D01*
X115237618Y-88416109D02*
X115166189Y-88392300D01*
X115166189Y-88392300D02*
X115142380Y-88368490D01*
X115142380Y-88368490D02*
X115142380Y-88201823D01*
X115142380Y-88201823D02*
X115237618Y-88201823D01*
X114928094Y-88416109D02*
X114928094Y-87916109D01*
X114928094Y-87916109D02*
X114737618Y-87916109D01*
X114737618Y-87916109D02*
X114689999Y-87939919D01*
X114689999Y-87939919D02*
X114666189Y-87963728D01*
X114666189Y-87963728D02*
X114642380Y-88011347D01*
X114642380Y-88011347D02*
X114642380Y-88082776D01*
X114642380Y-88082776D02*
X114666189Y-88130395D01*
X114666189Y-88130395D02*
X114689999Y-88154204D01*
X114689999Y-88154204D02*
X114737618Y-88178014D01*
X114737618Y-88178014D02*
X114928094Y-88178014D01*
X114428094Y-88416109D02*
X114428094Y-87916109D01*
X114094761Y-87916109D02*
X113999523Y-87916109D01*
X113999523Y-87916109D02*
X113951904Y-87939919D01*
X113951904Y-87939919D02*
X113904285Y-87987538D01*
X113904285Y-87987538D02*
X113880475Y-88082776D01*
X113880475Y-88082776D02*
X113880475Y-88249442D01*
X113880475Y-88249442D02*
X113904285Y-88344680D01*
X113904285Y-88344680D02*
X113951904Y-88392300D01*
X113951904Y-88392300D02*
X113999523Y-88416109D01*
X113999523Y-88416109D02*
X114094761Y-88416109D01*
X114094761Y-88416109D02*
X114142380Y-88392300D01*
X114142380Y-88392300D02*
X114189999Y-88344680D01*
X114189999Y-88344680D02*
X114213808Y-88249442D01*
X114213808Y-88249442D02*
X114213808Y-88082776D01*
X114213808Y-88082776D02*
X114189999Y-87987538D01*
X114189999Y-87987538D02*
X114142380Y-87939919D01*
X114142380Y-87939919D02*
X114094761Y-87916109D01*
X113689998Y-87963728D02*
X113666189Y-87939919D01*
X113666189Y-87939919D02*
X113618570Y-87916109D01*
X113618570Y-87916109D02*
X113499522Y-87916109D01*
X113499522Y-87916109D02*
X113451903Y-87939919D01*
X113451903Y-87939919D02*
X113428094Y-87963728D01*
X113428094Y-87963728D02*
X113404284Y-88011347D01*
X113404284Y-88011347D02*
X113404284Y-88058966D01*
X113404284Y-88058966D02*
X113428094Y-88130395D01*
X113428094Y-88130395D02*
X113713808Y-88416109D01*
X113713808Y-88416109D02*
X113404284Y-88416109D01*
X112975713Y-88082776D02*
X112975713Y-88416109D01*
X113094761Y-87892300D02*
X113213808Y-88249442D01*
X113213808Y-88249442D02*
X112904285Y-88249442D01*
X102826189Y-95539919D02*
X102873808Y-95516109D01*
X102873808Y-95516109D02*
X102945237Y-95516109D01*
X102945237Y-95516109D02*
X103016665Y-95539919D01*
X103016665Y-95539919D02*
X103064284Y-95587538D01*
X103064284Y-95587538D02*
X103088094Y-95635157D01*
X103088094Y-95635157D02*
X103111903Y-95730395D01*
X103111903Y-95730395D02*
X103111903Y-95801823D01*
X103111903Y-95801823D02*
X103088094Y-95897061D01*
X103088094Y-95897061D02*
X103064284Y-95944680D01*
X103064284Y-95944680D02*
X103016665Y-95992300D01*
X103016665Y-95992300D02*
X102945237Y-96016109D01*
X102945237Y-96016109D02*
X102897618Y-96016109D01*
X102897618Y-96016109D02*
X102826189Y-95992300D01*
X102826189Y-95992300D02*
X102802380Y-95968490D01*
X102802380Y-95968490D02*
X102802380Y-95801823D01*
X102802380Y-95801823D02*
X102897618Y-95801823D01*
X102588094Y-96016109D02*
X102588094Y-95516109D01*
X102588094Y-95516109D02*
X102397618Y-95516109D01*
X102397618Y-95516109D02*
X102349999Y-95539919D01*
X102349999Y-95539919D02*
X102326189Y-95563728D01*
X102326189Y-95563728D02*
X102302380Y-95611347D01*
X102302380Y-95611347D02*
X102302380Y-95682776D01*
X102302380Y-95682776D02*
X102326189Y-95730395D01*
X102326189Y-95730395D02*
X102349999Y-95754204D01*
X102349999Y-95754204D02*
X102397618Y-95778014D01*
X102397618Y-95778014D02*
X102588094Y-95778014D01*
X102088094Y-96016109D02*
X102088094Y-95516109D01*
X101754761Y-95516109D02*
X101659523Y-95516109D01*
X101659523Y-95516109D02*
X101611904Y-95539919D01*
X101611904Y-95539919D02*
X101564285Y-95587538D01*
X101564285Y-95587538D02*
X101540475Y-95682776D01*
X101540475Y-95682776D02*
X101540475Y-95849442D01*
X101540475Y-95849442D02*
X101564285Y-95944680D01*
X101564285Y-95944680D02*
X101611904Y-95992300D01*
X101611904Y-95992300D02*
X101659523Y-96016109D01*
X101659523Y-96016109D02*
X101754761Y-96016109D01*
X101754761Y-96016109D02*
X101802380Y-95992300D01*
X101802380Y-95992300D02*
X101849999Y-95944680D01*
X101849999Y-95944680D02*
X101873808Y-95849442D01*
X101873808Y-95849442D02*
X101873808Y-95682776D01*
X101873808Y-95682776D02*
X101849999Y-95587538D01*
X101849999Y-95587538D02*
X101802380Y-95539919D01*
X101802380Y-95539919D02*
X101754761Y-95516109D01*
X101230951Y-95516109D02*
X101183332Y-95516109D01*
X101183332Y-95516109D02*
X101135713Y-95539919D01*
X101135713Y-95539919D02*
X101111903Y-95563728D01*
X101111903Y-95563728D02*
X101088094Y-95611347D01*
X101088094Y-95611347D02*
X101064284Y-95706585D01*
X101064284Y-95706585D02*
X101064284Y-95825633D01*
X101064284Y-95825633D02*
X101088094Y-95920871D01*
X101088094Y-95920871D02*
X101111903Y-95968490D01*
X101111903Y-95968490D02*
X101135713Y-95992300D01*
X101135713Y-95992300D02*
X101183332Y-96016109D01*
X101183332Y-96016109D02*
X101230951Y-96016109D01*
X101230951Y-96016109D02*
X101278570Y-95992300D01*
X101278570Y-95992300D02*
X101302379Y-95968490D01*
X101302379Y-95968490D02*
X101326189Y-95920871D01*
X101326189Y-95920871D02*
X101349998Y-95825633D01*
X101349998Y-95825633D02*
X101349998Y-95706585D01*
X101349998Y-95706585D02*
X101326189Y-95611347D01*
X101326189Y-95611347D02*
X101302379Y-95563728D01*
X101302379Y-95563728D02*
X101278570Y-95539919D01*
X101278570Y-95539919D02*
X101230951Y-95516109D01*
X100826189Y-96016109D02*
X100730951Y-96016109D01*
X100730951Y-96016109D02*
X100683332Y-95992300D01*
X100683332Y-95992300D02*
X100659523Y-95968490D01*
X100659523Y-95968490D02*
X100611904Y-95897061D01*
X100611904Y-95897061D02*
X100588094Y-95801823D01*
X100588094Y-95801823D02*
X100588094Y-95611347D01*
X100588094Y-95611347D02*
X100611904Y-95563728D01*
X100611904Y-95563728D02*
X100635713Y-95539919D01*
X100635713Y-95539919D02*
X100683332Y-95516109D01*
X100683332Y-95516109D02*
X100778570Y-95516109D01*
X100778570Y-95516109D02*
X100826189Y-95539919D01*
X100826189Y-95539919D02*
X100849999Y-95563728D01*
X100849999Y-95563728D02*
X100873808Y-95611347D01*
X100873808Y-95611347D02*
X100873808Y-95730395D01*
X100873808Y-95730395D02*
X100849999Y-95778014D01*
X100849999Y-95778014D02*
X100826189Y-95801823D01*
X100826189Y-95801823D02*
X100778570Y-95825633D01*
X100778570Y-95825633D02*
X100683332Y-95825633D01*
X100683332Y-95825633D02*
X100635713Y-95801823D01*
X100635713Y-95801823D02*
X100611904Y-95778014D01*
X100611904Y-95778014D02*
X100588094Y-95730395D01*
X102786189Y-93019919D02*
X102833808Y-92996109D01*
X102833808Y-92996109D02*
X102905237Y-92996109D01*
X102905237Y-92996109D02*
X102976665Y-93019919D01*
X102976665Y-93019919D02*
X103024284Y-93067538D01*
X103024284Y-93067538D02*
X103048094Y-93115157D01*
X103048094Y-93115157D02*
X103071903Y-93210395D01*
X103071903Y-93210395D02*
X103071903Y-93281823D01*
X103071903Y-93281823D02*
X103048094Y-93377061D01*
X103048094Y-93377061D02*
X103024284Y-93424680D01*
X103024284Y-93424680D02*
X102976665Y-93472300D01*
X102976665Y-93472300D02*
X102905237Y-93496109D01*
X102905237Y-93496109D02*
X102857618Y-93496109D01*
X102857618Y-93496109D02*
X102786189Y-93472300D01*
X102786189Y-93472300D02*
X102762380Y-93448490D01*
X102762380Y-93448490D02*
X102762380Y-93281823D01*
X102762380Y-93281823D02*
X102857618Y-93281823D01*
X102548094Y-93496109D02*
X102548094Y-92996109D01*
X102548094Y-92996109D02*
X102357618Y-92996109D01*
X102357618Y-92996109D02*
X102309999Y-93019919D01*
X102309999Y-93019919D02*
X102286189Y-93043728D01*
X102286189Y-93043728D02*
X102262380Y-93091347D01*
X102262380Y-93091347D02*
X102262380Y-93162776D01*
X102262380Y-93162776D02*
X102286189Y-93210395D01*
X102286189Y-93210395D02*
X102309999Y-93234204D01*
X102309999Y-93234204D02*
X102357618Y-93258014D01*
X102357618Y-93258014D02*
X102548094Y-93258014D01*
X102048094Y-93496109D02*
X102048094Y-92996109D01*
X101714761Y-92996109D02*
X101619523Y-92996109D01*
X101619523Y-92996109D02*
X101571904Y-93019919D01*
X101571904Y-93019919D02*
X101524285Y-93067538D01*
X101524285Y-93067538D02*
X101500475Y-93162776D01*
X101500475Y-93162776D02*
X101500475Y-93329442D01*
X101500475Y-93329442D02*
X101524285Y-93424680D01*
X101524285Y-93424680D02*
X101571904Y-93472300D01*
X101571904Y-93472300D02*
X101619523Y-93496109D01*
X101619523Y-93496109D02*
X101714761Y-93496109D01*
X101714761Y-93496109D02*
X101762380Y-93472300D01*
X101762380Y-93472300D02*
X101809999Y-93424680D01*
X101809999Y-93424680D02*
X101833808Y-93329442D01*
X101833808Y-93329442D02*
X101833808Y-93162776D01*
X101833808Y-93162776D02*
X101809999Y-93067538D01*
X101809999Y-93067538D02*
X101762380Y-93019919D01*
X101762380Y-93019919D02*
X101714761Y-92996109D01*
X101190951Y-92996109D02*
X101143332Y-92996109D01*
X101143332Y-92996109D02*
X101095713Y-93019919D01*
X101095713Y-93019919D02*
X101071903Y-93043728D01*
X101071903Y-93043728D02*
X101048094Y-93091347D01*
X101048094Y-93091347D02*
X101024284Y-93186585D01*
X101024284Y-93186585D02*
X101024284Y-93305633D01*
X101024284Y-93305633D02*
X101048094Y-93400871D01*
X101048094Y-93400871D02*
X101071903Y-93448490D01*
X101071903Y-93448490D02*
X101095713Y-93472300D01*
X101095713Y-93472300D02*
X101143332Y-93496109D01*
X101143332Y-93496109D02*
X101190951Y-93496109D01*
X101190951Y-93496109D02*
X101238570Y-93472300D01*
X101238570Y-93472300D02*
X101262379Y-93448490D01*
X101262379Y-93448490D02*
X101286189Y-93400871D01*
X101286189Y-93400871D02*
X101309998Y-93305633D01*
X101309998Y-93305633D02*
X101309998Y-93186585D01*
X101309998Y-93186585D02*
X101286189Y-93091347D01*
X101286189Y-93091347D02*
X101262379Y-93043728D01*
X101262379Y-93043728D02*
X101238570Y-93019919D01*
X101238570Y-93019919D02*
X101190951Y-92996109D01*
X100738570Y-93210395D02*
X100786189Y-93186585D01*
X100786189Y-93186585D02*
X100809999Y-93162776D01*
X100809999Y-93162776D02*
X100833808Y-93115157D01*
X100833808Y-93115157D02*
X100833808Y-93091347D01*
X100833808Y-93091347D02*
X100809999Y-93043728D01*
X100809999Y-93043728D02*
X100786189Y-93019919D01*
X100786189Y-93019919D02*
X100738570Y-92996109D01*
X100738570Y-92996109D02*
X100643332Y-92996109D01*
X100643332Y-92996109D02*
X100595713Y-93019919D01*
X100595713Y-93019919D02*
X100571904Y-93043728D01*
X100571904Y-93043728D02*
X100548094Y-93091347D01*
X100548094Y-93091347D02*
X100548094Y-93115157D01*
X100548094Y-93115157D02*
X100571904Y-93162776D01*
X100571904Y-93162776D02*
X100595713Y-93186585D01*
X100595713Y-93186585D02*
X100643332Y-93210395D01*
X100643332Y-93210395D02*
X100738570Y-93210395D01*
X100738570Y-93210395D02*
X100786189Y-93234204D01*
X100786189Y-93234204D02*
X100809999Y-93258014D01*
X100809999Y-93258014D02*
X100833808Y-93305633D01*
X100833808Y-93305633D02*
X100833808Y-93400871D01*
X100833808Y-93400871D02*
X100809999Y-93448490D01*
X100809999Y-93448490D02*
X100786189Y-93472300D01*
X100786189Y-93472300D02*
X100738570Y-93496109D01*
X100738570Y-93496109D02*
X100643332Y-93496109D01*
X100643332Y-93496109D02*
X100595713Y-93472300D01*
X100595713Y-93472300D02*
X100571904Y-93448490D01*
X100571904Y-93448490D02*
X100548094Y-93400871D01*
X100548094Y-93400871D02*
X100548094Y-93305633D01*
X100548094Y-93305633D02*
X100571904Y-93258014D01*
X100571904Y-93258014D02*
X100595713Y-93234204D01*
X100595713Y-93234204D02*
X100643332Y-93210395D01*
X115166189Y-103179919D02*
X115213808Y-103156109D01*
X115213808Y-103156109D02*
X115285237Y-103156109D01*
X115285237Y-103156109D02*
X115356665Y-103179919D01*
X115356665Y-103179919D02*
X115404284Y-103227538D01*
X115404284Y-103227538D02*
X115428094Y-103275157D01*
X115428094Y-103275157D02*
X115451903Y-103370395D01*
X115451903Y-103370395D02*
X115451903Y-103441823D01*
X115451903Y-103441823D02*
X115428094Y-103537061D01*
X115428094Y-103537061D02*
X115404284Y-103584680D01*
X115404284Y-103584680D02*
X115356665Y-103632300D01*
X115356665Y-103632300D02*
X115285237Y-103656109D01*
X115285237Y-103656109D02*
X115237618Y-103656109D01*
X115237618Y-103656109D02*
X115166189Y-103632300D01*
X115166189Y-103632300D02*
X115142380Y-103608490D01*
X115142380Y-103608490D02*
X115142380Y-103441823D01*
X115142380Y-103441823D02*
X115237618Y-103441823D01*
X114928094Y-103656109D02*
X114928094Y-103156109D01*
X114928094Y-103156109D02*
X114737618Y-103156109D01*
X114737618Y-103156109D02*
X114689999Y-103179919D01*
X114689999Y-103179919D02*
X114666189Y-103203728D01*
X114666189Y-103203728D02*
X114642380Y-103251347D01*
X114642380Y-103251347D02*
X114642380Y-103322776D01*
X114642380Y-103322776D02*
X114666189Y-103370395D01*
X114666189Y-103370395D02*
X114689999Y-103394204D01*
X114689999Y-103394204D02*
X114737618Y-103418014D01*
X114737618Y-103418014D02*
X114928094Y-103418014D01*
X114428094Y-103656109D02*
X114428094Y-103156109D01*
X114094761Y-103156109D02*
X113999523Y-103156109D01*
X113999523Y-103156109D02*
X113951904Y-103179919D01*
X113951904Y-103179919D02*
X113904285Y-103227538D01*
X113904285Y-103227538D02*
X113880475Y-103322776D01*
X113880475Y-103322776D02*
X113880475Y-103489442D01*
X113880475Y-103489442D02*
X113904285Y-103584680D01*
X113904285Y-103584680D02*
X113951904Y-103632300D01*
X113951904Y-103632300D02*
X113999523Y-103656109D01*
X113999523Y-103656109D02*
X114094761Y-103656109D01*
X114094761Y-103656109D02*
X114142380Y-103632300D01*
X114142380Y-103632300D02*
X114189999Y-103584680D01*
X114189999Y-103584680D02*
X114213808Y-103489442D01*
X114213808Y-103489442D02*
X114213808Y-103322776D01*
X114213808Y-103322776D02*
X114189999Y-103227538D01*
X114189999Y-103227538D02*
X114142380Y-103179919D01*
X114142380Y-103179919D02*
X114094761Y-103156109D01*
X113689998Y-103203728D02*
X113666189Y-103179919D01*
X113666189Y-103179919D02*
X113618570Y-103156109D01*
X113618570Y-103156109D02*
X113499522Y-103156109D01*
X113499522Y-103156109D02*
X113451903Y-103179919D01*
X113451903Y-103179919D02*
X113428094Y-103203728D01*
X113428094Y-103203728D02*
X113404284Y-103251347D01*
X113404284Y-103251347D02*
X113404284Y-103298966D01*
X113404284Y-103298966D02*
X113428094Y-103370395D01*
X113428094Y-103370395D02*
X113713808Y-103656109D01*
X113713808Y-103656109D02*
X113404284Y-103656109D01*
X113094761Y-103156109D02*
X113047142Y-103156109D01*
X113047142Y-103156109D02*
X112999523Y-103179919D01*
X112999523Y-103179919D02*
X112975713Y-103203728D01*
X112975713Y-103203728D02*
X112951904Y-103251347D01*
X112951904Y-103251347D02*
X112928094Y-103346585D01*
X112928094Y-103346585D02*
X112928094Y-103465633D01*
X112928094Y-103465633D02*
X112951904Y-103560871D01*
X112951904Y-103560871D02*
X112975713Y-103608490D01*
X112975713Y-103608490D02*
X112999523Y-103632300D01*
X112999523Y-103632300D02*
X113047142Y-103656109D01*
X113047142Y-103656109D02*
X113094761Y-103656109D01*
X113094761Y-103656109D02*
X113142380Y-103632300D01*
X113142380Y-103632300D02*
X113166189Y-103608490D01*
X113166189Y-103608490D02*
X113189999Y-103560871D01*
X113189999Y-103560871D02*
X113213808Y-103465633D01*
X113213808Y-103465633D02*
X113213808Y-103346585D01*
X113213808Y-103346585D02*
X113189999Y-103251347D01*
X113189999Y-103251347D02*
X113166189Y-103203728D01*
X113166189Y-103203728D02*
X113142380Y-103179919D01*
X113142380Y-103179919D02*
X113094761Y-103156109D01*
X114570952Y-72699919D02*
X114618571Y-72676109D01*
X114618571Y-72676109D02*
X114690000Y-72676109D01*
X114690000Y-72676109D02*
X114761428Y-72699919D01*
X114761428Y-72699919D02*
X114809047Y-72747538D01*
X114809047Y-72747538D02*
X114832857Y-72795157D01*
X114832857Y-72795157D02*
X114856666Y-72890395D01*
X114856666Y-72890395D02*
X114856666Y-72961823D01*
X114856666Y-72961823D02*
X114832857Y-73057061D01*
X114832857Y-73057061D02*
X114809047Y-73104680D01*
X114809047Y-73104680D02*
X114761428Y-73152300D01*
X114761428Y-73152300D02*
X114690000Y-73176109D01*
X114690000Y-73176109D02*
X114642381Y-73176109D01*
X114642381Y-73176109D02*
X114570952Y-73152300D01*
X114570952Y-73152300D02*
X114547143Y-73128490D01*
X114547143Y-73128490D02*
X114547143Y-72961823D01*
X114547143Y-72961823D02*
X114642381Y-72961823D01*
X114332857Y-73176109D02*
X114332857Y-72676109D01*
X114332857Y-72676109D02*
X114047143Y-73176109D01*
X114047143Y-73176109D02*
X114047143Y-72676109D01*
X113809047Y-73176109D02*
X113809047Y-72676109D01*
X113809047Y-72676109D02*
X113689999Y-72676109D01*
X113689999Y-72676109D02*
X113618571Y-72699919D01*
X113618571Y-72699919D02*
X113570952Y-72747538D01*
X113570952Y-72747538D02*
X113547142Y-72795157D01*
X113547142Y-72795157D02*
X113523333Y-72890395D01*
X113523333Y-72890395D02*
X113523333Y-72961823D01*
X113523333Y-72961823D02*
X113547142Y-73057061D01*
X113547142Y-73057061D02*
X113570952Y-73104680D01*
X113570952Y-73104680D02*
X113618571Y-73152300D01*
X113618571Y-73152300D02*
X113689999Y-73176109D01*
X113689999Y-73176109D02*
X113809047Y-73176109D01*
X115166189Y-82457433D02*
X115213808Y-82433623D01*
X115213808Y-82433623D02*
X115285237Y-82433623D01*
X115285237Y-82433623D02*
X115356665Y-82457433D01*
X115356665Y-82457433D02*
X115404284Y-82505052D01*
X115404284Y-82505052D02*
X115428094Y-82552671D01*
X115428094Y-82552671D02*
X115451903Y-82647909D01*
X115451903Y-82647909D02*
X115451903Y-82719337D01*
X115451903Y-82719337D02*
X115428094Y-82814575D01*
X115428094Y-82814575D02*
X115404284Y-82862194D01*
X115404284Y-82862194D02*
X115356665Y-82909814D01*
X115356665Y-82909814D02*
X115285237Y-82933623D01*
X115285237Y-82933623D02*
X115237618Y-82933623D01*
X115237618Y-82933623D02*
X115166189Y-82909814D01*
X115166189Y-82909814D02*
X115142380Y-82886004D01*
X115142380Y-82886004D02*
X115142380Y-82719337D01*
X115142380Y-82719337D02*
X115237618Y-82719337D01*
X114928094Y-82933623D02*
X114928094Y-82433623D01*
X114928094Y-82433623D02*
X114737618Y-82433623D01*
X114737618Y-82433623D02*
X114689999Y-82457433D01*
X114689999Y-82457433D02*
X114666189Y-82481242D01*
X114666189Y-82481242D02*
X114642380Y-82528861D01*
X114642380Y-82528861D02*
X114642380Y-82600290D01*
X114642380Y-82600290D02*
X114666189Y-82647909D01*
X114666189Y-82647909D02*
X114689999Y-82671718D01*
X114689999Y-82671718D02*
X114737618Y-82695528D01*
X114737618Y-82695528D02*
X114928094Y-82695528D01*
X114428094Y-82933623D02*
X114428094Y-82433623D01*
X114094761Y-82433623D02*
X113999523Y-82433623D01*
X113999523Y-82433623D02*
X113951904Y-82457433D01*
X113951904Y-82457433D02*
X113904285Y-82505052D01*
X113904285Y-82505052D02*
X113880475Y-82600290D01*
X113880475Y-82600290D02*
X113880475Y-82766956D01*
X113880475Y-82766956D02*
X113904285Y-82862194D01*
X113904285Y-82862194D02*
X113951904Y-82909814D01*
X113951904Y-82909814D02*
X113999523Y-82933623D01*
X113999523Y-82933623D02*
X114094761Y-82933623D01*
X114094761Y-82933623D02*
X114142380Y-82909814D01*
X114142380Y-82909814D02*
X114189999Y-82862194D01*
X114189999Y-82862194D02*
X114213808Y-82766956D01*
X114213808Y-82766956D02*
X114213808Y-82600290D01*
X114213808Y-82600290D02*
X114189999Y-82505052D01*
X114189999Y-82505052D02*
X114142380Y-82457433D01*
X114142380Y-82457433D02*
X114094761Y-82433623D01*
X113689998Y-82481242D02*
X113666189Y-82457433D01*
X113666189Y-82457433D02*
X113618570Y-82433623D01*
X113618570Y-82433623D02*
X113499522Y-82433623D01*
X113499522Y-82433623D02*
X113451903Y-82457433D01*
X113451903Y-82457433D02*
X113428094Y-82481242D01*
X113428094Y-82481242D02*
X113404284Y-82528861D01*
X113404284Y-82528861D02*
X113404284Y-82576480D01*
X113404284Y-82576480D02*
X113428094Y-82647909D01*
X113428094Y-82647909D02*
X113713808Y-82933623D01*
X113713808Y-82933623D02*
X113404284Y-82933623D01*
X112975713Y-82433623D02*
X113070951Y-82433623D01*
X113070951Y-82433623D02*
X113118570Y-82457433D01*
X113118570Y-82457433D02*
X113142380Y-82481242D01*
X113142380Y-82481242D02*
X113189999Y-82552671D01*
X113189999Y-82552671D02*
X113213808Y-82647909D01*
X113213808Y-82647909D02*
X113213808Y-82838385D01*
X113213808Y-82838385D02*
X113189999Y-82886004D01*
X113189999Y-82886004D02*
X113166189Y-82909814D01*
X113166189Y-82909814D02*
X113118570Y-82933623D01*
X113118570Y-82933623D02*
X113023332Y-82933623D01*
X113023332Y-82933623D02*
X112975713Y-82909814D01*
X112975713Y-82909814D02*
X112951904Y-82886004D01*
X112951904Y-82886004D02*
X112928094Y-82838385D01*
X112928094Y-82838385D02*
X112928094Y-82719337D01*
X112928094Y-82719337D02*
X112951904Y-82671718D01*
X112951904Y-82671718D02*
X112975713Y-82647909D01*
X112975713Y-82647909D02*
X113023332Y-82624099D01*
X113023332Y-82624099D02*
X113118570Y-82624099D01*
X113118570Y-82624099D02*
X113166189Y-82647909D01*
X113166189Y-82647909D02*
X113189999Y-82671718D01*
X113189999Y-82671718D02*
X113213808Y-82719337D01*
X114928094Y-83214786D02*
X115356665Y-83857643D01*
X114785236Y-83595738D02*
X114547141Y-83595738D01*
X114832855Y-83738595D02*
X114666189Y-83238595D01*
X114666189Y-83238595D02*
X114499522Y-83738595D01*
X114332856Y-83738595D02*
X114332856Y-83238595D01*
X114332856Y-83238595D02*
X114213808Y-83238595D01*
X114213808Y-83238595D02*
X114142380Y-83262405D01*
X114142380Y-83262405D02*
X114094761Y-83310024D01*
X114094761Y-83310024D02*
X114070951Y-83357643D01*
X114070951Y-83357643D02*
X114047142Y-83452881D01*
X114047142Y-83452881D02*
X114047142Y-83524309D01*
X114047142Y-83524309D02*
X114070951Y-83619547D01*
X114070951Y-83619547D02*
X114094761Y-83667166D01*
X114094761Y-83667166D02*
X114142380Y-83714786D01*
X114142380Y-83714786D02*
X114213808Y-83738595D01*
X114213808Y-83738595D02*
X114332856Y-83738595D01*
X113547142Y-83690976D02*
X113570951Y-83714786D01*
X113570951Y-83714786D02*
X113642380Y-83738595D01*
X113642380Y-83738595D02*
X113689999Y-83738595D01*
X113689999Y-83738595D02*
X113761427Y-83714786D01*
X113761427Y-83714786D02*
X113809046Y-83667166D01*
X113809046Y-83667166D02*
X113832856Y-83619547D01*
X113832856Y-83619547D02*
X113856665Y-83524309D01*
X113856665Y-83524309D02*
X113856665Y-83452881D01*
X113856665Y-83452881D02*
X113832856Y-83357643D01*
X113832856Y-83357643D02*
X113809046Y-83310024D01*
X113809046Y-83310024D02*
X113761427Y-83262405D01*
X113761427Y-83262405D02*
X113689999Y-83238595D01*
X113689999Y-83238595D02*
X113642380Y-83238595D01*
X113642380Y-83238595D02*
X113570951Y-83262405D01*
X113570951Y-83262405D02*
X113547142Y-83286214D01*
X113237618Y-83238595D02*
X113189999Y-83238595D01*
X113189999Y-83238595D02*
X113142380Y-83262405D01*
X113142380Y-83262405D02*
X113118570Y-83286214D01*
X113118570Y-83286214D02*
X113094761Y-83333833D01*
X113094761Y-83333833D02*
X113070951Y-83429071D01*
X113070951Y-83429071D02*
X113070951Y-83548119D01*
X113070951Y-83548119D02*
X113094761Y-83643357D01*
X113094761Y-83643357D02*
X113118570Y-83690976D01*
X113118570Y-83690976D02*
X113142380Y-83714786D01*
X113142380Y-83714786D02*
X113189999Y-83738595D01*
X113189999Y-83738595D02*
X113237618Y-83738595D01*
X113237618Y-83738595D02*
X113285237Y-83714786D01*
X113285237Y-83714786D02*
X113309046Y-83690976D01*
X113309046Y-83690976D02*
X113332856Y-83643357D01*
X113332856Y-83643357D02*
X113356665Y-83548119D01*
X113356665Y-83548119D02*
X113356665Y-83429071D01*
X113356665Y-83429071D02*
X113332856Y-83333833D01*
X113332856Y-83333833D02*
X113309046Y-83286214D01*
X113309046Y-83286214D02*
X113285237Y-83262405D01*
X113285237Y-83262405D02*
X113237618Y-83238595D01*
X115166189Y-100639919D02*
X115213808Y-100616109D01*
X115213808Y-100616109D02*
X115285237Y-100616109D01*
X115285237Y-100616109D02*
X115356665Y-100639919D01*
X115356665Y-100639919D02*
X115404284Y-100687538D01*
X115404284Y-100687538D02*
X115428094Y-100735157D01*
X115428094Y-100735157D02*
X115451903Y-100830395D01*
X115451903Y-100830395D02*
X115451903Y-100901823D01*
X115451903Y-100901823D02*
X115428094Y-100997061D01*
X115428094Y-100997061D02*
X115404284Y-101044680D01*
X115404284Y-101044680D02*
X115356665Y-101092300D01*
X115356665Y-101092300D02*
X115285237Y-101116109D01*
X115285237Y-101116109D02*
X115237618Y-101116109D01*
X115237618Y-101116109D02*
X115166189Y-101092300D01*
X115166189Y-101092300D02*
X115142380Y-101068490D01*
X115142380Y-101068490D02*
X115142380Y-100901823D01*
X115142380Y-100901823D02*
X115237618Y-100901823D01*
X114928094Y-101116109D02*
X114928094Y-100616109D01*
X114928094Y-100616109D02*
X114737618Y-100616109D01*
X114737618Y-100616109D02*
X114689999Y-100639919D01*
X114689999Y-100639919D02*
X114666189Y-100663728D01*
X114666189Y-100663728D02*
X114642380Y-100711347D01*
X114642380Y-100711347D02*
X114642380Y-100782776D01*
X114642380Y-100782776D02*
X114666189Y-100830395D01*
X114666189Y-100830395D02*
X114689999Y-100854204D01*
X114689999Y-100854204D02*
X114737618Y-100878014D01*
X114737618Y-100878014D02*
X114928094Y-100878014D01*
X114428094Y-101116109D02*
X114428094Y-100616109D01*
X114094761Y-100616109D02*
X113999523Y-100616109D01*
X113999523Y-100616109D02*
X113951904Y-100639919D01*
X113951904Y-100639919D02*
X113904285Y-100687538D01*
X113904285Y-100687538D02*
X113880475Y-100782776D01*
X113880475Y-100782776D02*
X113880475Y-100949442D01*
X113880475Y-100949442D02*
X113904285Y-101044680D01*
X113904285Y-101044680D02*
X113951904Y-101092300D01*
X113951904Y-101092300D02*
X113999523Y-101116109D01*
X113999523Y-101116109D02*
X114094761Y-101116109D01*
X114094761Y-101116109D02*
X114142380Y-101092300D01*
X114142380Y-101092300D02*
X114189999Y-101044680D01*
X114189999Y-101044680D02*
X114213808Y-100949442D01*
X114213808Y-100949442D02*
X114213808Y-100782776D01*
X114213808Y-100782776D02*
X114189999Y-100687538D01*
X114189999Y-100687538D02*
X114142380Y-100639919D01*
X114142380Y-100639919D02*
X114094761Y-100616109D01*
X113689998Y-100663728D02*
X113666189Y-100639919D01*
X113666189Y-100639919D02*
X113618570Y-100616109D01*
X113618570Y-100616109D02*
X113499522Y-100616109D01*
X113499522Y-100616109D02*
X113451903Y-100639919D01*
X113451903Y-100639919D02*
X113428094Y-100663728D01*
X113428094Y-100663728D02*
X113404284Y-100711347D01*
X113404284Y-100711347D02*
X113404284Y-100758966D01*
X113404284Y-100758966D02*
X113428094Y-100830395D01*
X113428094Y-100830395D02*
X113713808Y-101116109D01*
X113713808Y-101116109D02*
X113404284Y-101116109D01*
X112928094Y-101116109D02*
X113213808Y-101116109D01*
X113070951Y-101116109D02*
X113070951Y-100616109D01*
X113070951Y-100616109D02*
X113118570Y-100687538D01*
X113118570Y-100687538D02*
X113166189Y-100735157D01*
X113166189Y-100735157D02*
X113213808Y-100758966D01*
X102786189Y-77779919D02*
X102833808Y-77756109D01*
X102833808Y-77756109D02*
X102905237Y-77756109D01*
X102905237Y-77756109D02*
X102976665Y-77779919D01*
X102976665Y-77779919D02*
X103024284Y-77827538D01*
X103024284Y-77827538D02*
X103048094Y-77875157D01*
X103048094Y-77875157D02*
X103071903Y-77970395D01*
X103071903Y-77970395D02*
X103071903Y-78041823D01*
X103071903Y-78041823D02*
X103048094Y-78137061D01*
X103048094Y-78137061D02*
X103024284Y-78184680D01*
X103024284Y-78184680D02*
X102976665Y-78232300D01*
X102976665Y-78232300D02*
X102905237Y-78256109D01*
X102905237Y-78256109D02*
X102857618Y-78256109D01*
X102857618Y-78256109D02*
X102786189Y-78232300D01*
X102786189Y-78232300D02*
X102762380Y-78208490D01*
X102762380Y-78208490D02*
X102762380Y-78041823D01*
X102762380Y-78041823D02*
X102857618Y-78041823D01*
X102548094Y-78256109D02*
X102548094Y-77756109D01*
X102548094Y-77756109D02*
X102357618Y-77756109D01*
X102357618Y-77756109D02*
X102309999Y-77779919D01*
X102309999Y-77779919D02*
X102286189Y-77803728D01*
X102286189Y-77803728D02*
X102262380Y-77851347D01*
X102262380Y-77851347D02*
X102262380Y-77922776D01*
X102262380Y-77922776D02*
X102286189Y-77970395D01*
X102286189Y-77970395D02*
X102309999Y-77994204D01*
X102309999Y-77994204D02*
X102357618Y-78018014D01*
X102357618Y-78018014D02*
X102548094Y-78018014D01*
X102048094Y-78256109D02*
X102048094Y-77756109D01*
X101714761Y-77756109D02*
X101619523Y-77756109D01*
X101619523Y-77756109D02*
X101571904Y-77779919D01*
X101571904Y-77779919D02*
X101524285Y-77827538D01*
X101524285Y-77827538D02*
X101500475Y-77922776D01*
X101500475Y-77922776D02*
X101500475Y-78089442D01*
X101500475Y-78089442D02*
X101524285Y-78184680D01*
X101524285Y-78184680D02*
X101571904Y-78232300D01*
X101571904Y-78232300D02*
X101619523Y-78256109D01*
X101619523Y-78256109D02*
X101714761Y-78256109D01*
X101714761Y-78256109D02*
X101762380Y-78232300D01*
X101762380Y-78232300D02*
X101809999Y-78184680D01*
X101809999Y-78184680D02*
X101833808Y-78089442D01*
X101833808Y-78089442D02*
X101833808Y-77922776D01*
X101833808Y-77922776D02*
X101809999Y-77827538D01*
X101809999Y-77827538D02*
X101762380Y-77779919D01*
X101762380Y-77779919D02*
X101714761Y-77756109D01*
X101190951Y-77756109D02*
X101143332Y-77756109D01*
X101143332Y-77756109D02*
X101095713Y-77779919D01*
X101095713Y-77779919D02*
X101071903Y-77803728D01*
X101071903Y-77803728D02*
X101048094Y-77851347D01*
X101048094Y-77851347D02*
X101024284Y-77946585D01*
X101024284Y-77946585D02*
X101024284Y-78065633D01*
X101024284Y-78065633D02*
X101048094Y-78160871D01*
X101048094Y-78160871D02*
X101071903Y-78208490D01*
X101071903Y-78208490D02*
X101095713Y-78232300D01*
X101095713Y-78232300D02*
X101143332Y-78256109D01*
X101143332Y-78256109D02*
X101190951Y-78256109D01*
X101190951Y-78256109D02*
X101238570Y-78232300D01*
X101238570Y-78232300D02*
X101262379Y-78208490D01*
X101262379Y-78208490D02*
X101286189Y-78160871D01*
X101286189Y-78160871D02*
X101309998Y-78065633D01*
X101309998Y-78065633D02*
X101309998Y-77946585D01*
X101309998Y-77946585D02*
X101286189Y-77851347D01*
X101286189Y-77851347D02*
X101262379Y-77803728D01*
X101262379Y-77803728D02*
X101238570Y-77779919D01*
X101238570Y-77779919D02*
X101190951Y-77756109D01*
X100857618Y-77756109D02*
X100548094Y-77756109D01*
X100548094Y-77756109D02*
X100714761Y-77946585D01*
X100714761Y-77946585D02*
X100643332Y-77946585D01*
X100643332Y-77946585D02*
X100595713Y-77970395D01*
X100595713Y-77970395D02*
X100571904Y-77994204D01*
X100571904Y-77994204D02*
X100548094Y-78041823D01*
X100548094Y-78041823D02*
X100548094Y-78160871D01*
X100548094Y-78160871D02*
X100571904Y-78208490D01*
X100571904Y-78208490D02*
X100595713Y-78232300D01*
X100595713Y-78232300D02*
X100643332Y-78256109D01*
X100643332Y-78256109D02*
X100786189Y-78256109D01*
X100786189Y-78256109D02*
X100833808Y-78232300D01*
X100833808Y-78232300D02*
X100857618Y-78208490D01*
X102786189Y-82859919D02*
X102833808Y-82836109D01*
X102833808Y-82836109D02*
X102905237Y-82836109D01*
X102905237Y-82836109D02*
X102976665Y-82859919D01*
X102976665Y-82859919D02*
X103024284Y-82907538D01*
X103024284Y-82907538D02*
X103048094Y-82955157D01*
X103048094Y-82955157D02*
X103071903Y-83050395D01*
X103071903Y-83050395D02*
X103071903Y-83121823D01*
X103071903Y-83121823D02*
X103048094Y-83217061D01*
X103048094Y-83217061D02*
X103024284Y-83264680D01*
X103024284Y-83264680D02*
X102976665Y-83312300D01*
X102976665Y-83312300D02*
X102905237Y-83336109D01*
X102905237Y-83336109D02*
X102857618Y-83336109D01*
X102857618Y-83336109D02*
X102786189Y-83312300D01*
X102786189Y-83312300D02*
X102762380Y-83288490D01*
X102762380Y-83288490D02*
X102762380Y-83121823D01*
X102762380Y-83121823D02*
X102857618Y-83121823D01*
X102548094Y-83336109D02*
X102548094Y-82836109D01*
X102548094Y-82836109D02*
X102357618Y-82836109D01*
X102357618Y-82836109D02*
X102309999Y-82859919D01*
X102309999Y-82859919D02*
X102286189Y-82883728D01*
X102286189Y-82883728D02*
X102262380Y-82931347D01*
X102262380Y-82931347D02*
X102262380Y-83002776D01*
X102262380Y-83002776D02*
X102286189Y-83050395D01*
X102286189Y-83050395D02*
X102309999Y-83074204D01*
X102309999Y-83074204D02*
X102357618Y-83098014D01*
X102357618Y-83098014D02*
X102548094Y-83098014D01*
X102048094Y-83336109D02*
X102048094Y-82836109D01*
X101714761Y-82836109D02*
X101619523Y-82836109D01*
X101619523Y-82836109D02*
X101571904Y-82859919D01*
X101571904Y-82859919D02*
X101524285Y-82907538D01*
X101524285Y-82907538D02*
X101500475Y-83002776D01*
X101500475Y-83002776D02*
X101500475Y-83169442D01*
X101500475Y-83169442D02*
X101524285Y-83264680D01*
X101524285Y-83264680D02*
X101571904Y-83312300D01*
X101571904Y-83312300D02*
X101619523Y-83336109D01*
X101619523Y-83336109D02*
X101714761Y-83336109D01*
X101714761Y-83336109D02*
X101762380Y-83312300D01*
X101762380Y-83312300D02*
X101809999Y-83264680D01*
X101809999Y-83264680D02*
X101833808Y-83169442D01*
X101833808Y-83169442D02*
X101833808Y-83002776D01*
X101833808Y-83002776D02*
X101809999Y-82907538D01*
X101809999Y-82907538D02*
X101762380Y-82859919D01*
X101762380Y-82859919D02*
X101714761Y-82836109D01*
X101190951Y-82836109D02*
X101143332Y-82836109D01*
X101143332Y-82836109D02*
X101095713Y-82859919D01*
X101095713Y-82859919D02*
X101071903Y-82883728D01*
X101071903Y-82883728D02*
X101048094Y-82931347D01*
X101048094Y-82931347D02*
X101024284Y-83026585D01*
X101024284Y-83026585D02*
X101024284Y-83145633D01*
X101024284Y-83145633D02*
X101048094Y-83240871D01*
X101048094Y-83240871D02*
X101071903Y-83288490D01*
X101071903Y-83288490D02*
X101095713Y-83312300D01*
X101095713Y-83312300D02*
X101143332Y-83336109D01*
X101143332Y-83336109D02*
X101190951Y-83336109D01*
X101190951Y-83336109D02*
X101238570Y-83312300D01*
X101238570Y-83312300D02*
X101262379Y-83288490D01*
X101262379Y-83288490D02*
X101286189Y-83240871D01*
X101286189Y-83240871D02*
X101309998Y-83145633D01*
X101309998Y-83145633D02*
X101309998Y-83026585D01*
X101309998Y-83026585D02*
X101286189Y-82931347D01*
X101286189Y-82931347D02*
X101262379Y-82883728D01*
X101262379Y-82883728D02*
X101238570Y-82859919D01*
X101238570Y-82859919D02*
X101190951Y-82836109D01*
X100571904Y-82836109D02*
X100809999Y-82836109D01*
X100809999Y-82836109D02*
X100833808Y-83074204D01*
X100833808Y-83074204D02*
X100809999Y-83050395D01*
X100809999Y-83050395D02*
X100762380Y-83026585D01*
X100762380Y-83026585D02*
X100643332Y-83026585D01*
X100643332Y-83026585D02*
X100595713Y-83050395D01*
X100595713Y-83050395D02*
X100571904Y-83074204D01*
X100571904Y-83074204D02*
X100548094Y-83121823D01*
X100548094Y-83121823D02*
X100548094Y-83240871D01*
X100548094Y-83240871D02*
X100571904Y-83288490D01*
X100571904Y-83288490D02*
X100595713Y-83312300D01*
X100595713Y-83312300D02*
X100643332Y-83336109D01*
X100643332Y-83336109D02*
X100762380Y-83336109D01*
X100762380Y-83336109D02*
X100809999Y-83312300D01*
X100809999Y-83312300D02*
X100833808Y-83288490D01*
X115166189Y-108259919D02*
X115213808Y-108236109D01*
X115213808Y-108236109D02*
X115285237Y-108236109D01*
X115285237Y-108236109D02*
X115356665Y-108259919D01*
X115356665Y-108259919D02*
X115404284Y-108307538D01*
X115404284Y-108307538D02*
X115428094Y-108355157D01*
X115428094Y-108355157D02*
X115451903Y-108450395D01*
X115451903Y-108450395D02*
X115451903Y-108521823D01*
X115451903Y-108521823D02*
X115428094Y-108617061D01*
X115428094Y-108617061D02*
X115404284Y-108664680D01*
X115404284Y-108664680D02*
X115356665Y-108712300D01*
X115356665Y-108712300D02*
X115285237Y-108736109D01*
X115285237Y-108736109D02*
X115237618Y-108736109D01*
X115237618Y-108736109D02*
X115166189Y-108712300D01*
X115166189Y-108712300D02*
X115142380Y-108688490D01*
X115142380Y-108688490D02*
X115142380Y-108521823D01*
X115142380Y-108521823D02*
X115237618Y-108521823D01*
X114928094Y-108736109D02*
X114928094Y-108236109D01*
X114928094Y-108236109D02*
X114737618Y-108236109D01*
X114737618Y-108236109D02*
X114689999Y-108259919D01*
X114689999Y-108259919D02*
X114666189Y-108283728D01*
X114666189Y-108283728D02*
X114642380Y-108331347D01*
X114642380Y-108331347D02*
X114642380Y-108402776D01*
X114642380Y-108402776D02*
X114666189Y-108450395D01*
X114666189Y-108450395D02*
X114689999Y-108474204D01*
X114689999Y-108474204D02*
X114737618Y-108498014D01*
X114737618Y-108498014D02*
X114928094Y-108498014D01*
X114428094Y-108736109D02*
X114428094Y-108236109D01*
X114094761Y-108236109D02*
X113999523Y-108236109D01*
X113999523Y-108236109D02*
X113951904Y-108259919D01*
X113951904Y-108259919D02*
X113904285Y-108307538D01*
X113904285Y-108307538D02*
X113880475Y-108402776D01*
X113880475Y-108402776D02*
X113880475Y-108569442D01*
X113880475Y-108569442D02*
X113904285Y-108664680D01*
X113904285Y-108664680D02*
X113951904Y-108712300D01*
X113951904Y-108712300D02*
X113999523Y-108736109D01*
X113999523Y-108736109D02*
X114094761Y-108736109D01*
X114094761Y-108736109D02*
X114142380Y-108712300D01*
X114142380Y-108712300D02*
X114189999Y-108664680D01*
X114189999Y-108664680D02*
X114213808Y-108569442D01*
X114213808Y-108569442D02*
X114213808Y-108402776D01*
X114213808Y-108402776D02*
X114189999Y-108307538D01*
X114189999Y-108307538D02*
X114142380Y-108259919D01*
X114142380Y-108259919D02*
X114094761Y-108236109D01*
X113404284Y-108736109D02*
X113689998Y-108736109D01*
X113547141Y-108736109D02*
X113547141Y-108236109D01*
X113547141Y-108236109D02*
X113594760Y-108307538D01*
X113594760Y-108307538D02*
X113642379Y-108355157D01*
X113642379Y-108355157D02*
X113689998Y-108378966D01*
X113118570Y-108450395D02*
X113166189Y-108426585D01*
X113166189Y-108426585D02*
X113189999Y-108402776D01*
X113189999Y-108402776D02*
X113213808Y-108355157D01*
X113213808Y-108355157D02*
X113213808Y-108331347D01*
X113213808Y-108331347D02*
X113189999Y-108283728D01*
X113189999Y-108283728D02*
X113166189Y-108259919D01*
X113166189Y-108259919D02*
X113118570Y-108236109D01*
X113118570Y-108236109D02*
X113023332Y-108236109D01*
X113023332Y-108236109D02*
X112975713Y-108259919D01*
X112975713Y-108259919D02*
X112951904Y-108283728D01*
X112951904Y-108283728D02*
X112928094Y-108331347D01*
X112928094Y-108331347D02*
X112928094Y-108355157D01*
X112928094Y-108355157D02*
X112951904Y-108402776D01*
X112951904Y-108402776D02*
X112975713Y-108426585D01*
X112975713Y-108426585D02*
X113023332Y-108450395D01*
X113023332Y-108450395D02*
X113118570Y-108450395D01*
X113118570Y-108450395D02*
X113166189Y-108474204D01*
X113166189Y-108474204D02*
X113189999Y-108498014D01*
X113189999Y-108498014D02*
X113213808Y-108545633D01*
X113213808Y-108545633D02*
X113213808Y-108640871D01*
X113213808Y-108640871D02*
X113189999Y-108688490D01*
X113189999Y-108688490D02*
X113166189Y-108712300D01*
X113166189Y-108712300D02*
X113118570Y-108736109D01*
X113118570Y-108736109D02*
X113023332Y-108736109D01*
X113023332Y-108736109D02*
X112975713Y-108712300D01*
X112975713Y-108712300D02*
X112951904Y-108688490D01*
X112951904Y-108688490D02*
X112928094Y-108640871D01*
X112928094Y-108640871D02*
X112928094Y-108545633D01*
X112928094Y-108545633D02*
X112951904Y-108498014D01*
X112951904Y-108498014D02*
X112975713Y-108474204D01*
X112975713Y-108474204D02*
X113023332Y-108450395D01*
X115166189Y-115879919D02*
X115213808Y-115856109D01*
X115213808Y-115856109D02*
X115285237Y-115856109D01*
X115285237Y-115856109D02*
X115356665Y-115879919D01*
X115356665Y-115879919D02*
X115404284Y-115927538D01*
X115404284Y-115927538D02*
X115428094Y-115975157D01*
X115428094Y-115975157D02*
X115451903Y-116070395D01*
X115451903Y-116070395D02*
X115451903Y-116141823D01*
X115451903Y-116141823D02*
X115428094Y-116237061D01*
X115428094Y-116237061D02*
X115404284Y-116284680D01*
X115404284Y-116284680D02*
X115356665Y-116332300D01*
X115356665Y-116332300D02*
X115285237Y-116356109D01*
X115285237Y-116356109D02*
X115237618Y-116356109D01*
X115237618Y-116356109D02*
X115166189Y-116332300D01*
X115166189Y-116332300D02*
X115142380Y-116308490D01*
X115142380Y-116308490D02*
X115142380Y-116141823D01*
X115142380Y-116141823D02*
X115237618Y-116141823D01*
X114928094Y-116356109D02*
X114928094Y-115856109D01*
X114928094Y-115856109D02*
X114737618Y-115856109D01*
X114737618Y-115856109D02*
X114689999Y-115879919D01*
X114689999Y-115879919D02*
X114666189Y-115903728D01*
X114666189Y-115903728D02*
X114642380Y-115951347D01*
X114642380Y-115951347D02*
X114642380Y-116022776D01*
X114642380Y-116022776D02*
X114666189Y-116070395D01*
X114666189Y-116070395D02*
X114689999Y-116094204D01*
X114689999Y-116094204D02*
X114737618Y-116118014D01*
X114737618Y-116118014D02*
X114928094Y-116118014D01*
X114428094Y-116356109D02*
X114428094Y-115856109D01*
X114094761Y-115856109D02*
X113999523Y-115856109D01*
X113999523Y-115856109D02*
X113951904Y-115879919D01*
X113951904Y-115879919D02*
X113904285Y-115927538D01*
X113904285Y-115927538D02*
X113880475Y-116022776D01*
X113880475Y-116022776D02*
X113880475Y-116189442D01*
X113880475Y-116189442D02*
X113904285Y-116284680D01*
X113904285Y-116284680D02*
X113951904Y-116332300D01*
X113951904Y-116332300D02*
X113999523Y-116356109D01*
X113999523Y-116356109D02*
X114094761Y-116356109D01*
X114094761Y-116356109D02*
X114142380Y-116332300D01*
X114142380Y-116332300D02*
X114189999Y-116284680D01*
X114189999Y-116284680D02*
X114213808Y-116189442D01*
X114213808Y-116189442D02*
X114213808Y-116022776D01*
X114213808Y-116022776D02*
X114189999Y-115927538D01*
X114189999Y-115927538D02*
X114142380Y-115879919D01*
X114142380Y-115879919D02*
X114094761Y-115856109D01*
X113404284Y-116356109D02*
X113689998Y-116356109D01*
X113547141Y-116356109D02*
X113547141Y-115856109D01*
X113547141Y-115856109D02*
X113594760Y-115927538D01*
X113594760Y-115927538D02*
X113642379Y-115975157D01*
X113642379Y-115975157D02*
X113689998Y-115998966D01*
X112975713Y-115856109D02*
X113070951Y-115856109D01*
X113070951Y-115856109D02*
X113118570Y-115879919D01*
X113118570Y-115879919D02*
X113142380Y-115903728D01*
X113142380Y-115903728D02*
X113189999Y-115975157D01*
X113189999Y-115975157D02*
X113213808Y-116070395D01*
X113213808Y-116070395D02*
X113213808Y-116260871D01*
X113213808Y-116260871D02*
X113189999Y-116308490D01*
X113189999Y-116308490D02*
X113166189Y-116332300D01*
X113166189Y-116332300D02*
X113118570Y-116356109D01*
X113118570Y-116356109D02*
X113023332Y-116356109D01*
X113023332Y-116356109D02*
X112975713Y-116332300D01*
X112975713Y-116332300D02*
X112951904Y-116308490D01*
X112951904Y-116308490D02*
X112928094Y-116260871D01*
X112928094Y-116260871D02*
X112928094Y-116141823D01*
X112928094Y-116141823D02*
X112951904Y-116094204D01*
X112951904Y-116094204D02*
X112975713Y-116070395D01*
X112975713Y-116070395D02*
X113023332Y-116046585D01*
X113023332Y-116046585D02*
X113118570Y-116046585D01*
X113118570Y-116046585D02*
X113166189Y-116070395D01*
X113166189Y-116070395D02*
X113189999Y-116094204D01*
X113189999Y-116094204D02*
X113213808Y-116141823D01*
X115070951Y-78065633D02*
X114689999Y-78065633D01*
X114880475Y-78256109D02*
X114880475Y-77875157D01*
X114499522Y-77756109D02*
X114189998Y-77756109D01*
X114189998Y-77756109D02*
X114356665Y-77946585D01*
X114356665Y-77946585D02*
X114285236Y-77946585D01*
X114285236Y-77946585D02*
X114237617Y-77970395D01*
X114237617Y-77970395D02*
X114213808Y-77994204D01*
X114213808Y-77994204D02*
X114189998Y-78041823D01*
X114189998Y-78041823D02*
X114189998Y-78160871D01*
X114189998Y-78160871D02*
X114213808Y-78208490D01*
X114213808Y-78208490D02*
X114237617Y-78232300D01*
X114237617Y-78232300D02*
X114285236Y-78256109D01*
X114285236Y-78256109D02*
X114428093Y-78256109D01*
X114428093Y-78256109D02*
X114475712Y-78232300D01*
X114475712Y-78232300D02*
X114499522Y-78208490D01*
X114047141Y-77756109D02*
X113880475Y-78256109D01*
X113880475Y-78256109D02*
X113713808Y-77756109D01*
X113594761Y-77756109D02*
X113285237Y-77756109D01*
X113285237Y-77756109D02*
X113451904Y-77946585D01*
X113451904Y-77946585D02*
X113380475Y-77946585D01*
X113380475Y-77946585D02*
X113332856Y-77970395D01*
X113332856Y-77970395D02*
X113309047Y-77994204D01*
X113309047Y-77994204D02*
X113285237Y-78041823D01*
X113285237Y-78041823D02*
X113285237Y-78160871D01*
X113285237Y-78160871D02*
X113309047Y-78208490D01*
X113309047Y-78208490D02*
X113332856Y-78232300D01*
X113332856Y-78232300D02*
X113380475Y-78256109D01*
X113380475Y-78256109D02*
X113523332Y-78256109D01*
X113523332Y-78256109D02*
X113570951Y-78232300D01*
X113570951Y-78232300D02*
X113594761Y-78208490D01*
X106519523Y-114392300D02*
X106448095Y-114416109D01*
X106448095Y-114416109D02*
X106329047Y-114416109D01*
X106329047Y-114416109D02*
X106281428Y-114392300D01*
X106281428Y-114392300D02*
X106257619Y-114368490D01*
X106257619Y-114368490D02*
X106233809Y-114320871D01*
X106233809Y-114320871D02*
X106233809Y-114273252D01*
X106233809Y-114273252D02*
X106257619Y-114225633D01*
X106257619Y-114225633D02*
X106281428Y-114201823D01*
X106281428Y-114201823D02*
X106329047Y-114178014D01*
X106329047Y-114178014D02*
X106424285Y-114154204D01*
X106424285Y-114154204D02*
X106471904Y-114130395D01*
X106471904Y-114130395D02*
X106495714Y-114106585D01*
X106495714Y-114106585D02*
X106519523Y-114058966D01*
X106519523Y-114058966D02*
X106519523Y-114011347D01*
X106519523Y-114011347D02*
X106495714Y-113963728D01*
X106495714Y-113963728D02*
X106471904Y-113939919D01*
X106471904Y-113939919D02*
X106424285Y-113916109D01*
X106424285Y-113916109D02*
X106305238Y-113916109D01*
X106305238Y-113916109D02*
X106233809Y-113939919D01*
X106067143Y-113916109D02*
X105948095Y-114416109D01*
X105948095Y-114416109D02*
X105852857Y-114058966D01*
X105852857Y-114058966D02*
X105757619Y-114416109D01*
X105757619Y-114416109D02*
X105638572Y-113916109D01*
X105448095Y-114416109D02*
X105448095Y-113916109D01*
X105448095Y-113916109D02*
X105329047Y-113916109D01*
X105329047Y-113916109D02*
X105257619Y-113939919D01*
X105257619Y-113939919D02*
X105210000Y-113987538D01*
X105210000Y-113987538D02*
X105186190Y-114035157D01*
X105186190Y-114035157D02*
X105162381Y-114130395D01*
X105162381Y-114130395D02*
X105162381Y-114201823D01*
X105162381Y-114201823D02*
X105186190Y-114297061D01*
X105186190Y-114297061D02*
X105210000Y-114344680D01*
X105210000Y-114344680D02*
X105257619Y-114392300D01*
X105257619Y-114392300D02*
X105329047Y-114416109D01*
X105329047Y-114416109D02*
X105448095Y-114416109D01*
X104948095Y-114416109D02*
X104948095Y-113916109D01*
X104614762Y-113916109D02*
X104519524Y-113916109D01*
X104519524Y-113916109D02*
X104471905Y-113939919D01*
X104471905Y-113939919D02*
X104424286Y-113987538D01*
X104424286Y-113987538D02*
X104400476Y-114082776D01*
X104400476Y-114082776D02*
X104400476Y-114249442D01*
X104400476Y-114249442D02*
X104424286Y-114344680D01*
X104424286Y-114344680D02*
X104471905Y-114392300D01*
X104471905Y-114392300D02*
X104519524Y-114416109D01*
X104519524Y-114416109D02*
X104614762Y-114416109D01*
X104614762Y-114416109D02*
X104662381Y-114392300D01*
X104662381Y-114392300D02*
X104710000Y-114344680D01*
X104710000Y-114344680D02*
X104733809Y-114249442D01*
X104733809Y-114249442D02*
X104733809Y-114082776D01*
X104733809Y-114082776D02*
X104710000Y-113987538D01*
X104710000Y-113987538D02*
X104662381Y-113939919D01*
X104662381Y-113939919D02*
X104614762Y-113916109D01*
X102786189Y-70159919D02*
X102833808Y-70136109D01*
X102833808Y-70136109D02*
X102905237Y-70136109D01*
X102905237Y-70136109D02*
X102976665Y-70159919D01*
X102976665Y-70159919D02*
X103024284Y-70207538D01*
X103024284Y-70207538D02*
X103048094Y-70255157D01*
X103048094Y-70255157D02*
X103071903Y-70350395D01*
X103071903Y-70350395D02*
X103071903Y-70421823D01*
X103071903Y-70421823D02*
X103048094Y-70517061D01*
X103048094Y-70517061D02*
X103024284Y-70564680D01*
X103024284Y-70564680D02*
X102976665Y-70612300D01*
X102976665Y-70612300D02*
X102905237Y-70636109D01*
X102905237Y-70636109D02*
X102857618Y-70636109D01*
X102857618Y-70636109D02*
X102786189Y-70612300D01*
X102786189Y-70612300D02*
X102762380Y-70588490D01*
X102762380Y-70588490D02*
X102762380Y-70421823D01*
X102762380Y-70421823D02*
X102857618Y-70421823D01*
X102548094Y-70636109D02*
X102548094Y-70136109D01*
X102548094Y-70136109D02*
X102357618Y-70136109D01*
X102357618Y-70136109D02*
X102309999Y-70159919D01*
X102309999Y-70159919D02*
X102286189Y-70183728D01*
X102286189Y-70183728D02*
X102262380Y-70231347D01*
X102262380Y-70231347D02*
X102262380Y-70302776D01*
X102262380Y-70302776D02*
X102286189Y-70350395D01*
X102286189Y-70350395D02*
X102309999Y-70374204D01*
X102309999Y-70374204D02*
X102357618Y-70398014D01*
X102357618Y-70398014D02*
X102548094Y-70398014D01*
X102048094Y-70636109D02*
X102048094Y-70136109D01*
X101714761Y-70136109D02*
X101619523Y-70136109D01*
X101619523Y-70136109D02*
X101571904Y-70159919D01*
X101571904Y-70159919D02*
X101524285Y-70207538D01*
X101524285Y-70207538D02*
X101500475Y-70302776D01*
X101500475Y-70302776D02*
X101500475Y-70469442D01*
X101500475Y-70469442D02*
X101524285Y-70564680D01*
X101524285Y-70564680D02*
X101571904Y-70612300D01*
X101571904Y-70612300D02*
X101619523Y-70636109D01*
X101619523Y-70636109D02*
X101714761Y-70636109D01*
X101714761Y-70636109D02*
X101762380Y-70612300D01*
X101762380Y-70612300D02*
X101809999Y-70564680D01*
X101809999Y-70564680D02*
X101833808Y-70469442D01*
X101833808Y-70469442D02*
X101833808Y-70302776D01*
X101833808Y-70302776D02*
X101809999Y-70207538D01*
X101809999Y-70207538D02*
X101762380Y-70159919D01*
X101762380Y-70159919D02*
X101714761Y-70136109D01*
X101190951Y-70136109D02*
X101143332Y-70136109D01*
X101143332Y-70136109D02*
X101095713Y-70159919D01*
X101095713Y-70159919D02*
X101071903Y-70183728D01*
X101071903Y-70183728D02*
X101048094Y-70231347D01*
X101048094Y-70231347D02*
X101024284Y-70326585D01*
X101024284Y-70326585D02*
X101024284Y-70445633D01*
X101024284Y-70445633D02*
X101048094Y-70540871D01*
X101048094Y-70540871D02*
X101071903Y-70588490D01*
X101071903Y-70588490D02*
X101095713Y-70612300D01*
X101095713Y-70612300D02*
X101143332Y-70636109D01*
X101143332Y-70636109D02*
X101190951Y-70636109D01*
X101190951Y-70636109D02*
X101238570Y-70612300D01*
X101238570Y-70612300D02*
X101262379Y-70588490D01*
X101262379Y-70588490D02*
X101286189Y-70540871D01*
X101286189Y-70540871D02*
X101309998Y-70445633D01*
X101309998Y-70445633D02*
X101309998Y-70326585D01*
X101309998Y-70326585D02*
X101286189Y-70231347D01*
X101286189Y-70231347D02*
X101262379Y-70183728D01*
X101262379Y-70183728D02*
X101238570Y-70159919D01*
X101238570Y-70159919D02*
X101190951Y-70136109D01*
X100548094Y-70636109D02*
X100833808Y-70636109D01*
X100690951Y-70636109D02*
X100690951Y-70136109D01*
X100690951Y-70136109D02*
X100738570Y-70207538D01*
X100738570Y-70207538D02*
X100786189Y-70255157D01*
X100786189Y-70255157D02*
X100833808Y-70278966D01*
X115166189Y-105719919D02*
X115213808Y-105696109D01*
X115213808Y-105696109D02*
X115285237Y-105696109D01*
X115285237Y-105696109D02*
X115356665Y-105719919D01*
X115356665Y-105719919D02*
X115404284Y-105767538D01*
X115404284Y-105767538D02*
X115428094Y-105815157D01*
X115428094Y-105815157D02*
X115451903Y-105910395D01*
X115451903Y-105910395D02*
X115451903Y-105981823D01*
X115451903Y-105981823D02*
X115428094Y-106077061D01*
X115428094Y-106077061D02*
X115404284Y-106124680D01*
X115404284Y-106124680D02*
X115356665Y-106172300D01*
X115356665Y-106172300D02*
X115285237Y-106196109D01*
X115285237Y-106196109D02*
X115237618Y-106196109D01*
X115237618Y-106196109D02*
X115166189Y-106172300D01*
X115166189Y-106172300D02*
X115142380Y-106148490D01*
X115142380Y-106148490D02*
X115142380Y-105981823D01*
X115142380Y-105981823D02*
X115237618Y-105981823D01*
X114928094Y-106196109D02*
X114928094Y-105696109D01*
X114928094Y-105696109D02*
X114737618Y-105696109D01*
X114737618Y-105696109D02*
X114689999Y-105719919D01*
X114689999Y-105719919D02*
X114666189Y-105743728D01*
X114666189Y-105743728D02*
X114642380Y-105791347D01*
X114642380Y-105791347D02*
X114642380Y-105862776D01*
X114642380Y-105862776D02*
X114666189Y-105910395D01*
X114666189Y-105910395D02*
X114689999Y-105934204D01*
X114689999Y-105934204D02*
X114737618Y-105958014D01*
X114737618Y-105958014D02*
X114928094Y-105958014D01*
X114428094Y-106196109D02*
X114428094Y-105696109D01*
X114094761Y-105696109D02*
X113999523Y-105696109D01*
X113999523Y-105696109D02*
X113951904Y-105719919D01*
X113951904Y-105719919D02*
X113904285Y-105767538D01*
X113904285Y-105767538D02*
X113880475Y-105862776D01*
X113880475Y-105862776D02*
X113880475Y-106029442D01*
X113880475Y-106029442D02*
X113904285Y-106124680D01*
X113904285Y-106124680D02*
X113951904Y-106172300D01*
X113951904Y-106172300D02*
X113999523Y-106196109D01*
X113999523Y-106196109D02*
X114094761Y-106196109D01*
X114094761Y-106196109D02*
X114142380Y-106172300D01*
X114142380Y-106172300D02*
X114189999Y-106124680D01*
X114189999Y-106124680D02*
X114213808Y-106029442D01*
X114213808Y-106029442D02*
X114213808Y-105862776D01*
X114213808Y-105862776D02*
X114189999Y-105767538D01*
X114189999Y-105767538D02*
X114142380Y-105719919D01*
X114142380Y-105719919D02*
X114094761Y-105696109D01*
X113404284Y-106196109D02*
X113689998Y-106196109D01*
X113547141Y-106196109D02*
X113547141Y-105696109D01*
X113547141Y-105696109D02*
X113594760Y-105767538D01*
X113594760Y-105767538D02*
X113642379Y-105815157D01*
X113642379Y-105815157D02*
X113689998Y-105838966D01*
X113166189Y-106196109D02*
X113070951Y-106196109D01*
X113070951Y-106196109D02*
X113023332Y-106172300D01*
X113023332Y-106172300D02*
X112999523Y-106148490D01*
X112999523Y-106148490D02*
X112951904Y-106077061D01*
X112951904Y-106077061D02*
X112928094Y-105981823D01*
X112928094Y-105981823D02*
X112928094Y-105791347D01*
X112928094Y-105791347D02*
X112951904Y-105743728D01*
X112951904Y-105743728D02*
X112975713Y-105719919D01*
X112975713Y-105719919D02*
X113023332Y-105696109D01*
X113023332Y-105696109D02*
X113118570Y-105696109D01*
X113118570Y-105696109D02*
X113166189Y-105719919D01*
X113166189Y-105719919D02*
X113189999Y-105743728D01*
X113189999Y-105743728D02*
X113213808Y-105791347D01*
X113213808Y-105791347D02*
X113213808Y-105910395D01*
X113213808Y-105910395D02*
X113189999Y-105958014D01*
X113189999Y-105958014D02*
X113166189Y-105981823D01*
X113166189Y-105981823D02*
X113118570Y-106005633D01*
X113118570Y-106005633D02*
X113023332Y-106005633D01*
X113023332Y-106005633D02*
X112975713Y-105981823D01*
X112975713Y-105981823D02*
X112951904Y-105958014D01*
X112951904Y-105958014D02*
X112928094Y-105910395D01*
X102786189Y-67619919D02*
X102833808Y-67596109D01*
X102833808Y-67596109D02*
X102905237Y-67596109D01*
X102905237Y-67596109D02*
X102976665Y-67619919D01*
X102976665Y-67619919D02*
X103024284Y-67667538D01*
X103024284Y-67667538D02*
X103048094Y-67715157D01*
X103048094Y-67715157D02*
X103071903Y-67810395D01*
X103071903Y-67810395D02*
X103071903Y-67881823D01*
X103071903Y-67881823D02*
X103048094Y-67977061D01*
X103048094Y-67977061D02*
X103024284Y-68024680D01*
X103024284Y-68024680D02*
X102976665Y-68072300D01*
X102976665Y-68072300D02*
X102905237Y-68096109D01*
X102905237Y-68096109D02*
X102857618Y-68096109D01*
X102857618Y-68096109D02*
X102786189Y-68072300D01*
X102786189Y-68072300D02*
X102762380Y-68048490D01*
X102762380Y-68048490D02*
X102762380Y-67881823D01*
X102762380Y-67881823D02*
X102857618Y-67881823D01*
X102548094Y-68096109D02*
X102548094Y-67596109D01*
X102548094Y-67596109D02*
X102357618Y-67596109D01*
X102357618Y-67596109D02*
X102309999Y-67619919D01*
X102309999Y-67619919D02*
X102286189Y-67643728D01*
X102286189Y-67643728D02*
X102262380Y-67691347D01*
X102262380Y-67691347D02*
X102262380Y-67762776D01*
X102262380Y-67762776D02*
X102286189Y-67810395D01*
X102286189Y-67810395D02*
X102309999Y-67834204D01*
X102309999Y-67834204D02*
X102357618Y-67858014D01*
X102357618Y-67858014D02*
X102548094Y-67858014D01*
X102048094Y-68096109D02*
X102048094Y-67596109D01*
X101714761Y-67596109D02*
X101619523Y-67596109D01*
X101619523Y-67596109D02*
X101571904Y-67619919D01*
X101571904Y-67619919D02*
X101524285Y-67667538D01*
X101524285Y-67667538D02*
X101500475Y-67762776D01*
X101500475Y-67762776D02*
X101500475Y-67929442D01*
X101500475Y-67929442D02*
X101524285Y-68024680D01*
X101524285Y-68024680D02*
X101571904Y-68072300D01*
X101571904Y-68072300D02*
X101619523Y-68096109D01*
X101619523Y-68096109D02*
X101714761Y-68096109D01*
X101714761Y-68096109D02*
X101762380Y-68072300D01*
X101762380Y-68072300D02*
X101809999Y-68024680D01*
X101809999Y-68024680D02*
X101833808Y-67929442D01*
X101833808Y-67929442D02*
X101833808Y-67762776D01*
X101833808Y-67762776D02*
X101809999Y-67667538D01*
X101809999Y-67667538D02*
X101762380Y-67619919D01*
X101762380Y-67619919D02*
X101714761Y-67596109D01*
X101190951Y-67596109D02*
X101143332Y-67596109D01*
X101143332Y-67596109D02*
X101095713Y-67619919D01*
X101095713Y-67619919D02*
X101071903Y-67643728D01*
X101071903Y-67643728D02*
X101048094Y-67691347D01*
X101048094Y-67691347D02*
X101024284Y-67786585D01*
X101024284Y-67786585D02*
X101024284Y-67905633D01*
X101024284Y-67905633D02*
X101048094Y-68000871D01*
X101048094Y-68000871D02*
X101071903Y-68048490D01*
X101071903Y-68048490D02*
X101095713Y-68072300D01*
X101095713Y-68072300D02*
X101143332Y-68096109D01*
X101143332Y-68096109D02*
X101190951Y-68096109D01*
X101190951Y-68096109D02*
X101238570Y-68072300D01*
X101238570Y-68072300D02*
X101262379Y-68048490D01*
X101262379Y-68048490D02*
X101286189Y-68000871D01*
X101286189Y-68000871D02*
X101309998Y-67905633D01*
X101309998Y-67905633D02*
X101309998Y-67786585D01*
X101309998Y-67786585D02*
X101286189Y-67691347D01*
X101286189Y-67691347D02*
X101262379Y-67643728D01*
X101262379Y-67643728D02*
X101238570Y-67619919D01*
X101238570Y-67619919D02*
X101190951Y-67596109D01*
X100714761Y-67596109D02*
X100667142Y-67596109D01*
X100667142Y-67596109D02*
X100619523Y-67619919D01*
X100619523Y-67619919D02*
X100595713Y-67643728D01*
X100595713Y-67643728D02*
X100571904Y-67691347D01*
X100571904Y-67691347D02*
X100548094Y-67786585D01*
X100548094Y-67786585D02*
X100548094Y-67905633D01*
X100548094Y-67905633D02*
X100571904Y-68000871D01*
X100571904Y-68000871D02*
X100595713Y-68048490D01*
X100595713Y-68048490D02*
X100619523Y-68072300D01*
X100619523Y-68072300D02*
X100667142Y-68096109D01*
X100667142Y-68096109D02*
X100714761Y-68096109D01*
X100714761Y-68096109D02*
X100762380Y-68072300D01*
X100762380Y-68072300D02*
X100786189Y-68048490D01*
X100786189Y-68048490D02*
X100809999Y-68000871D01*
X100809999Y-68000871D02*
X100833808Y-67905633D01*
X100833808Y-67905633D02*
X100833808Y-67786585D01*
X100833808Y-67786585D02*
X100809999Y-67691347D01*
X100809999Y-67691347D02*
X100786189Y-67643728D01*
X100786189Y-67643728D02*
X100762380Y-67619919D01*
X100762380Y-67619919D02*
X100714761Y-67596109D01*
X102786189Y-113339919D02*
X102833808Y-113316109D01*
X102833808Y-113316109D02*
X102905237Y-113316109D01*
X102905237Y-113316109D02*
X102976665Y-113339919D01*
X102976665Y-113339919D02*
X103024284Y-113387538D01*
X103024284Y-113387538D02*
X103048094Y-113435157D01*
X103048094Y-113435157D02*
X103071903Y-113530395D01*
X103071903Y-113530395D02*
X103071903Y-113601823D01*
X103071903Y-113601823D02*
X103048094Y-113697061D01*
X103048094Y-113697061D02*
X103024284Y-113744680D01*
X103024284Y-113744680D02*
X102976665Y-113792300D01*
X102976665Y-113792300D02*
X102905237Y-113816109D01*
X102905237Y-113816109D02*
X102857618Y-113816109D01*
X102857618Y-113816109D02*
X102786189Y-113792300D01*
X102786189Y-113792300D02*
X102762380Y-113768490D01*
X102762380Y-113768490D02*
X102762380Y-113601823D01*
X102762380Y-113601823D02*
X102857618Y-113601823D01*
X102548094Y-113816109D02*
X102548094Y-113316109D01*
X102548094Y-113316109D02*
X102357618Y-113316109D01*
X102357618Y-113316109D02*
X102309999Y-113339919D01*
X102309999Y-113339919D02*
X102286189Y-113363728D01*
X102286189Y-113363728D02*
X102262380Y-113411347D01*
X102262380Y-113411347D02*
X102262380Y-113482776D01*
X102262380Y-113482776D02*
X102286189Y-113530395D01*
X102286189Y-113530395D02*
X102309999Y-113554204D01*
X102309999Y-113554204D02*
X102357618Y-113578014D01*
X102357618Y-113578014D02*
X102548094Y-113578014D01*
X102048094Y-113816109D02*
X102048094Y-113316109D01*
X101714761Y-113316109D02*
X101619523Y-113316109D01*
X101619523Y-113316109D02*
X101571904Y-113339919D01*
X101571904Y-113339919D02*
X101524285Y-113387538D01*
X101524285Y-113387538D02*
X101500475Y-113482776D01*
X101500475Y-113482776D02*
X101500475Y-113649442D01*
X101500475Y-113649442D02*
X101524285Y-113744680D01*
X101524285Y-113744680D02*
X101571904Y-113792300D01*
X101571904Y-113792300D02*
X101619523Y-113816109D01*
X101619523Y-113816109D02*
X101714761Y-113816109D01*
X101714761Y-113816109D02*
X101762380Y-113792300D01*
X101762380Y-113792300D02*
X101809999Y-113744680D01*
X101809999Y-113744680D02*
X101833808Y-113649442D01*
X101833808Y-113649442D02*
X101833808Y-113482776D01*
X101833808Y-113482776D02*
X101809999Y-113387538D01*
X101809999Y-113387538D02*
X101762380Y-113339919D01*
X101762380Y-113339919D02*
X101714761Y-113316109D01*
X101024284Y-113816109D02*
X101309998Y-113816109D01*
X101167141Y-113816109D02*
X101167141Y-113316109D01*
X101167141Y-113316109D02*
X101214760Y-113387538D01*
X101214760Y-113387538D02*
X101262379Y-113435157D01*
X101262379Y-113435157D02*
X101309998Y-113458966D01*
X100595713Y-113482776D02*
X100595713Y-113816109D01*
X100714761Y-113292300D02*
X100833808Y-113649442D01*
X100833808Y-113649442D02*
X100524285Y-113649442D01*
X114559048Y-93496109D02*
X114725714Y-93258014D01*
X114844762Y-93496109D02*
X114844762Y-92996109D01*
X114844762Y-92996109D02*
X114654286Y-92996109D01*
X114654286Y-92996109D02*
X114606667Y-93019919D01*
X114606667Y-93019919D02*
X114582857Y-93043728D01*
X114582857Y-93043728D02*
X114559048Y-93091347D01*
X114559048Y-93091347D02*
X114559048Y-93162776D01*
X114559048Y-93162776D02*
X114582857Y-93210395D01*
X114582857Y-93210395D02*
X114606667Y-93234204D01*
X114606667Y-93234204D02*
X114654286Y-93258014D01*
X114654286Y-93258014D02*
X114844762Y-93258014D01*
X114344762Y-92996109D02*
X114344762Y-93400871D01*
X114344762Y-93400871D02*
X114320952Y-93448490D01*
X114320952Y-93448490D02*
X114297143Y-93472300D01*
X114297143Y-93472300D02*
X114249524Y-93496109D01*
X114249524Y-93496109D02*
X114154286Y-93496109D01*
X114154286Y-93496109D02*
X114106667Y-93472300D01*
X114106667Y-93472300D02*
X114082857Y-93448490D01*
X114082857Y-93448490D02*
X114059048Y-93400871D01*
X114059048Y-93400871D02*
X114059048Y-92996109D01*
X113820952Y-93496109D02*
X113820952Y-92996109D01*
X113820952Y-92996109D02*
X113535238Y-93496109D01*
X113535238Y-93496109D02*
X113535238Y-92996109D01*
X111670951Y-114392300D02*
X111599523Y-114416109D01*
X111599523Y-114416109D02*
X111480475Y-114416109D01*
X111480475Y-114416109D02*
X111432856Y-114392300D01*
X111432856Y-114392300D02*
X111409047Y-114368490D01*
X111409047Y-114368490D02*
X111385237Y-114320871D01*
X111385237Y-114320871D02*
X111385237Y-114273252D01*
X111385237Y-114273252D02*
X111409047Y-114225633D01*
X111409047Y-114225633D02*
X111432856Y-114201823D01*
X111432856Y-114201823D02*
X111480475Y-114178014D01*
X111480475Y-114178014D02*
X111575713Y-114154204D01*
X111575713Y-114154204D02*
X111623332Y-114130395D01*
X111623332Y-114130395D02*
X111647142Y-114106585D01*
X111647142Y-114106585D02*
X111670951Y-114058966D01*
X111670951Y-114058966D02*
X111670951Y-114011347D01*
X111670951Y-114011347D02*
X111647142Y-113963728D01*
X111647142Y-113963728D02*
X111623332Y-113939919D01*
X111623332Y-113939919D02*
X111575713Y-113916109D01*
X111575713Y-113916109D02*
X111456666Y-113916109D01*
X111456666Y-113916109D02*
X111385237Y-113939919D01*
X111218571Y-113916109D02*
X111099523Y-114416109D01*
X111099523Y-114416109D02*
X111004285Y-114058966D01*
X111004285Y-114058966D02*
X110909047Y-114416109D01*
X110909047Y-114416109D02*
X110790000Y-113916109D01*
X110313809Y-114368490D02*
X110337618Y-114392300D01*
X110337618Y-114392300D02*
X110409047Y-114416109D01*
X110409047Y-114416109D02*
X110456666Y-114416109D01*
X110456666Y-114416109D02*
X110528094Y-114392300D01*
X110528094Y-114392300D02*
X110575713Y-114344680D01*
X110575713Y-114344680D02*
X110599523Y-114297061D01*
X110599523Y-114297061D02*
X110623332Y-114201823D01*
X110623332Y-114201823D02*
X110623332Y-114130395D01*
X110623332Y-114130395D02*
X110599523Y-114035157D01*
X110599523Y-114035157D02*
X110575713Y-113987538D01*
X110575713Y-113987538D02*
X110528094Y-113939919D01*
X110528094Y-113939919D02*
X110456666Y-113916109D01*
X110456666Y-113916109D02*
X110409047Y-113916109D01*
X110409047Y-113916109D02*
X110337618Y-113939919D01*
X110337618Y-113939919D02*
X110313809Y-113963728D01*
X109861428Y-114416109D02*
X110099523Y-114416109D01*
X110099523Y-114416109D02*
X110099523Y-113916109D01*
X109694761Y-114416109D02*
X109694761Y-113916109D01*
X109409047Y-114416109D02*
X109623332Y-114130395D01*
X109409047Y-113916109D02*
X109694761Y-114201823D01*
X102786189Y-75239919D02*
X102833808Y-75216109D01*
X102833808Y-75216109D02*
X102905237Y-75216109D01*
X102905237Y-75216109D02*
X102976665Y-75239919D01*
X102976665Y-75239919D02*
X103024284Y-75287538D01*
X103024284Y-75287538D02*
X103048094Y-75335157D01*
X103048094Y-75335157D02*
X103071903Y-75430395D01*
X103071903Y-75430395D02*
X103071903Y-75501823D01*
X103071903Y-75501823D02*
X103048094Y-75597061D01*
X103048094Y-75597061D02*
X103024284Y-75644680D01*
X103024284Y-75644680D02*
X102976665Y-75692300D01*
X102976665Y-75692300D02*
X102905237Y-75716109D01*
X102905237Y-75716109D02*
X102857618Y-75716109D01*
X102857618Y-75716109D02*
X102786189Y-75692300D01*
X102786189Y-75692300D02*
X102762380Y-75668490D01*
X102762380Y-75668490D02*
X102762380Y-75501823D01*
X102762380Y-75501823D02*
X102857618Y-75501823D01*
X102548094Y-75716109D02*
X102548094Y-75216109D01*
X102548094Y-75216109D02*
X102357618Y-75216109D01*
X102357618Y-75216109D02*
X102309999Y-75239919D01*
X102309999Y-75239919D02*
X102286189Y-75263728D01*
X102286189Y-75263728D02*
X102262380Y-75311347D01*
X102262380Y-75311347D02*
X102262380Y-75382776D01*
X102262380Y-75382776D02*
X102286189Y-75430395D01*
X102286189Y-75430395D02*
X102309999Y-75454204D01*
X102309999Y-75454204D02*
X102357618Y-75478014D01*
X102357618Y-75478014D02*
X102548094Y-75478014D01*
X102048094Y-75716109D02*
X102048094Y-75216109D01*
X101714761Y-75216109D02*
X101619523Y-75216109D01*
X101619523Y-75216109D02*
X101571904Y-75239919D01*
X101571904Y-75239919D02*
X101524285Y-75287538D01*
X101524285Y-75287538D02*
X101500475Y-75382776D01*
X101500475Y-75382776D02*
X101500475Y-75549442D01*
X101500475Y-75549442D02*
X101524285Y-75644680D01*
X101524285Y-75644680D02*
X101571904Y-75692300D01*
X101571904Y-75692300D02*
X101619523Y-75716109D01*
X101619523Y-75716109D02*
X101714761Y-75716109D01*
X101714761Y-75716109D02*
X101762380Y-75692300D01*
X101762380Y-75692300D02*
X101809999Y-75644680D01*
X101809999Y-75644680D02*
X101833808Y-75549442D01*
X101833808Y-75549442D02*
X101833808Y-75382776D01*
X101833808Y-75382776D02*
X101809999Y-75287538D01*
X101809999Y-75287538D02*
X101762380Y-75239919D01*
X101762380Y-75239919D02*
X101714761Y-75216109D01*
X101190951Y-75216109D02*
X101143332Y-75216109D01*
X101143332Y-75216109D02*
X101095713Y-75239919D01*
X101095713Y-75239919D02*
X101071903Y-75263728D01*
X101071903Y-75263728D02*
X101048094Y-75311347D01*
X101048094Y-75311347D02*
X101024284Y-75406585D01*
X101024284Y-75406585D02*
X101024284Y-75525633D01*
X101024284Y-75525633D02*
X101048094Y-75620871D01*
X101048094Y-75620871D02*
X101071903Y-75668490D01*
X101071903Y-75668490D02*
X101095713Y-75692300D01*
X101095713Y-75692300D02*
X101143332Y-75716109D01*
X101143332Y-75716109D02*
X101190951Y-75716109D01*
X101190951Y-75716109D02*
X101238570Y-75692300D01*
X101238570Y-75692300D02*
X101262379Y-75668490D01*
X101262379Y-75668490D02*
X101286189Y-75620871D01*
X101286189Y-75620871D02*
X101309998Y-75525633D01*
X101309998Y-75525633D02*
X101309998Y-75406585D01*
X101309998Y-75406585D02*
X101286189Y-75311347D01*
X101286189Y-75311347D02*
X101262379Y-75263728D01*
X101262379Y-75263728D02*
X101238570Y-75239919D01*
X101238570Y-75239919D02*
X101190951Y-75216109D01*
X100833808Y-75263728D02*
X100809999Y-75239919D01*
X100809999Y-75239919D02*
X100762380Y-75216109D01*
X100762380Y-75216109D02*
X100643332Y-75216109D01*
X100643332Y-75216109D02*
X100595713Y-75239919D01*
X100595713Y-75239919D02*
X100571904Y-75263728D01*
X100571904Y-75263728D02*
X100548094Y-75311347D01*
X100548094Y-75311347D02*
X100548094Y-75358966D01*
X100548094Y-75358966D02*
X100571904Y-75430395D01*
X100571904Y-75430395D02*
X100857618Y-75716109D01*
X100857618Y-75716109D02*
X100548094Y-75716109D01*
X115166189Y-69757433D02*
X115213808Y-69733623D01*
X115213808Y-69733623D02*
X115285237Y-69733623D01*
X115285237Y-69733623D02*
X115356665Y-69757433D01*
X115356665Y-69757433D02*
X115404284Y-69805052D01*
X115404284Y-69805052D02*
X115428094Y-69852671D01*
X115428094Y-69852671D02*
X115451903Y-69947909D01*
X115451903Y-69947909D02*
X115451903Y-70019337D01*
X115451903Y-70019337D02*
X115428094Y-70114575D01*
X115428094Y-70114575D02*
X115404284Y-70162194D01*
X115404284Y-70162194D02*
X115356665Y-70209814D01*
X115356665Y-70209814D02*
X115285237Y-70233623D01*
X115285237Y-70233623D02*
X115237618Y-70233623D01*
X115237618Y-70233623D02*
X115166189Y-70209814D01*
X115166189Y-70209814D02*
X115142380Y-70186004D01*
X115142380Y-70186004D02*
X115142380Y-70019337D01*
X115142380Y-70019337D02*
X115237618Y-70019337D01*
X114928094Y-70233623D02*
X114928094Y-69733623D01*
X114928094Y-69733623D02*
X114737618Y-69733623D01*
X114737618Y-69733623D02*
X114689999Y-69757433D01*
X114689999Y-69757433D02*
X114666189Y-69781242D01*
X114666189Y-69781242D02*
X114642380Y-69828861D01*
X114642380Y-69828861D02*
X114642380Y-69900290D01*
X114642380Y-69900290D02*
X114666189Y-69947909D01*
X114666189Y-69947909D02*
X114689999Y-69971718D01*
X114689999Y-69971718D02*
X114737618Y-69995528D01*
X114737618Y-69995528D02*
X114928094Y-69995528D01*
X114428094Y-70233623D02*
X114428094Y-69733623D01*
X114094761Y-69733623D02*
X113999523Y-69733623D01*
X113999523Y-69733623D02*
X113951904Y-69757433D01*
X113951904Y-69757433D02*
X113904285Y-69805052D01*
X113904285Y-69805052D02*
X113880475Y-69900290D01*
X113880475Y-69900290D02*
X113880475Y-70066956D01*
X113880475Y-70066956D02*
X113904285Y-70162194D01*
X113904285Y-70162194D02*
X113951904Y-70209814D01*
X113951904Y-70209814D02*
X113999523Y-70233623D01*
X113999523Y-70233623D02*
X114094761Y-70233623D01*
X114094761Y-70233623D02*
X114142380Y-70209814D01*
X114142380Y-70209814D02*
X114189999Y-70162194D01*
X114189999Y-70162194D02*
X114213808Y-70066956D01*
X114213808Y-70066956D02*
X114213808Y-69900290D01*
X114213808Y-69900290D02*
X114189999Y-69805052D01*
X114189999Y-69805052D02*
X114142380Y-69757433D01*
X114142380Y-69757433D02*
X114094761Y-69733623D01*
X113689998Y-69781242D02*
X113666189Y-69757433D01*
X113666189Y-69757433D02*
X113618570Y-69733623D01*
X113618570Y-69733623D02*
X113499522Y-69733623D01*
X113499522Y-69733623D02*
X113451903Y-69757433D01*
X113451903Y-69757433D02*
X113428094Y-69781242D01*
X113428094Y-69781242D02*
X113404284Y-69828861D01*
X113404284Y-69828861D02*
X113404284Y-69876480D01*
X113404284Y-69876480D02*
X113428094Y-69947909D01*
X113428094Y-69947909D02*
X113713808Y-70233623D01*
X113713808Y-70233623D02*
X113404284Y-70233623D01*
X113166189Y-70233623D02*
X113070951Y-70233623D01*
X113070951Y-70233623D02*
X113023332Y-70209814D01*
X113023332Y-70209814D02*
X112999523Y-70186004D01*
X112999523Y-70186004D02*
X112951904Y-70114575D01*
X112951904Y-70114575D02*
X112928094Y-70019337D01*
X112928094Y-70019337D02*
X112928094Y-69828861D01*
X112928094Y-69828861D02*
X112951904Y-69781242D01*
X112951904Y-69781242D02*
X112975713Y-69757433D01*
X112975713Y-69757433D02*
X113023332Y-69733623D01*
X113023332Y-69733623D02*
X113118570Y-69733623D01*
X113118570Y-69733623D02*
X113166189Y-69757433D01*
X113166189Y-69757433D02*
X113189999Y-69781242D01*
X113189999Y-69781242D02*
X113213808Y-69828861D01*
X113213808Y-69828861D02*
X113213808Y-69947909D01*
X113213808Y-69947909D02*
X113189999Y-69995528D01*
X113189999Y-69995528D02*
X113166189Y-70019337D01*
X113166189Y-70019337D02*
X113118570Y-70043147D01*
X113118570Y-70043147D02*
X113023332Y-70043147D01*
X113023332Y-70043147D02*
X112975713Y-70019337D01*
X112975713Y-70019337D02*
X112951904Y-69995528D01*
X112951904Y-69995528D02*
X112928094Y-69947909D01*
X114928094Y-70514786D02*
X115356665Y-71157643D01*
X114785236Y-70895738D02*
X114547141Y-70895738D01*
X114832855Y-71038595D02*
X114666189Y-70538595D01*
X114666189Y-70538595D02*
X114499522Y-71038595D01*
X114332856Y-71038595D02*
X114332856Y-70538595D01*
X114332856Y-70538595D02*
X114213808Y-70538595D01*
X114213808Y-70538595D02*
X114142380Y-70562405D01*
X114142380Y-70562405D02*
X114094761Y-70610024D01*
X114094761Y-70610024D02*
X114070951Y-70657643D01*
X114070951Y-70657643D02*
X114047142Y-70752881D01*
X114047142Y-70752881D02*
X114047142Y-70824309D01*
X114047142Y-70824309D02*
X114070951Y-70919547D01*
X114070951Y-70919547D02*
X114094761Y-70967166D01*
X114094761Y-70967166D02*
X114142380Y-71014786D01*
X114142380Y-71014786D02*
X114213808Y-71038595D01*
X114213808Y-71038595D02*
X114332856Y-71038595D01*
X113547142Y-70990976D02*
X113570951Y-71014786D01*
X113570951Y-71014786D02*
X113642380Y-71038595D01*
X113642380Y-71038595D02*
X113689999Y-71038595D01*
X113689999Y-71038595D02*
X113761427Y-71014786D01*
X113761427Y-71014786D02*
X113809046Y-70967166D01*
X113809046Y-70967166D02*
X113832856Y-70919547D01*
X113832856Y-70919547D02*
X113856665Y-70824309D01*
X113856665Y-70824309D02*
X113856665Y-70752881D01*
X113856665Y-70752881D02*
X113832856Y-70657643D01*
X113832856Y-70657643D02*
X113809046Y-70610024D01*
X113809046Y-70610024D02*
X113761427Y-70562405D01*
X113761427Y-70562405D02*
X113689999Y-70538595D01*
X113689999Y-70538595D02*
X113642380Y-70538595D01*
X113642380Y-70538595D02*
X113570951Y-70562405D01*
X113570951Y-70562405D02*
X113547142Y-70586214D01*
X113380475Y-70538595D02*
X113070951Y-70538595D01*
X113070951Y-70538595D02*
X113237618Y-70729071D01*
X113237618Y-70729071D02*
X113166189Y-70729071D01*
X113166189Y-70729071D02*
X113118570Y-70752881D01*
X113118570Y-70752881D02*
X113094761Y-70776690D01*
X113094761Y-70776690D02*
X113070951Y-70824309D01*
X113070951Y-70824309D02*
X113070951Y-70943357D01*
X113070951Y-70943357D02*
X113094761Y-70990976D01*
X113094761Y-70990976D02*
X113118570Y-71014786D01*
X113118570Y-71014786D02*
X113166189Y-71038595D01*
X113166189Y-71038595D02*
X113309046Y-71038595D01*
X113309046Y-71038595D02*
X113356665Y-71014786D01*
X113356665Y-71014786D02*
X113380475Y-70990976D01*
X114570952Y-85399919D02*
X114618571Y-85376109D01*
X114618571Y-85376109D02*
X114690000Y-85376109D01*
X114690000Y-85376109D02*
X114761428Y-85399919D01*
X114761428Y-85399919D02*
X114809047Y-85447538D01*
X114809047Y-85447538D02*
X114832857Y-85495157D01*
X114832857Y-85495157D02*
X114856666Y-85590395D01*
X114856666Y-85590395D02*
X114856666Y-85661823D01*
X114856666Y-85661823D02*
X114832857Y-85757061D01*
X114832857Y-85757061D02*
X114809047Y-85804680D01*
X114809047Y-85804680D02*
X114761428Y-85852300D01*
X114761428Y-85852300D02*
X114690000Y-85876109D01*
X114690000Y-85876109D02*
X114642381Y-85876109D01*
X114642381Y-85876109D02*
X114570952Y-85852300D01*
X114570952Y-85852300D02*
X114547143Y-85828490D01*
X114547143Y-85828490D02*
X114547143Y-85661823D01*
X114547143Y-85661823D02*
X114642381Y-85661823D01*
X114332857Y-85876109D02*
X114332857Y-85376109D01*
X114332857Y-85376109D02*
X114047143Y-85876109D01*
X114047143Y-85876109D02*
X114047143Y-85376109D01*
X113809047Y-85876109D02*
X113809047Y-85376109D01*
X113809047Y-85376109D02*
X113689999Y-85376109D01*
X113689999Y-85376109D02*
X113618571Y-85399919D01*
X113618571Y-85399919D02*
X113570952Y-85447538D01*
X113570952Y-85447538D02*
X113547142Y-85495157D01*
X113547142Y-85495157D02*
X113523333Y-85590395D01*
X113523333Y-85590395D02*
X113523333Y-85661823D01*
X113523333Y-85661823D02*
X113547142Y-85757061D01*
X113547142Y-85757061D02*
X113570952Y-85804680D01*
X113570952Y-85804680D02*
X113618571Y-85852300D01*
X113618571Y-85852300D02*
X113689999Y-85876109D01*
X113689999Y-85876109D02*
X113809047Y-85876109D01*
X102786189Y-103179919D02*
X102833808Y-103156109D01*
X102833808Y-103156109D02*
X102905237Y-103156109D01*
X102905237Y-103156109D02*
X102976665Y-103179919D01*
X102976665Y-103179919D02*
X103024284Y-103227538D01*
X103024284Y-103227538D02*
X103048094Y-103275157D01*
X103048094Y-103275157D02*
X103071903Y-103370395D01*
X103071903Y-103370395D02*
X103071903Y-103441823D01*
X103071903Y-103441823D02*
X103048094Y-103537061D01*
X103048094Y-103537061D02*
X103024284Y-103584680D01*
X103024284Y-103584680D02*
X102976665Y-103632300D01*
X102976665Y-103632300D02*
X102905237Y-103656109D01*
X102905237Y-103656109D02*
X102857618Y-103656109D01*
X102857618Y-103656109D02*
X102786189Y-103632300D01*
X102786189Y-103632300D02*
X102762380Y-103608490D01*
X102762380Y-103608490D02*
X102762380Y-103441823D01*
X102762380Y-103441823D02*
X102857618Y-103441823D01*
X102548094Y-103656109D02*
X102548094Y-103156109D01*
X102548094Y-103156109D02*
X102357618Y-103156109D01*
X102357618Y-103156109D02*
X102309999Y-103179919D01*
X102309999Y-103179919D02*
X102286189Y-103203728D01*
X102286189Y-103203728D02*
X102262380Y-103251347D01*
X102262380Y-103251347D02*
X102262380Y-103322776D01*
X102262380Y-103322776D02*
X102286189Y-103370395D01*
X102286189Y-103370395D02*
X102309999Y-103394204D01*
X102309999Y-103394204D02*
X102357618Y-103418014D01*
X102357618Y-103418014D02*
X102548094Y-103418014D01*
X102048094Y-103656109D02*
X102048094Y-103156109D01*
X101714761Y-103156109D02*
X101619523Y-103156109D01*
X101619523Y-103156109D02*
X101571904Y-103179919D01*
X101571904Y-103179919D02*
X101524285Y-103227538D01*
X101524285Y-103227538D02*
X101500475Y-103322776D01*
X101500475Y-103322776D02*
X101500475Y-103489442D01*
X101500475Y-103489442D02*
X101524285Y-103584680D01*
X101524285Y-103584680D02*
X101571904Y-103632300D01*
X101571904Y-103632300D02*
X101619523Y-103656109D01*
X101619523Y-103656109D02*
X101714761Y-103656109D01*
X101714761Y-103656109D02*
X101762380Y-103632300D01*
X101762380Y-103632300D02*
X101809999Y-103584680D01*
X101809999Y-103584680D02*
X101833808Y-103489442D01*
X101833808Y-103489442D02*
X101833808Y-103322776D01*
X101833808Y-103322776D02*
X101809999Y-103227538D01*
X101809999Y-103227538D02*
X101762380Y-103179919D01*
X101762380Y-103179919D02*
X101714761Y-103156109D01*
X101024284Y-103656109D02*
X101309998Y-103656109D01*
X101167141Y-103656109D02*
X101167141Y-103156109D01*
X101167141Y-103156109D02*
X101214760Y-103227538D01*
X101214760Y-103227538D02*
X101262379Y-103275157D01*
X101262379Y-103275157D02*
X101309998Y-103298966D01*
X100548094Y-103656109D02*
X100833808Y-103656109D01*
X100690951Y-103656109D02*
X100690951Y-103156109D01*
X100690951Y-103156109D02*
X100738570Y-103227538D01*
X100738570Y-103227538D02*
X100786189Y-103275157D01*
X100786189Y-103275157D02*
X100833808Y-103298966D01*
X114570952Y-110799919D02*
X114618571Y-110776109D01*
X114618571Y-110776109D02*
X114690000Y-110776109D01*
X114690000Y-110776109D02*
X114761428Y-110799919D01*
X114761428Y-110799919D02*
X114809047Y-110847538D01*
X114809047Y-110847538D02*
X114832857Y-110895157D01*
X114832857Y-110895157D02*
X114856666Y-110990395D01*
X114856666Y-110990395D02*
X114856666Y-111061823D01*
X114856666Y-111061823D02*
X114832857Y-111157061D01*
X114832857Y-111157061D02*
X114809047Y-111204680D01*
X114809047Y-111204680D02*
X114761428Y-111252300D01*
X114761428Y-111252300D02*
X114690000Y-111276109D01*
X114690000Y-111276109D02*
X114642381Y-111276109D01*
X114642381Y-111276109D02*
X114570952Y-111252300D01*
X114570952Y-111252300D02*
X114547143Y-111228490D01*
X114547143Y-111228490D02*
X114547143Y-111061823D01*
X114547143Y-111061823D02*
X114642381Y-111061823D01*
X114332857Y-111276109D02*
X114332857Y-110776109D01*
X114332857Y-110776109D02*
X114047143Y-111276109D01*
X114047143Y-111276109D02*
X114047143Y-110776109D01*
X113809047Y-111276109D02*
X113809047Y-110776109D01*
X113809047Y-110776109D02*
X113689999Y-110776109D01*
X113689999Y-110776109D02*
X113618571Y-110799919D01*
X113618571Y-110799919D02*
X113570952Y-110847538D01*
X113570952Y-110847538D02*
X113547142Y-110895157D01*
X113547142Y-110895157D02*
X113523333Y-110990395D01*
X113523333Y-110990395D02*
X113523333Y-111061823D01*
X113523333Y-111061823D02*
X113547142Y-111157061D01*
X113547142Y-111157061D02*
X113570952Y-111204680D01*
X113570952Y-111204680D02*
X113618571Y-111252300D01*
X113618571Y-111252300D02*
X113689999Y-111276109D01*
X113689999Y-111276109D02*
X113809047Y-111276109D01*
X102786189Y-105719919D02*
X102833808Y-105696109D01*
X102833808Y-105696109D02*
X102905237Y-105696109D01*
X102905237Y-105696109D02*
X102976665Y-105719919D01*
X102976665Y-105719919D02*
X103024284Y-105767538D01*
X103024284Y-105767538D02*
X103048094Y-105815157D01*
X103048094Y-105815157D02*
X103071903Y-105910395D01*
X103071903Y-105910395D02*
X103071903Y-105981823D01*
X103071903Y-105981823D02*
X103048094Y-106077061D01*
X103048094Y-106077061D02*
X103024284Y-106124680D01*
X103024284Y-106124680D02*
X102976665Y-106172300D01*
X102976665Y-106172300D02*
X102905237Y-106196109D01*
X102905237Y-106196109D02*
X102857618Y-106196109D01*
X102857618Y-106196109D02*
X102786189Y-106172300D01*
X102786189Y-106172300D02*
X102762380Y-106148490D01*
X102762380Y-106148490D02*
X102762380Y-105981823D01*
X102762380Y-105981823D02*
X102857618Y-105981823D01*
X102548094Y-106196109D02*
X102548094Y-105696109D01*
X102548094Y-105696109D02*
X102357618Y-105696109D01*
X102357618Y-105696109D02*
X102309999Y-105719919D01*
X102309999Y-105719919D02*
X102286189Y-105743728D01*
X102286189Y-105743728D02*
X102262380Y-105791347D01*
X102262380Y-105791347D02*
X102262380Y-105862776D01*
X102262380Y-105862776D02*
X102286189Y-105910395D01*
X102286189Y-105910395D02*
X102309999Y-105934204D01*
X102309999Y-105934204D02*
X102357618Y-105958014D01*
X102357618Y-105958014D02*
X102548094Y-105958014D01*
X102048094Y-106196109D02*
X102048094Y-105696109D01*
X101714761Y-105696109D02*
X101619523Y-105696109D01*
X101619523Y-105696109D02*
X101571904Y-105719919D01*
X101571904Y-105719919D02*
X101524285Y-105767538D01*
X101524285Y-105767538D02*
X101500475Y-105862776D01*
X101500475Y-105862776D02*
X101500475Y-106029442D01*
X101500475Y-106029442D02*
X101524285Y-106124680D01*
X101524285Y-106124680D02*
X101571904Y-106172300D01*
X101571904Y-106172300D02*
X101619523Y-106196109D01*
X101619523Y-106196109D02*
X101714761Y-106196109D01*
X101714761Y-106196109D02*
X101762380Y-106172300D01*
X101762380Y-106172300D02*
X101809999Y-106124680D01*
X101809999Y-106124680D02*
X101833808Y-106029442D01*
X101833808Y-106029442D02*
X101833808Y-105862776D01*
X101833808Y-105862776D02*
X101809999Y-105767538D01*
X101809999Y-105767538D02*
X101762380Y-105719919D01*
X101762380Y-105719919D02*
X101714761Y-105696109D01*
X101024284Y-106196109D02*
X101309998Y-106196109D01*
X101167141Y-106196109D02*
X101167141Y-105696109D01*
X101167141Y-105696109D02*
X101214760Y-105767538D01*
X101214760Y-105767538D02*
X101262379Y-105815157D01*
X101262379Y-105815157D02*
X101309998Y-105838966D01*
X100833808Y-105743728D02*
X100809999Y-105719919D01*
X100809999Y-105719919D02*
X100762380Y-105696109D01*
X100762380Y-105696109D02*
X100643332Y-105696109D01*
X100643332Y-105696109D02*
X100595713Y-105719919D01*
X100595713Y-105719919D02*
X100571904Y-105743728D01*
X100571904Y-105743728D02*
X100548094Y-105791347D01*
X100548094Y-105791347D02*
X100548094Y-105838966D01*
X100548094Y-105838966D02*
X100571904Y-105910395D01*
X100571904Y-105910395D02*
X100857618Y-106196109D01*
X100857618Y-106196109D02*
X100548094Y-106196109D01*
X102786189Y-108259919D02*
X102833808Y-108236109D01*
X102833808Y-108236109D02*
X102905237Y-108236109D01*
X102905237Y-108236109D02*
X102976665Y-108259919D01*
X102976665Y-108259919D02*
X103024284Y-108307538D01*
X103024284Y-108307538D02*
X103048094Y-108355157D01*
X103048094Y-108355157D02*
X103071903Y-108450395D01*
X103071903Y-108450395D02*
X103071903Y-108521823D01*
X103071903Y-108521823D02*
X103048094Y-108617061D01*
X103048094Y-108617061D02*
X103024284Y-108664680D01*
X103024284Y-108664680D02*
X102976665Y-108712300D01*
X102976665Y-108712300D02*
X102905237Y-108736109D01*
X102905237Y-108736109D02*
X102857618Y-108736109D01*
X102857618Y-108736109D02*
X102786189Y-108712300D01*
X102786189Y-108712300D02*
X102762380Y-108688490D01*
X102762380Y-108688490D02*
X102762380Y-108521823D01*
X102762380Y-108521823D02*
X102857618Y-108521823D01*
X102548094Y-108736109D02*
X102548094Y-108236109D01*
X102548094Y-108236109D02*
X102357618Y-108236109D01*
X102357618Y-108236109D02*
X102309999Y-108259919D01*
X102309999Y-108259919D02*
X102286189Y-108283728D01*
X102286189Y-108283728D02*
X102262380Y-108331347D01*
X102262380Y-108331347D02*
X102262380Y-108402776D01*
X102262380Y-108402776D02*
X102286189Y-108450395D01*
X102286189Y-108450395D02*
X102309999Y-108474204D01*
X102309999Y-108474204D02*
X102357618Y-108498014D01*
X102357618Y-108498014D02*
X102548094Y-108498014D01*
X102048094Y-108736109D02*
X102048094Y-108236109D01*
X101714761Y-108236109D02*
X101619523Y-108236109D01*
X101619523Y-108236109D02*
X101571904Y-108259919D01*
X101571904Y-108259919D02*
X101524285Y-108307538D01*
X101524285Y-108307538D02*
X101500475Y-108402776D01*
X101500475Y-108402776D02*
X101500475Y-108569442D01*
X101500475Y-108569442D02*
X101524285Y-108664680D01*
X101524285Y-108664680D02*
X101571904Y-108712300D01*
X101571904Y-108712300D02*
X101619523Y-108736109D01*
X101619523Y-108736109D02*
X101714761Y-108736109D01*
X101714761Y-108736109D02*
X101762380Y-108712300D01*
X101762380Y-108712300D02*
X101809999Y-108664680D01*
X101809999Y-108664680D02*
X101833808Y-108569442D01*
X101833808Y-108569442D02*
X101833808Y-108402776D01*
X101833808Y-108402776D02*
X101809999Y-108307538D01*
X101809999Y-108307538D02*
X101762380Y-108259919D01*
X101762380Y-108259919D02*
X101714761Y-108236109D01*
X101024284Y-108736109D02*
X101309998Y-108736109D01*
X101167141Y-108736109D02*
X101167141Y-108236109D01*
X101167141Y-108236109D02*
X101214760Y-108307538D01*
X101214760Y-108307538D02*
X101262379Y-108355157D01*
X101262379Y-108355157D02*
X101309998Y-108378966D01*
X100857618Y-108236109D02*
X100548094Y-108236109D01*
X100548094Y-108236109D02*
X100714761Y-108426585D01*
X100714761Y-108426585D02*
X100643332Y-108426585D01*
X100643332Y-108426585D02*
X100595713Y-108450395D01*
X100595713Y-108450395D02*
X100571904Y-108474204D01*
X100571904Y-108474204D02*
X100548094Y-108521823D01*
X100548094Y-108521823D02*
X100548094Y-108640871D01*
X100548094Y-108640871D02*
X100571904Y-108688490D01*
X100571904Y-108688490D02*
X100595713Y-108712300D01*
X100595713Y-108712300D02*
X100643332Y-108736109D01*
X100643332Y-108736109D02*
X100786189Y-108736109D01*
X100786189Y-108736109D02*
X100833808Y-108712300D01*
X100833808Y-108712300D02*
X100857618Y-108688490D01*
X102786189Y-87939919D02*
X102833808Y-87916109D01*
X102833808Y-87916109D02*
X102905237Y-87916109D01*
X102905237Y-87916109D02*
X102976665Y-87939919D01*
X102976665Y-87939919D02*
X103024284Y-87987538D01*
X103024284Y-87987538D02*
X103048094Y-88035157D01*
X103048094Y-88035157D02*
X103071903Y-88130395D01*
X103071903Y-88130395D02*
X103071903Y-88201823D01*
X103071903Y-88201823D02*
X103048094Y-88297061D01*
X103048094Y-88297061D02*
X103024284Y-88344680D01*
X103024284Y-88344680D02*
X102976665Y-88392300D01*
X102976665Y-88392300D02*
X102905237Y-88416109D01*
X102905237Y-88416109D02*
X102857618Y-88416109D01*
X102857618Y-88416109D02*
X102786189Y-88392300D01*
X102786189Y-88392300D02*
X102762380Y-88368490D01*
X102762380Y-88368490D02*
X102762380Y-88201823D01*
X102762380Y-88201823D02*
X102857618Y-88201823D01*
X102548094Y-88416109D02*
X102548094Y-87916109D01*
X102548094Y-87916109D02*
X102357618Y-87916109D01*
X102357618Y-87916109D02*
X102309999Y-87939919D01*
X102309999Y-87939919D02*
X102286189Y-87963728D01*
X102286189Y-87963728D02*
X102262380Y-88011347D01*
X102262380Y-88011347D02*
X102262380Y-88082776D01*
X102262380Y-88082776D02*
X102286189Y-88130395D01*
X102286189Y-88130395D02*
X102309999Y-88154204D01*
X102309999Y-88154204D02*
X102357618Y-88178014D01*
X102357618Y-88178014D02*
X102548094Y-88178014D01*
X102048094Y-88416109D02*
X102048094Y-87916109D01*
X101714761Y-87916109D02*
X101619523Y-87916109D01*
X101619523Y-87916109D02*
X101571904Y-87939919D01*
X101571904Y-87939919D02*
X101524285Y-87987538D01*
X101524285Y-87987538D02*
X101500475Y-88082776D01*
X101500475Y-88082776D02*
X101500475Y-88249442D01*
X101500475Y-88249442D02*
X101524285Y-88344680D01*
X101524285Y-88344680D02*
X101571904Y-88392300D01*
X101571904Y-88392300D02*
X101619523Y-88416109D01*
X101619523Y-88416109D02*
X101714761Y-88416109D01*
X101714761Y-88416109D02*
X101762380Y-88392300D01*
X101762380Y-88392300D02*
X101809999Y-88344680D01*
X101809999Y-88344680D02*
X101833808Y-88249442D01*
X101833808Y-88249442D02*
X101833808Y-88082776D01*
X101833808Y-88082776D02*
X101809999Y-87987538D01*
X101809999Y-87987538D02*
X101762380Y-87939919D01*
X101762380Y-87939919D02*
X101714761Y-87916109D01*
X101190951Y-87916109D02*
X101143332Y-87916109D01*
X101143332Y-87916109D02*
X101095713Y-87939919D01*
X101095713Y-87939919D02*
X101071903Y-87963728D01*
X101071903Y-87963728D02*
X101048094Y-88011347D01*
X101048094Y-88011347D02*
X101024284Y-88106585D01*
X101024284Y-88106585D02*
X101024284Y-88225633D01*
X101024284Y-88225633D02*
X101048094Y-88320871D01*
X101048094Y-88320871D02*
X101071903Y-88368490D01*
X101071903Y-88368490D02*
X101095713Y-88392300D01*
X101095713Y-88392300D02*
X101143332Y-88416109D01*
X101143332Y-88416109D02*
X101190951Y-88416109D01*
X101190951Y-88416109D02*
X101238570Y-88392300D01*
X101238570Y-88392300D02*
X101262379Y-88368490D01*
X101262379Y-88368490D02*
X101286189Y-88320871D01*
X101286189Y-88320871D02*
X101309998Y-88225633D01*
X101309998Y-88225633D02*
X101309998Y-88106585D01*
X101309998Y-88106585D02*
X101286189Y-88011347D01*
X101286189Y-88011347D02*
X101262379Y-87963728D01*
X101262379Y-87963728D02*
X101238570Y-87939919D01*
X101238570Y-87939919D02*
X101190951Y-87916109D01*
X100595713Y-87916109D02*
X100690951Y-87916109D01*
X100690951Y-87916109D02*
X100738570Y-87939919D01*
X100738570Y-87939919D02*
X100762380Y-87963728D01*
X100762380Y-87963728D02*
X100809999Y-88035157D01*
X100809999Y-88035157D02*
X100833808Y-88130395D01*
X100833808Y-88130395D02*
X100833808Y-88320871D01*
X100833808Y-88320871D02*
X100809999Y-88368490D01*
X100809999Y-88368490D02*
X100786189Y-88392300D01*
X100786189Y-88392300D02*
X100738570Y-88416109D01*
X100738570Y-88416109D02*
X100643332Y-88416109D01*
X100643332Y-88416109D02*
X100595713Y-88392300D01*
X100595713Y-88392300D02*
X100571904Y-88368490D01*
X100571904Y-88368490D02*
X100548094Y-88320871D01*
X100548094Y-88320871D02*
X100548094Y-88201823D01*
X100548094Y-88201823D02*
X100571904Y-88154204D01*
X100571904Y-88154204D02*
X100595713Y-88130395D01*
X100595713Y-88130395D02*
X100643332Y-88106585D01*
X100643332Y-88106585D02*
X100738570Y-88106585D01*
X100738570Y-88106585D02*
X100786189Y-88130395D01*
X100786189Y-88130395D02*
X100809999Y-88154204D01*
X100809999Y-88154204D02*
X100833808Y-88201823D01*
X115166189Y-95559919D02*
X115213808Y-95536109D01*
X115213808Y-95536109D02*
X115285237Y-95536109D01*
X115285237Y-95536109D02*
X115356665Y-95559919D01*
X115356665Y-95559919D02*
X115404284Y-95607538D01*
X115404284Y-95607538D02*
X115428094Y-95655157D01*
X115428094Y-95655157D02*
X115451903Y-95750395D01*
X115451903Y-95750395D02*
X115451903Y-95821823D01*
X115451903Y-95821823D02*
X115428094Y-95917061D01*
X115428094Y-95917061D02*
X115404284Y-95964680D01*
X115404284Y-95964680D02*
X115356665Y-96012300D01*
X115356665Y-96012300D02*
X115285237Y-96036109D01*
X115285237Y-96036109D02*
X115237618Y-96036109D01*
X115237618Y-96036109D02*
X115166189Y-96012300D01*
X115166189Y-96012300D02*
X115142380Y-95988490D01*
X115142380Y-95988490D02*
X115142380Y-95821823D01*
X115142380Y-95821823D02*
X115237618Y-95821823D01*
X114928094Y-96036109D02*
X114928094Y-95536109D01*
X114928094Y-95536109D02*
X114737618Y-95536109D01*
X114737618Y-95536109D02*
X114689999Y-95559919D01*
X114689999Y-95559919D02*
X114666189Y-95583728D01*
X114666189Y-95583728D02*
X114642380Y-95631347D01*
X114642380Y-95631347D02*
X114642380Y-95702776D01*
X114642380Y-95702776D02*
X114666189Y-95750395D01*
X114666189Y-95750395D02*
X114689999Y-95774204D01*
X114689999Y-95774204D02*
X114737618Y-95798014D01*
X114737618Y-95798014D02*
X114928094Y-95798014D01*
X114428094Y-96036109D02*
X114428094Y-95536109D01*
X114094761Y-95536109D02*
X113999523Y-95536109D01*
X113999523Y-95536109D02*
X113951904Y-95559919D01*
X113951904Y-95559919D02*
X113904285Y-95607538D01*
X113904285Y-95607538D02*
X113880475Y-95702776D01*
X113880475Y-95702776D02*
X113880475Y-95869442D01*
X113880475Y-95869442D02*
X113904285Y-95964680D01*
X113904285Y-95964680D02*
X113951904Y-96012300D01*
X113951904Y-96012300D02*
X113999523Y-96036109D01*
X113999523Y-96036109D02*
X114094761Y-96036109D01*
X114094761Y-96036109D02*
X114142380Y-96012300D01*
X114142380Y-96012300D02*
X114189999Y-95964680D01*
X114189999Y-95964680D02*
X114213808Y-95869442D01*
X114213808Y-95869442D02*
X114213808Y-95702776D01*
X114213808Y-95702776D02*
X114189999Y-95607538D01*
X114189999Y-95607538D02*
X114142380Y-95559919D01*
X114142380Y-95559919D02*
X114094761Y-95536109D01*
X113689998Y-95583728D02*
X113666189Y-95559919D01*
X113666189Y-95559919D02*
X113618570Y-95536109D01*
X113618570Y-95536109D02*
X113499522Y-95536109D01*
X113499522Y-95536109D02*
X113451903Y-95559919D01*
X113451903Y-95559919D02*
X113428094Y-95583728D01*
X113428094Y-95583728D02*
X113404284Y-95631347D01*
X113404284Y-95631347D02*
X113404284Y-95678966D01*
X113404284Y-95678966D02*
X113428094Y-95750395D01*
X113428094Y-95750395D02*
X113713808Y-96036109D01*
X113713808Y-96036109D02*
X113404284Y-96036109D01*
X113213808Y-95583728D02*
X113189999Y-95559919D01*
X113189999Y-95559919D02*
X113142380Y-95536109D01*
X113142380Y-95536109D02*
X113023332Y-95536109D01*
X113023332Y-95536109D02*
X112975713Y-95559919D01*
X112975713Y-95559919D02*
X112951904Y-95583728D01*
X112951904Y-95583728D02*
X112928094Y-95631347D01*
X112928094Y-95631347D02*
X112928094Y-95678966D01*
X112928094Y-95678966D02*
X112951904Y-95750395D01*
X112951904Y-95750395D02*
X113237618Y-96036109D01*
X113237618Y-96036109D02*
X112928094Y-96036109D01*
X102190952Y-72699919D02*
X102238571Y-72676109D01*
X102238571Y-72676109D02*
X102310000Y-72676109D01*
X102310000Y-72676109D02*
X102381428Y-72699919D01*
X102381428Y-72699919D02*
X102429047Y-72747538D01*
X102429047Y-72747538D02*
X102452857Y-72795157D01*
X102452857Y-72795157D02*
X102476666Y-72890395D01*
X102476666Y-72890395D02*
X102476666Y-72961823D01*
X102476666Y-72961823D02*
X102452857Y-73057061D01*
X102452857Y-73057061D02*
X102429047Y-73104680D01*
X102429047Y-73104680D02*
X102381428Y-73152300D01*
X102381428Y-73152300D02*
X102310000Y-73176109D01*
X102310000Y-73176109D02*
X102262381Y-73176109D01*
X102262381Y-73176109D02*
X102190952Y-73152300D01*
X102190952Y-73152300D02*
X102167143Y-73128490D01*
X102167143Y-73128490D02*
X102167143Y-72961823D01*
X102167143Y-72961823D02*
X102262381Y-72961823D01*
X101952857Y-73176109D02*
X101952857Y-72676109D01*
X101952857Y-72676109D02*
X101667143Y-73176109D01*
X101667143Y-73176109D02*
X101667143Y-72676109D01*
X101429047Y-73176109D02*
X101429047Y-72676109D01*
X101429047Y-72676109D02*
X101309999Y-72676109D01*
X101309999Y-72676109D02*
X101238571Y-72699919D01*
X101238571Y-72699919D02*
X101190952Y-72747538D01*
X101190952Y-72747538D02*
X101167142Y-72795157D01*
X101167142Y-72795157D02*
X101143333Y-72890395D01*
X101143333Y-72890395D02*
X101143333Y-72961823D01*
X101143333Y-72961823D02*
X101167142Y-73057061D01*
X101167142Y-73057061D02*
X101190952Y-73104680D01*
X101190952Y-73104680D02*
X101238571Y-73152300D01*
X101238571Y-73152300D02*
X101309999Y-73176109D01*
X101309999Y-73176109D02*
X101429047Y-73176109D01*
X102190952Y-85399919D02*
X102238571Y-85376109D01*
X102238571Y-85376109D02*
X102310000Y-85376109D01*
X102310000Y-85376109D02*
X102381428Y-85399919D01*
X102381428Y-85399919D02*
X102429047Y-85447538D01*
X102429047Y-85447538D02*
X102452857Y-85495157D01*
X102452857Y-85495157D02*
X102476666Y-85590395D01*
X102476666Y-85590395D02*
X102476666Y-85661823D01*
X102476666Y-85661823D02*
X102452857Y-85757061D01*
X102452857Y-85757061D02*
X102429047Y-85804680D01*
X102429047Y-85804680D02*
X102381428Y-85852300D01*
X102381428Y-85852300D02*
X102310000Y-85876109D01*
X102310000Y-85876109D02*
X102262381Y-85876109D01*
X102262381Y-85876109D02*
X102190952Y-85852300D01*
X102190952Y-85852300D02*
X102167143Y-85828490D01*
X102167143Y-85828490D02*
X102167143Y-85661823D01*
X102167143Y-85661823D02*
X102262381Y-85661823D01*
X101952857Y-85876109D02*
X101952857Y-85376109D01*
X101952857Y-85376109D02*
X101667143Y-85876109D01*
X101667143Y-85876109D02*
X101667143Y-85376109D01*
X101429047Y-85876109D02*
X101429047Y-85376109D01*
X101429047Y-85376109D02*
X101309999Y-85376109D01*
X101309999Y-85376109D02*
X101238571Y-85399919D01*
X101238571Y-85399919D02*
X101190952Y-85447538D01*
X101190952Y-85447538D02*
X101167142Y-85495157D01*
X101167142Y-85495157D02*
X101143333Y-85590395D01*
X101143333Y-85590395D02*
X101143333Y-85661823D01*
X101143333Y-85661823D02*
X101167142Y-85757061D01*
X101167142Y-85757061D02*
X101190952Y-85804680D01*
X101190952Y-85804680D02*
X101238571Y-85852300D01*
X101238571Y-85852300D02*
X101309999Y-85876109D01*
X101309999Y-85876109D02*
X101429047Y-85876109D01*
X102786189Y-115879919D02*
X102833808Y-115856109D01*
X102833808Y-115856109D02*
X102905237Y-115856109D01*
X102905237Y-115856109D02*
X102976665Y-115879919D01*
X102976665Y-115879919D02*
X103024284Y-115927538D01*
X103024284Y-115927538D02*
X103048094Y-115975157D01*
X103048094Y-115975157D02*
X103071903Y-116070395D01*
X103071903Y-116070395D02*
X103071903Y-116141823D01*
X103071903Y-116141823D02*
X103048094Y-116237061D01*
X103048094Y-116237061D02*
X103024284Y-116284680D01*
X103024284Y-116284680D02*
X102976665Y-116332300D01*
X102976665Y-116332300D02*
X102905237Y-116356109D01*
X102905237Y-116356109D02*
X102857618Y-116356109D01*
X102857618Y-116356109D02*
X102786189Y-116332300D01*
X102786189Y-116332300D02*
X102762380Y-116308490D01*
X102762380Y-116308490D02*
X102762380Y-116141823D01*
X102762380Y-116141823D02*
X102857618Y-116141823D01*
X102548094Y-116356109D02*
X102548094Y-115856109D01*
X102548094Y-115856109D02*
X102357618Y-115856109D01*
X102357618Y-115856109D02*
X102309999Y-115879919D01*
X102309999Y-115879919D02*
X102286189Y-115903728D01*
X102286189Y-115903728D02*
X102262380Y-115951347D01*
X102262380Y-115951347D02*
X102262380Y-116022776D01*
X102262380Y-116022776D02*
X102286189Y-116070395D01*
X102286189Y-116070395D02*
X102309999Y-116094204D01*
X102309999Y-116094204D02*
X102357618Y-116118014D01*
X102357618Y-116118014D02*
X102548094Y-116118014D01*
X102048094Y-116356109D02*
X102048094Y-115856109D01*
X101714761Y-115856109D02*
X101619523Y-115856109D01*
X101619523Y-115856109D02*
X101571904Y-115879919D01*
X101571904Y-115879919D02*
X101524285Y-115927538D01*
X101524285Y-115927538D02*
X101500475Y-116022776D01*
X101500475Y-116022776D02*
X101500475Y-116189442D01*
X101500475Y-116189442D02*
X101524285Y-116284680D01*
X101524285Y-116284680D02*
X101571904Y-116332300D01*
X101571904Y-116332300D02*
X101619523Y-116356109D01*
X101619523Y-116356109D02*
X101714761Y-116356109D01*
X101714761Y-116356109D02*
X101762380Y-116332300D01*
X101762380Y-116332300D02*
X101809999Y-116284680D01*
X101809999Y-116284680D02*
X101833808Y-116189442D01*
X101833808Y-116189442D02*
X101833808Y-116022776D01*
X101833808Y-116022776D02*
X101809999Y-115927538D01*
X101809999Y-115927538D02*
X101762380Y-115879919D01*
X101762380Y-115879919D02*
X101714761Y-115856109D01*
X101024284Y-116356109D02*
X101309998Y-116356109D01*
X101167141Y-116356109D02*
X101167141Y-115856109D01*
X101167141Y-115856109D02*
X101214760Y-115927538D01*
X101214760Y-115927538D02*
X101262379Y-115975157D01*
X101262379Y-115975157D02*
X101309998Y-115998966D01*
X100571904Y-115856109D02*
X100809999Y-115856109D01*
X100809999Y-115856109D02*
X100833808Y-116094204D01*
X100833808Y-116094204D02*
X100809999Y-116070395D01*
X100809999Y-116070395D02*
X100762380Y-116046585D01*
X100762380Y-116046585D02*
X100643332Y-116046585D01*
X100643332Y-116046585D02*
X100595713Y-116070395D01*
X100595713Y-116070395D02*
X100571904Y-116094204D01*
X100571904Y-116094204D02*
X100548094Y-116141823D01*
X100548094Y-116141823D02*
X100548094Y-116260871D01*
X100548094Y-116260871D02*
X100571904Y-116308490D01*
X100571904Y-116308490D02*
X100595713Y-116332300D01*
X100595713Y-116332300D02*
X100643332Y-116356109D01*
X100643332Y-116356109D02*
X100762380Y-116356109D01*
X100762380Y-116356109D02*
X100809999Y-116332300D01*
X100809999Y-116332300D02*
X100833808Y-116308490D01*
X115106665Y-67596109D02*
X114939999Y-68096109D01*
X114939999Y-68096109D02*
X114773332Y-67596109D01*
X114439999Y-67834204D02*
X114368571Y-67858014D01*
X114368571Y-67858014D02*
X114344761Y-67881823D01*
X114344761Y-67881823D02*
X114320952Y-67929442D01*
X114320952Y-67929442D02*
X114320952Y-68000871D01*
X114320952Y-68000871D02*
X114344761Y-68048490D01*
X114344761Y-68048490D02*
X114368571Y-68072300D01*
X114368571Y-68072300D02*
X114416190Y-68096109D01*
X114416190Y-68096109D02*
X114606666Y-68096109D01*
X114606666Y-68096109D02*
X114606666Y-67596109D01*
X114606666Y-67596109D02*
X114439999Y-67596109D01*
X114439999Y-67596109D02*
X114392380Y-67619919D01*
X114392380Y-67619919D02*
X114368571Y-67643728D01*
X114368571Y-67643728D02*
X114344761Y-67691347D01*
X114344761Y-67691347D02*
X114344761Y-67738966D01*
X114344761Y-67738966D02*
X114368571Y-67786585D01*
X114368571Y-67786585D02*
X114392380Y-67810395D01*
X114392380Y-67810395D02*
X114439999Y-67834204D01*
X114439999Y-67834204D02*
X114606666Y-67834204D01*
X114106666Y-67596109D02*
X114106666Y-68000871D01*
X114106666Y-68000871D02*
X114082856Y-68048490D01*
X114082856Y-68048490D02*
X114059047Y-68072300D01*
X114059047Y-68072300D02*
X114011428Y-68096109D01*
X114011428Y-68096109D02*
X113916190Y-68096109D01*
X113916190Y-68096109D02*
X113868571Y-68072300D01*
X113868571Y-68072300D02*
X113844761Y-68048490D01*
X113844761Y-68048490D02*
X113820952Y-68000871D01*
X113820952Y-68000871D02*
X113820952Y-67596109D01*
X113606665Y-68072300D02*
X113535237Y-68096109D01*
X113535237Y-68096109D02*
X113416189Y-68096109D01*
X113416189Y-68096109D02*
X113368570Y-68072300D01*
X113368570Y-68072300D02*
X113344761Y-68048490D01*
X113344761Y-68048490D02*
X113320951Y-68000871D01*
X113320951Y-68000871D02*
X113320951Y-67953252D01*
X113320951Y-67953252D02*
X113344761Y-67905633D01*
X113344761Y-67905633D02*
X113368570Y-67881823D01*
X113368570Y-67881823D02*
X113416189Y-67858014D01*
X113416189Y-67858014D02*
X113511427Y-67834204D01*
X113511427Y-67834204D02*
X113559046Y-67810395D01*
X113559046Y-67810395D02*
X113582856Y-67786585D01*
X113582856Y-67786585D02*
X113606665Y-67738966D01*
X113606665Y-67738966D02*
X113606665Y-67691347D01*
X113606665Y-67691347D02*
X113582856Y-67643728D01*
X113582856Y-67643728D02*
X113559046Y-67619919D01*
X113559046Y-67619919D02*
X113511427Y-67596109D01*
X113511427Y-67596109D02*
X113392380Y-67596109D01*
X113392380Y-67596109D02*
X113320951Y-67619919D01*
X102786189Y-100639919D02*
X102833808Y-100616109D01*
X102833808Y-100616109D02*
X102905237Y-100616109D01*
X102905237Y-100616109D02*
X102976665Y-100639919D01*
X102976665Y-100639919D02*
X103024284Y-100687538D01*
X103024284Y-100687538D02*
X103048094Y-100735157D01*
X103048094Y-100735157D02*
X103071903Y-100830395D01*
X103071903Y-100830395D02*
X103071903Y-100901823D01*
X103071903Y-100901823D02*
X103048094Y-100997061D01*
X103048094Y-100997061D02*
X103024284Y-101044680D01*
X103024284Y-101044680D02*
X102976665Y-101092300D01*
X102976665Y-101092300D02*
X102905237Y-101116109D01*
X102905237Y-101116109D02*
X102857618Y-101116109D01*
X102857618Y-101116109D02*
X102786189Y-101092300D01*
X102786189Y-101092300D02*
X102762380Y-101068490D01*
X102762380Y-101068490D02*
X102762380Y-100901823D01*
X102762380Y-100901823D02*
X102857618Y-100901823D01*
X102548094Y-101116109D02*
X102548094Y-100616109D01*
X102548094Y-100616109D02*
X102357618Y-100616109D01*
X102357618Y-100616109D02*
X102309999Y-100639919D01*
X102309999Y-100639919D02*
X102286189Y-100663728D01*
X102286189Y-100663728D02*
X102262380Y-100711347D01*
X102262380Y-100711347D02*
X102262380Y-100782776D01*
X102262380Y-100782776D02*
X102286189Y-100830395D01*
X102286189Y-100830395D02*
X102309999Y-100854204D01*
X102309999Y-100854204D02*
X102357618Y-100878014D01*
X102357618Y-100878014D02*
X102548094Y-100878014D01*
X102048094Y-101116109D02*
X102048094Y-100616109D01*
X101714761Y-100616109D02*
X101619523Y-100616109D01*
X101619523Y-100616109D02*
X101571904Y-100639919D01*
X101571904Y-100639919D02*
X101524285Y-100687538D01*
X101524285Y-100687538D02*
X101500475Y-100782776D01*
X101500475Y-100782776D02*
X101500475Y-100949442D01*
X101500475Y-100949442D02*
X101524285Y-101044680D01*
X101524285Y-101044680D02*
X101571904Y-101092300D01*
X101571904Y-101092300D02*
X101619523Y-101116109D01*
X101619523Y-101116109D02*
X101714761Y-101116109D01*
X101714761Y-101116109D02*
X101762380Y-101092300D01*
X101762380Y-101092300D02*
X101809999Y-101044680D01*
X101809999Y-101044680D02*
X101833808Y-100949442D01*
X101833808Y-100949442D02*
X101833808Y-100782776D01*
X101833808Y-100782776D02*
X101809999Y-100687538D01*
X101809999Y-100687538D02*
X101762380Y-100639919D01*
X101762380Y-100639919D02*
X101714761Y-100616109D01*
X101024284Y-101116109D02*
X101309998Y-101116109D01*
X101167141Y-101116109D02*
X101167141Y-100616109D01*
X101167141Y-100616109D02*
X101214760Y-100687538D01*
X101214760Y-100687538D02*
X101262379Y-100735157D01*
X101262379Y-100735157D02*
X101309998Y-100758966D01*
X100714761Y-100616109D02*
X100667142Y-100616109D01*
X100667142Y-100616109D02*
X100619523Y-100639919D01*
X100619523Y-100639919D02*
X100595713Y-100663728D01*
X100595713Y-100663728D02*
X100571904Y-100711347D01*
X100571904Y-100711347D02*
X100548094Y-100806585D01*
X100548094Y-100806585D02*
X100548094Y-100925633D01*
X100548094Y-100925633D02*
X100571904Y-101020871D01*
X100571904Y-101020871D02*
X100595713Y-101068490D01*
X100595713Y-101068490D02*
X100619523Y-101092300D01*
X100619523Y-101092300D02*
X100667142Y-101116109D01*
X100667142Y-101116109D02*
X100714761Y-101116109D01*
X100714761Y-101116109D02*
X100762380Y-101092300D01*
X100762380Y-101092300D02*
X100786189Y-101068490D01*
X100786189Y-101068490D02*
X100809999Y-101020871D01*
X100809999Y-101020871D02*
X100833808Y-100925633D01*
X100833808Y-100925633D02*
X100833808Y-100806585D01*
X100833808Y-100806585D02*
X100809999Y-100711347D01*
X100809999Y-100711347D02*
X100786189Y-100663728D01*
X100786189Y-100663728D02*
X100762380Y-100639919D01*
X100762380Y-100639919D02*
X100714761Y-100616109D01*
X102786189Y-90479919D02*
X102833808Y-90456109D01*
X102833808Y-90456109D02*
X102905237Y-90456109D01*
X102905237Y-90456109D02*
X102976665Y-90479919D01*
X102976665Y-90479919D02*
X103024284Y-90527538D01*
X103024284Y-90527538D02*
X103048094Y-90575157D01*
X103048094Y-90575157D02*
X103071903Y-90670395D01*
X103071903Y-90670395D02*
X103071903Y-90741823D01*
X103071903Y-90741823D02*
X103048094Y-90837061D01*
X103048094Y-90837061D02*
X103024284Y-90884680D01*
X103024284Y-90884680D02*
X102976665Y-90932300D01*
X102976665Y-90932300D02*
X102905237Y-90956109D01*
X102905237Y-90956109D02*
X102857618Y-90956109D01*
X102857618Y-90956109D02*
X102786189Y-90932300D01*
X102786189Y-90932300D02*
X102762380Y-90908490D01*
X102762380Y-90908490D02*
X102762380Y-90741823D01*
X102762380Y-90741823D02*
X102857618Y-90741823D01*
X102548094Y-90956109D02*
X102548094Y-90456109D01*
X102548094Y-90456109D02*
X102357618Y-90456109D01*
X102357618Y-90456109D02*
X102309999Y-90479919D01*
X102309999Y-90479919D02*
X102286189Y-90503728D01*
X102286189Y-90503728D02*
X102262380Y-90551347D01*
X102262380Y-90551347D02*
X102262380Y-90622776D01*
X102262380Y-90622776D02*
X102286189Y-90670395D01*
X102286189Y-90670395D02*
X102309999Y-90694204D01*
X102309999Y-90694204D02*
X102357618Y-90718014D01*
X102357618Y-90718014D02*
X102548094Y-90718014D01*
X102048094Y-90956109D02*
X102048094Y-90456109D01*
X101714761Y-90456109D02*
X101619523Y-90456109D01*
X101619523Y-90456109D02*
X101571904Y-90479919D01*
X101571904Y-90479919D02*
X101524285Y-90527538D01*
X101524285Y-90527538D02*
X101500475Y-90622776D01*
X101500475Y-90622776D02*
X101500475Y-90789442D01*
X101500475Y-90789442D02*
X101524285Y-90884680D01*
X101524285Y-90884680D02*
X101571904Y-90932300D01*
X101571904Y-90932300D02*
X101619523Y-90956109D01*
X101619523Y-90956109D02*
X101714761Y-90956109D01*
X101714761Y-90956109D02*
X101762380Y-90932300D01*
X101762380Y-90932300D02*
X101809999Y-90884680D01*
X101809999Y-90884680D02*
X101833808Y-90789442D01*
X101833808Y-90789442D02*
X101833808Y-90622776D01*
X101833808Y-90622776D02*
X101809999Y-90527538D01*
X101809999Y-90527538D02*
X101762380Y-90479919D01*
X101762380Y-90479919D02*
X101714761Y-90456109D01*
X101190951Y-90456109D02*
X101143332Y-90456109D01*
X101143332Y-90456109D02*
X101095713Y-90479919D01*
X101095713Y-90479919D02*
X101071903Y-90503728D01*
X101071903Y-90503728D02*
X101048094Y-90551347D01*
X101048094Y-90551347D02*
X101024284Y-90646585D01*
X101024284Y-90646585D02*
X101024284Y-90765633D01*
X101024284Y-90765633D02*
X101048094Y-90860871D01*
X101048094Y-90860871D02*
X101071903Y-90908490D01*
X101071903Y-90908490D02*
X101095713Y-90932300D01*
X101095713Y-90932300D02*
X101143332Y-90956109D01*
X101143332Y-90956109D02*
X101190951Y-90956109D01*
X101190951Y-90956109D02*
X101238570Y-90932300D01*
X101238570Y-90932300D02*
X101262379Y-90908490D01*
X101262379Y-90908490D02*
X101286189Y-90860871D01*
X101286189Y-90860871D02*
X101309998Y-90765633D01*
X101309998Y-90765633D02*
X101309998Y-90646585D01*
X101309998Y-90646585D02*
X101286189Y-90551347D01*
X101286189Y-90551347D02*
X101262379Y-90503728D01*
X101262379Y-90503728D02*
X101238570Y-90479919D01*
X101238570Y-90479919D02*
X101190951Y-90456109D01*
X100857618Y-90456109D02*
X100524285Y-90456109D01*
X100524285Y-90456109D02*
X100738570Y-90956109D01*
X115166189Y-113339919D02*
X115213808Y-113316109D01*
X115213808Y-113316109D02*
X115285237Y-113316109D01*
X115285237Y-113316109D02*
X115356665Y-113339919D01*
X115356665Y-113339919D02*
X115404284Y-113387538D01*
X115404284Y-113387538D02*
X115428094Y-113435157D01*
X115428094Y-113435157D02*
X115451903Y-113530395D01*
X115451903Y-113530395D02*
X115451903Y-113601823D01*
X115451903Y-113601823D02*
X115428094Y-113697061D01*
X115428094Y-113697061D02*
X115404284Y-113744680D01*
X115404284Y-113744680D02*
X115356665Y-113792300D01*
X115356665Y-113792300D02*
X115285237Y-113816109D01*
X115285237Y-113816109D02*
X115237618Y-113816109D01*
X115237618Y-113816109D02*
X115166189Y-113792300D01*
X115166189Y-113792300D02*
X115142380Y-113768490D01*
X115142380Y-113768490D02*
X115142380Y-113601823D01*
X115142380Y-113601823D02*
X115237618Y-113601823D01*
X114928094Y-113816109D02*
X114928094Y-113316109D01*
X114928094Y-113316109D02*
X114737618Y-113316109D01*
X114737618Y-113316109D02*
X114689999Y-113339919D01*
X114689999Y-113339919D02*
X114666189Y-113363728D01*
X114666189Y-113363728D02*
X114642380Y-113411347D01*
X114642380Y-113411347D02*
X114642380Y-113482776D01*
X114642380Y-113482776D02*
X114666189Y-113530395D01*
X114666189Y-113530395D02*
X114689999Y-113554204D01*
X114689999Y-113554204D02*
X114737618Y-113578014D01*
X114737618Y-113578014D02*
X114928094Y-113578014D01*
X114428094Y-113816109D02*
X114428094Y-113316109D01*
X114094761Y-113316109D02*
X113999523Y-113316109D01*
X113999523Y-113316109D02*
X113951904Y-113339919D01*
X113951904Y-113339919D02*
X113904285Y-113387538D01*
X113904285Y-113387538D02*
X113880475Y-113482776D01*
X113880475Y-113482776D02*
X113880475Y-113649442D01*
X113880475Y-113649442D02*
X113904285Y-113744680D01*
X113904285Y-113744680D02*
X113951904Y-113792300D01*
X113951904Y-113792300D02*
X113999523Y-113816109D01*
X113999523Y-113816109D02*
X114094761Y-113816109D01*
X114094761Y-113816109D02*
X114142380Y-113792300D01*
X114142380Y-113792300D02*
X114189999Y-113744680D01*
X114189999Y-113744680D02*
X114213808Y-113649442D01*
X114213808Y-113649442D02*
X114213808Y-113482776D01*
X114213808Y-113482776D02*
X114189999Y-113387538D01*
X114189999Y-113387538D02*
X114142380Y-113339919D01*
X114142380Y-113339919D02*
X114094761Y-113316109D01*
X113404284Y-113816109D02*
X113689998Y-113816109D01*
X113547141Y-113816109D02*
X113547141Y-113316109D01*
X113547141Y-113316109D02*
X113594760Y-113387538D01*
X113594760Y-113387538D02*
X113642379Y-113435157D01*
X113642379Y-113435157D02*
X113689998Y-113458966D01*
X113237618Y-113316109D02*
X112904285Y-113316109D01*
X112904285Y-113316109D02*
X113118570Y-113816109D01*
M02*
